{
.appVersion = "939";
copyright = "Copyright 2016, Jeremy Tribby. Released under the SIL Open Font License v1.1.";
date = "2017-01-19 02:17:38 +0000";
designer = "Jeremy Tribby";
designerURL = "https://tribby.com/";
familyName = Barlow;
fontMaster = (
{
alignmentZones = (
"{800, 16}",
"{700, 9}",
"{500, 9}",
"{0, -8}",
"{-200, -16}"
);
ascender = 800;
capHeight = 700;
descender = -200;
horizontalStems = (
22,
22
);
id = "262880E7-CFE1-4BDA-902E-E24798F3240A";
userData = {
GSCornerRadius = 12;
GSOffsetHorizontal = 11;
GSOffsetMakeStroke = 1;
GSOffsetPosition = 0.2;
GSOffsetVertical = 10;
noodleExtremesAndInflections = 1;
noodleRemoveOverlap = 1;
noodleThickness = "22.0";
};
verticalStems = (
21,
21
);
weight = Light;
weightValue = 23;
widthValue = 5;
xHeight = 500;
},
{
alignmentZones = (
"{800, 16}",
"{700, 9}",
"{520, 9}",
"{0, -13}",
"{-200, -7}"
);
ascender = 800;
capHeight = 700;
customParameters = (
{
name = paramArea;
value = "488";
},
{
name = paramDepth;
value = "16";
},
{
name = paramOver;
value = "0";
}
);
descender = -200;
horizontalStems = (
188,
188
);
id = "FFFA8D72-12AC-4CE0-B2CA-57A29829F4DA";
userData = {
GSCornerRadius = 8;
GSOffsetHorizontal = 104;
GSOffsetMakeStroke = 1;
GSOffsetVertical = 95;
noodleExtremesAndInflections = 1;
noodleRemoveOverlap = 1;
noodleThickness = "22.0";
};
verticalStems = (
170,
161
);
weight = Bold;
weightValue = 188;
widthValue = 5;
xHeight = 520;
},
{
alignmentZones = (
"{800, 16}",
"{700, 9}",
"{500, 9}",
"{0, -9}",
"{-200, -16}"
);
ascender = 800;
capHeight = 700;
customParameters = (
{
name = paramArea;
value = "488";
},
{
name = paramDepth;
value = "16";
},
{
name = paramOver;
value = "0";
}
);
descender = -200;
horizontalStems = (
22,
22
);
id = "DCBE1F7B-116A-43E0-B7B4-8657BA77D8B5";
userData = {
GSCornerRadius = 8;
GSOffsetHorizontal = 11;
GSOffsetMakeStroke = 1;
GSOffsetPosition = 0.2;
GSOffsetVertical = 10;
noodleExtremesAndInflections = 1;
noodleRemoveOverlap = 1;
noodleThickness = "22.0";
};

glyphs = (
{
glyphname = A;
lastChange = "2017-02-24 09:01:06 +0000";
layers = (
{
anchors = (
{
name = top;
position = "{248, 700}";
}
);
layerId = "262880E7-CFE1-4BDA-902E-E24798F3240A";
paths = (
{
closed = 1;
nodes = (
"52 0 LINE",
"248 661 LINE",
"446 0 LINE",
"468 0 LINE",
"259 700 LINE",
"237 700 LINE",
"30 0 LINE"
);
},
{
closed = 1;
nodes = (
"412 155 LINE",
"412 176 LINE",
"89 176 LINE",
"89 155 LINE"
);
}
);
width = 498;
},
{
anchors = (
{
name = top;
position = "{260, 700}";
}
);
layerId = "4E2227F3-52E4-4048-A8EE-327B486EF0A4";
paths = (
{
closed = 1;
nodes = (
"194 0 LINE",
"264 458 LINE",
"321 0 LINE",
"513 0 LINE",
"365 700 LINE",
"155 700 LINE",
"6 0 LINE"
);
},
{
closed = 1;
nodes = (
"393 95 LINE",
"393 239 LINE",
"123 239 LINE",
"123 95 LINE"
);
}
);
width = 519;
},
{
anchors = (
{
name = top;
position = "{299, 713}";
}
);
layerId = "FFFA8D72-12AC-4CE0-B2CA-57A29829F4DA";
paths = (
{
closed = 1;
nodes = (
"194 0 LINE",
"301 478 LINE",
"408 0 LINE",
"596 0 LINE",
"406 700 LINE",
"196 700 LINE",
"6 0 LINE"
);
},
{
closed = 1;
nodes = (
"467 95 LINE",
"467 239 LINE",
"132 239 LINE",
"132 95 LINE"
);
}
);
width = 602;
},
{
anchors = (
{
name = top;
position = "{190, 700}";
}
);
layerId = "DCBE1F7B-116A-43E0-B7B4-8657BA77D8B5";
paths = (
{
closed = 1;
nodes = (
"43 0 LINE",
"190 662 LINE",
"338 0 LINE",
"360 0 LINE",
"201 700 LINE",
"178 700 LINE",
"21 0 LINE"
);
},
{
closed = 1;
nodes = (
"315 155 LINE",
"315 176 LINE",
"69 176 LINE",
"69 155 LINE"
);
}
);
width = 381;
}
);
leftKerningGroup = A;
rightKerningGroup = A;
unicode = 0041;
},
{
glyphname = B;
lastChange = "2017-02-24 09:01:06 +0000";
layers = (
{
layerId = "262880E7-CFE1-4BDA-902E-E24798F3240A";
paths = (
{
closed = 1;
nodes = (
"102 679 LINE",
"278 679 LINE SMOOTH",
"376 679 OFFCURVE",
"441 617 OFFCURVE",
"441 523 CURVE SMOOTH",
"441 433 OFFCURVE",
"376 373 OFFCURVE",
"278 373 CURVE SMOOTH",
"102 373 LINE"
);
},
{
closed = 1;
nodes = (
"279 352 LINE SMOOTH",
"389 352 OFFCURVE",
"463 420 OFFCURVE",
"463 523 CURVE SMOOTH",
"463 629 OFFCURVE",
"389 700 OFFCURVE",
"278 700 CURVE SMOOTH",
"80 700 LINE",
"80 352 LINE"
);
},
{
closed = 1;
nodes = (
"102 352 LINE",
"278 352 LINE SMOOTH",
"380 352 OFFCURVE",
"448 286 OFFCURVE",
"448 186 CURVE SMOOTH",
"448 88 OFFCURVE",
"382 22 OFFCURVE",
"284 22 CURVE SMOOTH",
"102 22 LINE"
);
},
{
closed = 1;
nodes = (
"284 0 LINE SMOOTH",
"396 0 OFFCURVE",
"470 74 OFFCURVE",
"470 186 CURVE SMOOTH",
"470 298 OFFCURVE",
"394 373 OFFCURVE",
"279 373 CURVE SMOOTH",
"80 373 LINE",
"80 0 LINE"
);
}
);
width = 520;
},
{
layerId = "4E2227F3-52E4-4048-A8EE-327B486EF0A4";
paths = (
{
closed = 1;
nodes = (
"204 539 LINE",
"215 539 LINE",
"245 539 OFFCURVE",
"260 520 OFFCURVE",
"260 483 CURVE SMOOTH",
"260 447 OFFCURVE",
"245 427 OFFCURVE",
"215 427 CURVE",
"204 427 LINE"
);
},
{
closed = 1;
nodes = (
"181 319 LINE SMOOTH",
"356 319 OFFCURVE",
"444 369 OFFCURVE",
"444 503 CURVE SMOOTH",
"444 640 OFFCURVE",
"351 700 OFFCURVE",
"212 700 CURVE",
"16 700 LINE",
"16 319 LINE"
);
},
{
closed = 1;
nodes = (
"204 293 LINE",
"228 293 LINE SMOOTH",
"253 293 OFFCURVE",
"270 266 OFFCURVE",
"270 225 CURVE SMOOTH",
"270 182 OFFCURVE",
"252 161 OFFCURVE",
"227 161 CURVE SMOOTH",
"204 161 LINE"
);
},
{
closed = 1;
nodes = (
"242 0 LINE SMOOTH",
"361 0 OFFCURVE",
"460 65 OFFCURVE",
"458 201 CURVE SMOOTH",
"455 368 OFFCURVE",
"310 418 OFFCURVE",
"179 418 CURVE",
"16 418 LINE",
"16 0 LINE"
);
}
);
width = 468;
},
{
layerId = "FFFA8D72-12AC-4CE0-B2CA-57A29829F4DA";
paths = (
{
closed = 1;
nodes = (
"204 539 LINE",
"264 539 LINE",
"309 539 OFFCURVE",
"337 516 OFFCURVE",
"337 484 CURVE SMOOTH",
"337 451 OFFCURVE",
"307 429 OFFCURVE",
"264 429 CURVE",
"204 429 LINE"
);
},
{
closed = 1;
nodes = (
"218 323 LINE SMOOTH",
"403 321 OFFCURVE",
"521 360 OFFCURVE",
"521 502 CURVE SMOOTH",
"521 650 OFFCURVE",
"427 700 OFFCURVE",
"264 700 CURVE",
"16 700 LINE",
"16 325 LINE"
);
},
{
closed = 1;
nodes = (
"204 276 LINE",
"274 276 LINE SMOOTH",
"313 276 OFFCURVE",
"344 253 OFFCURVE",
"344 220 CURVE SMOOTH",
"344 189 OFFCURVE",
"317 161 OFFCURVE",
"273 161 CURVE SMOOTH",
"204 161 LINE"
);
},
{
closed = 1;
nodes = (
"273 0 LINE SMOOTH",
"415 0 OFFCURVE",
"532 55 OFFCURVE",
"532 200 CURVE SMOOTH",
"532 376 OFFCURVE",
"354 403 OFFCURVE",
"216 403 CURVE",
"16 401 LINE",
"16 0 LINE"
);
}
);
width = 542;
},
{
layerId = "DCBE1F7B-116A-43E0-B7B4-8657BA77D8B5";
paths = (
{
closed = 1;
nodes = (
"78 679 LINE",
"192 679 LINE SMOOTH",
"281 679 OFFCURVE",
"334 621 OFFCURVE",
"334 523 CURVE SMOOTH",
"334 429 OFFCURVE",
"281 373 OFFCURVE",
"192 373 CURVE SMOOTH",
"78 373 LINE"
);
},
{
closed = 1;
nodes = (
"191 352 LINE SMOOTH",
"295 352 OFFCURVE",
"356 415 OFFCURVE",
"356 523 CURVE SMOOTH",
"356 635 OFFCURVE",
"295 700 OFFCURVE",
"192 700 CURVE SMOOTH",
"56 700 LINE",
"56 352 LINE"
);
},
{
closed = 1;
nodes = (
"78 352 LINE",
"192 352 LINE SMOOTH",
"282 352 OFFCURVE",
"335 291 OFFCURVE",
"335 186 CURVE SMOOTH",
"335 83 OFFCURVE",
"282 22 OFFCURVE",
"192 22 CURVE SMOOTH",
"78 22 LINE"
);
},
{
closed = 1;
nodes = (
"193 0 LINE SMOOTH",
"296 0 OFFCURVE",
"357 69 OFFCURVE",
"357 186 CURVE SMOOTH",
"357 304 OFFCURVE",
"296 373 OFFCURVE",
"191 373 CURVE SMOOTH",
"56 373 LINE",
"56 0 LINE"
);
}
);
width = 392;
}
);
leftKerningGroup = H;
rightKerningGroup = B;
unicode = 0042;
},
{
glyphname = C;
lastChange = "2017-02-24 09:30:04 +0000";
layers = (
{
anchors = (
{
name = top;
position = "{274, 708}";
}
);
layerId = "262880E7-CFE1-4BDA-902E-E24798F3240A";
paths = (
{
closed = 1;
nodes = (
"390 -9 OFFCURVE",
"468 62 OFFCURVE",
"468 168 CURVE SMOOTH",
"468 177 LINE",
"446 178 LINE",
"446 166 LINE SMOOTH",
"446 74 OFFCURVE",
"377 12 OFFCURVE",
"274 12 CURVE SMOOTH",
"170 12 OFFCURVE",
"102 74 OFFCURVE",
"102 166 CURVE SMOOTH",
"102 534 LINE SMOOTH",
"102 626 OFFCURVE",
"170 687 OFFCURVE",
"274 687 CURVE SMOOTH",
"377 687 OFFCURVE",
"446 626 OFFCURVE",
"446 534 CURVE SMOOTH",
"446 521 LINE",
"468 522 LINE",
"468 533 LINE SMOOTH",
"468 639 OFFCURVE",
"390 708 OFFCURVE",
"274 708 CURVE SMOOTH",
"157 708 OFFCURVE",
"80 639 OFFCURVE",
"80 533 CURVE SMOOTH",
"80 168 LINE SMOOTH",
"80 62 OFFCURVE",
"157 -9 OFFCURVE",
"274 -9 CURVE SMOOTH"
);
}
);
width = 518;
},
{
anchors = (
{
name = top;
position = "{235, 708}";
}
);
layerId = "4E2227F3-52E4-4048-A8EE-327B486EF0A4";
paths = (
{
closed = 1;
nodes = (
"366 -8 OFFCURVE",
"454 75 OFFCURVE",
"454 205 CURVE SMOOTH",
"454 224 LINE",
"266 231 LINE",
"266 189 LINE SMOOTH",
"266 167 OFFCURVE",
"254 153 OFFCURVE",
"235 153 CURVE SMOOTH",
"216 153 OFFCURVE",
"204 167 OFFCURVE",
"204 189 CURVE SMOOTH",
"204 510 LINE SMOOTH",
"204 532 OFFCURVE",
"216 547 OFFCURVE",
"235 547 CURVE SMOOTH",
"254 547 OFFCURVE",
"266 532 OFFCURVE",
"266 510 CURVE SMOOTH",
"266 470 LINE",
"454 477 LINE",
"454 497 LINE SMOOTH",
"454 627 OFFCURVE",
"366 708 OFFCURVE",
"235 708 CURVE SMOOTH",
"103 708 OFFCURVE",
"16 627 OFFCURVE",
"16 497 CURVE SMOOTH",
"16 205 LINE SMOOTH",
"16 75 OFFCURVE",
"103 -8 OFFCURVE",
"235 -8 CURVE SMOOTH"
);
}
);
width = 464;
},
{
anchors = (
{
name = top;
position = "{272, 708}";
}
);
layerId = "FFFA8D72-12AC-4CE0-B2CA-57A29829F4DA";
paths = (
{
closed = 1;
nodes = (
"426 -8 OFFCURVE",
"528 79 OFFCURVE",
"528 215 CURVE SMOOTH",
"528 224 LINE",
"340 231 LINE",
"340 219 LINE SMOOTH",
"340 178 OFFCURVE",
"313 150 OFFCURVE",
"272 150 CURVE SMOOTH",
"231 150 OFFCURVE",
"204 178 OFFCURVE",
"204 219 CURVE SMOOTH",
"204 482 LINE SMOOTH",
"204 524 OFFCURVE",
"231 552 OFFCURVE",
"272 552 CURVE SMOOTH",
"313 552 OFFCURVE",
"340 524 OFFCURVE",
"340 482 CURVE SMOOTH",
"340 470 LINE",
"528 477 LINE",
"528 487 LINE SMOOTH",
"528 623 OFFCURVE",
"426 708 OFFCURVE",
"272 708 CURVE SMOOTH",
"118 708 OFFCURVE",
"16 617 OFFCURVE",
"16 472 CURVE SMOOTH",
"16 230 LINE SMOOTH",
"16 85 OFFCURVE",
"118 -8 OFFCURVE",
"272 -8 CURVE SMOOTH"
);
}
);
width = 538;
},
{
anchors = (
{
name = top;
position = "{205, 708}";
}
);
layerId = "DCBE1F7B-116A-43E0-B7B4-8657BA77D8B5";
paths = (
{
closed = 1;
nodes = (
"296 -8 OFFCURVE",
"356 54 OFFCURVE",
"356 148 CURVE SMOOTH",
"356 177 LINE",
"333 178 LINE",
"333 147 LINE SMOOTH",
"333 67 OFFCURVE",
"282 13 OFFCURVE",
"205 13 CURVE SMOOTH",
"129 13 OFFCURVE",
"78 67 OFFCURVE",
"78 147 CURVE SMOOTH",
"78 554 LINE SMOOTH",
"78 634 OFFCURVE",
"129 687 OFFCURVE",
"205 687 CURVE SMOOTH",
"282 687 OFFCURVE",
"333 634 OFFCURVE",
"333 554 CURVE SMOOTH",
"333 521 LINE",
"356 522 LINE",
"356 553 LINE SMOOTH",
"356 647 OFFCURVE",
"296 708 OFFCURVE",
"205 708 CURVE SMOOTH",
"116 708 OFFCURVE",
"56 647 OFFCURVE",
"56 553 CURVE SMOOTH",
"56 148 LINE SMOOTH",
"56 54 OFFCURVE",
"116 -8 OFFCURVE",
"205 -8 CURVE SMOOTH"
);
}
);
width = 391;
}
);
leftKerningGroup = O;
rightKerningGroup = C;
unicode = 0043;
},
{
glyphname = D;
lastChange = "2017-02-24 09:01:06 +0000";
layers = (
{
layerId = "262880E7-CFE1-4BDA-902E-E24798F3240A";
paths = (
{
closed = 1;
nodes = (
"276 0 LINE SMOOTH",
"393 0 OFFCURVE",
"465 68 OFFCURVE",
"465 180 CURVE SMOOTH",
"465 520 LINE SMOOTH",
"465 632 OFFCURVE",
"393 700 OFFCURVE",
"276 700 CURVE SMOOTH",
"90 700 LINE",
"90 0 LINE"
);
},
{
closed = 1;
nodes = (
"112 679 LINE",
"278 679 LINE SMOOTH",
"380 679 OFFCURVE",
"443 619 OFFCURVE",
"443 520 CURVE SMOOTH",
"443 179 LINE SMOOTH",
"443 81 OFFCURVE",
"380 21 OFFCURVE",
"278 21 CURVE SMOOTH",
"112 21 LINE"
);
}
);
width = 535;
},
{
layerId = "4E2227F3-52E4-4048-A8EE-327B486EF0A4";
paths = (
{
closed = 1;
nodes = (
"230 0 LINE SMOOTH",
"364 0 OFFCURVE",
"453 80 OFFCURVE",
"453 200 CURVE SMOOTH",
"453 500 LINE SMOOTH",
"453 620 OFFCURVE",
"364 700 OFFCURVE",
"230 700 CURVE SMOOTH",
"18 700 LINE",
"18 0 LINE"
);
},
{
closed = 1;
nodes = (
"206 530 LINE",
"225 530 LINE SMOOTH",
"249 530 OFFCURVE",
"265 510 OFFCURVE",
"265 479 CURVE",
"265 222 LINE",
"263 192 OFFCURVE",
"247 172 OFFCURVE",
"226 171 CURVE SMOOTH",
"206 170 LINE"
);
}
);
width = 467;
},
{
layerId = "FFFA8D72-12AC-4CE0-B2CA-57A29829F4DA";
paths = (
{
closed = 1;
nodes = (
"260 0 LINE SMOOTH",
"429 0 OFFCURVE",
"524 74 OFFCURVE",
"524 205 CURVE SMOOTH",
"524 495 LINE SMOOTH",
"524 626 OFFCURVE",
"429 700 OFFCURVE",
"260 700 CURVE SMOOTH",
"18 700 LINE",
"18 0 LINE"
);
},
{
closed = 1;
nodes = (
"206 530 LINE",
"266 530 LINE SMOOTH",
"311 530 OFFCURVE",
"336 503 OFFCURVE",
"336 454 CURVE",
"336 247 LINE",
"334 199 OFFCURVE",
"309 172 OFFCURVE",
"267 171 CURVE SMOOTH",
"206 170 LINE"
);
}
);
width = 538;
},
{
layerId = "DCBE1F7B-116A-43E0-B7B4-8657BA77D8B5";
paths = (
{
closed = 1;
nodes = (
"207 0 LINE SMOOTH",
"297 0 OFFCURVE",
"353 68 OFFCURVE",
"353 180 CURVE SMOOTH",
"353 520 LINE SMOOTH",
"353 632 OFFCURVE",
"297 700 OFFCURVE",
"207 700 CURVE SMOOTH",
"63 700 LINE",
"63 0 LINE"
);
},
{
closed = 1;
nodes = (
"85 679 LINE",
"208 679 LINE SMOOTH",
"284 679 OFFCURVE",
"330 619 OFFCURVE",
"330 520 CURVE SMOOTH",
"330 179 LINE SMOOTH",
"330 81 OFFCURVE",
"283 21 OFFCURVE",
"208 21 CURVE SMOOTH",
"85 21 LINE"
);
}
);
width = 402;
}
);
leftKerningGroup = H;
rightKerningGroup = B;
unicode = 0044;
},
{
glyphname = E;
lastChange = "2017-02-24 09:01:06 +0000";
layers = (
{
anchors = (
{
name = top;
position = "{272, 710}";
}
);
layerId = "262880E7-CFE1-4BDA-902E-E24798F3240A";
paths = (
{
closed = 1;
nodes = (
"454 0 LINE",
"454 21 LINE",
"112 21 LINE",
"112 679 LINE",
"454 679 LINE",
"454 700 LINE",
"90 700 LINE",
"90 0 LINE"
);
},
{
closed = 1;
nodes = (
"347 340 LINE",
"347 361 LINE",
"101 361 LINE",
"101 340 LINE"
);
}
);
width = 494;
},
{
anchors = (
{
name = top;
position = "{218, 713}";
}
);
layerId = "4E2227F3-52E4-4048-A8EE-327B486EF0A4";
paths = (
{
closed = 1;
nodes = (
"418 0 LINE",
"418 170 LINE",
"206 170 LINE",
"206 530 LINE",
"418 530 LINE",
"418 700 LINE",
"18 700 LINE",
"18 0 LINE"
);
},
{
closed = 1;
nodes = (
"326 265 LINE",
"326 435 LINE",
"94 435 LINE",
"94 265 LINE"
);
}
);
width = 426;
},
{
anchors = (
{
name = top;
position = "{255, 713}";
}
);
layerId = "FFFA8D72-12AC-4CE0-B2CA-57A29829F4DA";
paths = (
{
closed = 1;
nodes = (
"488 0 LINE",
"488 170 LINE",
"206 170 LINE",
"206 530 LINE",
"488 530 LINE",
"488 700 LINE",
"18 700 LINE",
"18 0 LINE"
);
},
{
closed = 1;
nodes = (
"374 265 LINE",
"374 435 LINE",
"94 435 LINE",
"94 265 LINE"
);
}
);
width = 496;
},
{
anchors = (
{
name = top;
position = "{204, 710}";
}
);
layerId = "DCBE1F7B-116A-43E0-B7B4-8657BA77D8B5";
paths = (
{
closed = 1;
nodes = (
"345 0 LINE",
"345 21 LINE",
"85 21 LINE",
"85 679 LINE",
"345 679 LINE",
"345 700 LINE",
"63 700 LINE",
"63 0 LINE"
);
},
{
closed = 1;
nodes = (
"262 340 LINE",
"262 361 LINE",
"74 361 LINE",
"74 340 LINE"
);
}
);
width = 373;
}
);
leftKerningGroup = H;
unicode = 0045;
},
{
glyphname = F;
lastChange = "2017-02-24 09:01:06 +0000";
layers = (
{
layerId = "262880E7-CFE1-4BDA-902E-E24798F3240A";
paths = (
{
closed = 1;
nodes = (
"112 0 LINE",
"112 679 LINE",
"453 679 LINE",
"453 700 LINE",
"90 700 LINE",
"90 0 LINE"
);
},
{
closed = 1;
nodes = (
"346 340 LINE",
"346 361 LINE",
"101 361 LINE",
"101 340 LINE"
);
}
);
width = 483;
},
{
layerId = "4E2227F3-52E4-4048-A8EE-327B486EF0A4";
paths = (
{
closed = 1;
nodes = (
"206 0 LINE",
"206 530 LINE",
"418 530 LINE",
"418 700 LINE",
"18 700 LINE",
"18 0 LINE"
);
},
{
closed = 1;
nodes = (
"326 265 LINE",
"326 435 LINE",
"94 435 LINE",
"94 265 LINE"
);
}
);
width = 424;
},
{
layerId = "FFFA8D72-12AC-4CE0-B2CA-57A29829F4DA";
paths = (
{
closed = 1;
nodes = (
"206 0 LINE",
"206 530 LINE",
"487 530 LINE",
"487 700 LINE",
"18 700 LINE",
"18 0 LINE"
);
},
{
closed = 1;
nodes = (
"374 265 LINE",
"374 435 LINE",
"94 435 LINE",
"94 265 LINE"
);
}
);
width = 493;
},
{
layerId = "DCBE1F7B-116A-43E0-B7B4-8657BA77D8B5";
paths = (
{
closed = 1;
nodes = (
"85 0 LINE",
"85 679 LINE",
"343 679 LINE",
"343 700 LINE",
"63 700 LINE",
"63 0 LINE"
);
},
{
closed = 1;
nodes = (
"261 340 LINE",
"261 361 LINE",
"74 361 LINE",
"74 340 LINE"
);
}
);
width = 364;
}
);
leftKerningGroup = H;
unicode = 0046;
},
{
glyphname = G;
lastChange = "2017-02-24 09:31:56 +0000";
layers = (
{
layerId = "262880E7-CFE1-4BDA-902E-E24798F3240A";
paths = (
{
closed = 1;
nodes = (
"390 -8 OFFCURVE",
"467 64 OFFCURVE",
"467 174 CURVE SMOOTH",
"467 342 LINE",
"283 342 LINE",
"283 321 LINE",
"445 321 LINE",
"445 173 LINE SMOOTH",
"445 77 OFFCURVE",
"377 13 OFFCURVE",
"274 13 CURVE SMOOTH",
"171 13 OFFCURVE",
"102 77 OFFCURVE",
"102 173 CURVE SMOOTH",
"102 527 LINE SMOOTH",
"102 623 OFFCURVE",
"171 687 OFFCURVE",
"274 687 CURVE SMOOTH",
"377 687 OFFCURVE",
"445 623 OFFCURVE",
"445 527 CURVE SMOOTH",
"445 500 LINE",
"467 500 LINE",
"467 526 LINE SMOOTH",
"467 636 OFFCURVE",
"390 708 OFFCURVE",
"274 708 CURVE SMOOTH",
"158 708 OFFCURVE",
"80 636 OFFCURVE",
"80 526 CURVE SMOOTH",
"80 174 LINE SMOOTH",
"80 64 OFFCURVE",
"158 -8 OFFCURVE",
"274 -8 CURVE SMOOTH"
);
}
);
width = 517;
},
{
layerId = "4E2227F3-52E4-4048-A8EE-327B486EF0A4";
paths = (
{
closed = 1;
nodes = (
"366 -8 OFFCURVE",
"454 72 OFFCURVE",
"454 196 CURVE SMOOTH",
"454 395 LINE",
"237 395 LINE",
"237 250 LINE",
"266 250 LINE",
"266 195 LINE SMOOTH",
"266 170 OFFCURVE",
"254 153 OFFCURVE",
"235 153 CURVE SMOOTH",
"216 153 OFFCURVE",
"204 170 OFFCURVE",
"204 195 CURVE SMOOTH",
"204 505 LINE SMOOTH",
"204 530 OFFCURVE",
"216 547 OFFCURVE",
"235 547 CURVE SMOOTH",
"254 547 OFFCURVE",
"266 530 OFFCURVE",
"266 505 CURVE SMOOTH",
"266 455 LINE",
"454 455 LINE",
"454 503 LINE SMOOTH",
"454 628 OFFCURVE",
"366 708 OFFCURVE",
"235 708 CURVE SMOOTH",
"103 708 OFFCURVE",
"16 629 OFFCURVE",
"16 505 CURVE SMOOTH",
"16 196 LINE SMOOTH",
"16 72 OFFCURVE",
"103 -8 OFFCURVE",
"235 -8 CURVE SMOOTH"
);
}
);
width = 464;
},
{
layerId = "FFFA8D72-12AC-4CE0-B2CA-57A29829F4DA";
paths = (
{
closed = 1;
nodes = (
"425 -8 OFFCURVE",
"527 88 OFFCURVE",
"527 236 CURVE SMOOTH",
"527 399 LINE",
"276 399 LINE",
"276 254 LINE",
"340 254 LINE",
"340 227 LINE SMOOTH",
"340 181 OFFCURVE",
"313 150 OFFCURVE",
"272 150 CURVE SMOOTH",
"231 150 OFFCURVE",
"204 181 OFFCURVE",
"204 227 CURVE SMOOTH",
"204 474 LINE SMOOTH",
"204 520 OFFCURVE",
"231 551 OFFCURVE",
"272 551 CURVE SMOOTH",
"313 551 OFFCURVE",
"340 520 OFFCURVE",
"340 474 CURVE SMOOTH",
"340 455 LINE",
"527 455 LINE",
"527 463 LINE SMOOTH",
"527 612 OFFCURVE",
"425 708 OFFCURVE",
"272 708 CURVE SMOOTH",
"118 708 OFFCURVE",
"16 613 OFFCURVE",
"16 465 CURVE SMOOTH",
"16 236 LINE SMOOTH",
"16 88 OFFCURVE",
"118 -8 OFFCURVE",
"272 -8 CURVE SMOOTH"
);
}
);
width = 535;
},
{
layerId = "DCBE1F7B-116A-43E0-B7B4-8657BA77D8B5";
paths = (
{
closed = 1;
nodes = (
"295 -8 OFFCURVE",
"355 52 OFFCURVE",
"355 144 CURVE SMOOTH",
"355 342 LINE",
"212 342 LINE",
"212 321 LINE",
"333 321 LINE",
"333 143 LINE SMOOTH",
"333 65 OFFCURVE",
"282 13 OFFCURVE",
"205 13 CURVE SMOOTH",
"129 13 OFFCURVE",
"78 65 OFFCURVE",
"78 143 CURVE SMOOTH",
"78 557 LINE SMOOTH",
"78 635 OFFCURVE",
"129 687 OFFCURVE",
"205 687 CURVE SMOOTH",
"282 687 OFFCURVE",
"333 635 OFFCURVE",
"333 557 CURVE SMOOTH",
"333 500 LINE",
"355 500 LINE",
"355 556 LINE SMOOTH",
"355 648 OFFCURVE",
"295 708 OFFCURVE",
"205 708 CURVE SMOOTH",
"116 708 OFFCURVE",
"56 648 OFFCURVE",
"56 556 CURVE SMOOTH",
"56 144 LINE SMOOTH",
"56 52 OFFCURVE",
"116 -8 OFFCURVE",
"205 -8 CURVE SMOOTH"
);
}
);
width = 390;
}
);
leftKerningGroup = O;
rightKerningGroup = G;
unicode = 0047;
},
{
glyphname = H;
lastChange = "2017-02-24 09:01:06 +0000";
layers = (
{
layerId = "262880E7-CFE1-4BDA-902E-E24798F3240A";
paths = (
{
closed = 1;
nodes = (
"455 0 LINE",
"455 700 LINE",
"433 700 LINE",
"433 0 LINE"
);
},
{
closed = 1;
nodes = (
"112 0 LINE",
"112 700 LINE",
"90 700 LINE",
"90 0 LINE"
);
},
{
closed = 1;
nodes = (
"438 340 LINE",
"438 361 LINE",
"107 361 LINE",
"107 340 LINE"
);
}
);
width = 545;
},
{
layerId = "4E2227F3-52E4-4048-A8EE-327B486EF0A4";
paths = (
{
closed = 1;
nodes = (
"451 0 LINE",
"451 700 LINE",
"263 700 LINE",
"263 0 LINE"
);
},
{
closed = 1;
nodes = (
"206 0 LINE",
"206 700 LINE",
"18 700 LINE",
"18 0 LINE"
);
},
{
closed = 1;
nodes = (
"353 265 LINE",
"353 435 LINE",
"118 435 LINE",
"118 265 LINE"
);
}
);
width = 469;
},
{
layerId = "FFFA8D72-12AC-4CE0-B2CA-57A29829F4DA";
paths = (
{
closed = 1;
nodes = (
"520 0 LINE",
"520 700 LINE",
"332 700 LINE",
"332 0 LINE"
);
},
{
closed = 1;
nodes = (
"206 0 LINE",
"206 700 LINE",
"18 700 LINE",
"18 0 LINE"
);
},
{
closed = 1;
nodes = (
"421 265 LINE",
"421 435 LINE",
"119 435 LINE",
"119 265 LINE"
);
}
);
width = 538;
},
{
layerId = "DCBE1F7B-116A-43E0-B7B4-8657BA77D8B5";
paths = (
{
closed = 1;
nodes = (
"346 0 LINE",
"346 700 LINE",
"324 700 LINE",
"324 0 LINE"
);
},
{
closed = 1;
nodes = (
"85 0 LINE",
"85 700 LINE",
"63 700 LINE",
"63 0 LINE"
);
},
{
closed = 1;
nodes = (
"331 340 LINE",
"331 361 LINE",
"79 361 LINE",
"79 340 LINE"
);
}
);
width = 409;
}
);
unicode = 0048;
},
{
glyphname = I;
lastChange = "2017-02-24 09:01:06 +0000";
layers = (
{
anchors = (
{
name = top;
position = "{101, 710}";
}
);
layerId = "262880E7-CFE1-4BDA-902E-E24798F3240A";
paths = (
{
closed = 1;
nodes = (
"112 0 LINE",
"112 700 LINE",
"90 700 LINE",
"90 0 LINE"
);
}
);
width = 202;
},
{
anchors = (
{
name = top;
position = "{112, 713}";
}
);
layerId = "4E2227F3-52E4-4048-A8EE-327B486EF0A4";
paths = (
{
closed = 1;
nodes = (
"206 0 LINE",
"206 700 LINE",
"18 700 LINE",
"18 0 LINE"
);
}
);
width = 224;
},
{
anchors = (
{
name = top;
position = "{112, 713}";
}
);
layerId = "FFFA8D72-12AC-4CE0-B2CA-57A29829F4DA";
paths = (
{
closed = 1;
nodes = (
"206 0 LINE",
"206 700 LINE",
"18 700 LINE",
"18 0 LINE"
);
}
);
width = 224;
},
{
anchors = (
{
name = top;
position = "{74, 710}";
}
);
layerId = "DCBE1F7B-116A-43E0-B7B4-8657BA77D8B5";
paths = (
{
closed = 1;
nodes = (
"85 0 LINE",
"85 700 LINE",
"63 700 LINE",
"63 0 LINE"
);
}
);
width = 148;
}
);
unicode = 0049;
},
{
glyphname = J;
lastChange = "2017-02-24 09:33:31 +0000";
layers = (
{
layerId = "262880E7-CFE1-4BDA-902E-E24798F3240A";
paths = (
{
closed = 1;
nodes = (
"328 -8 OFFCURVE",
"403 62 OFFCURVE",
"403 168 CURVE SMOOTH",
"403 700 LINE",
"381 700 LINE",
"381 167 LINE SMOOTH",
"381 75 OFFCURVE",
"314 13 OFFCURVE",
"216 13 CURVE SMOOTH",
"118 13 OFFCURVE",
"52 75 OFFCURVE",
"52 167 CURVE SMOOTH",
"52 251 LINE",
"30 251 LINE",
"30 168 LINE SMOOTH",
"30 62 OFFCURVE",
"104 -8 OFFCURVE",
"216 -8 CURVE SMOOTH"
);
}
);
width = 493;
},
{
layerId = "4E2227F3-52E4-4048-A8EE-327B486EF0A4";
paths = (
{
closed = 1;
nodes = (
"354 -8 OFFCURVE",
"442 72 OFFCURVE",
"442 192 CURVE SMOOTH",
"442 700 LINE",
"254 700 LINE",
"254 190 LINE SMOOTH",
"254 168 OFFCURVE",
"241 153 OFFCURVE",
"223 153 CURVE SMOOTH",
"206 153 OFFCURVE",
"194 168 OFFCURVE",
"194 190 CURVE SMOOTH",
"194 265 LINE",
"6 265 LINE",
"6 192 LINE SMOOTH",
"6 72 OFFCURVE",
"93 -8 OFFCURVE",
"223 -8 CURVE SMOOTH"
);
}
);
width = 460;
},
{
layerId = "FFFA8D72-12AC-4CE0-B2CA-57A29829F4DA";
paths = (
{
closed = 1;
nodes = (
"410 -8 OFFCURVE",
"512 80 OFFCURVE",
"512 212 CURVE SMOOTH",
"512 700 LINE",
"325 700 LINE",
"325 213 LINE SMOOTH",
"325 177 OFFCURVE",
"298 153 OFFCURVE",
"258 153 CURVE SMOOTH",
"220 153 OFFCURVE",
"194 177 OFFCURVE",
"194 213 CURVE SMOOTH",
"194 280 LINE",
"6 280 LINE",
"6 212 LINE SMOOTH",
"6 80 OFFCURVE",
"107 -8 OFFCURVE",
"258 -8 CURVE SMOOTH"
);
}
);
width = 530;
},
{
layerId = "DCBE1F7B-116A-43E0-B7B4-8657BA77D8B5";
paths = (
{
closed = 1;
nodes = (
"251 -8 OFFCURVE",
"309 54 OFFCURVE",
"309 148 CURVE SMOOTH",
"309 700 LINE",
"287 700 LINE",
"287 147 LINE SMOOTH",
"287 67 OFFCURVE",
"238 13 OFFCURVE",
"165 13 CURVE SMOOTH",
"92 13 OFFCURVE",
"43 67 OFFCURVE",
"43 147 CURVE SMOOTH",
"43 251 LINE",
"21 251 LINE",
"21 148 LINE SMOOTH",
"21 54 OFFCURVE",
"79 -8 OFFCURVE",
"165 -8 CURVE SMOOTH"
);
}
);
width = 372;
}
);
leftKerningGroup = J;
rightKerningGroup = U;
unicode = 004A;
},
{
glyphname = K;
lastChange = "2017-02-24 09:01:06 +0000";
layers = (
{
layerId = "262880E7-CFE1-4BDA-902E-E24798F3240A";
paths = (
{
closed = 1;
nodes = (
"112 0 LINE",
"112 275 LINE",
"231 408 LINE",
"480 0 LINE",
"508 0 LINE",
"246 427 LINE",
"485 700 LINE",
"457 700 LINE",
"112 306 LINE",
"112 700 LINE",
"90 700 LINE",
"90 0 LINE"
);
}
);
width = 508;
},
{
layerId = "4E2227F3-52E4-4048-A8EE-327B486EF0A4";
paths = (
{
closed = 1;
nodes = (
"206 0 LINE",
"206 183 LINE",
"237 249 LINE",
"300 -4 LINE",
"498 0 LINE",
"360 392 LINE",
"500 700 LINE",
"302 700 LINE",
"206 456 LINE",
"206 700 LINE",
"18 700 LINE",
"18 0 LINE"
);
}
);
width = 500;
},
{
layerId = "FFFA8D72-12AC-4CE0-B2CA-57A29829F4DA";
paths = (
{
closed = 1;
nodes = (
"206 0 LINE",
"206 185 LINE",
"258 259 LINE",
"378 -4 LINE",
"577 0 LINE",
"385 392 LINE",
"574 700 LINE",
"375 700 LINE",
"206 444 LINE",
"206 700 LINE",
"18 700 LINE",
"18 0 LINE"
);
}
);
width = 577;
},
{
layerId = "DCBE1F7B-116A-43E0-B7B4-8657BA77D8B5";
paths = (
{
closed = 1;
nodes = (
"85 0 LINE",
"85 274 LINE",
"173 406 LINE",
"349 0 LINE",
"376 0 LINE",
"189 427 LINE",
"359 700 LINE",
"331 700 LINE",
"85 308 LINE",
"85 700 LINE",
"63 700 LINE",
"63 0 LINE"
);
}
);
width = 376;
}
);
rightKerningGroup = K;
unicode = 004B;
},
{
glyphname = L;
lastChange = "2017-02-24 09:01:06 +0000";
layers = (
{
layerId = "262880E7-CFE1-4BDA-902E-E24798F3240A";
paths = (
{
closed = 1;
nodes = (
"448 0 LINE",
"448 21 LINE",
"112 21 LINE",
"112 700 LINE",
"90 700 LINE",
"90 0 LINE"
);
}
);
width = 468;
},
{
layerId = "4E2227F3-52E4-4048-A8EE-327B486EF0A4";
paths = (
{
closed = 1;
nodes = (
"427 0 LINE",
"427 170 LINE",
"206 170 LINE",
"206 700 LINE",
"18 700 LINE",
"18 0 LINE"
);
}
);
width = 431;
},
{
layerId = "FFFA8D72-12AC-4CE0-B2CA-57A29829F4DA";
paths = (
{
closed = 1;
nodes = (
"495 0 LINE",
"495 170 LINE",
"206 170 LINE",
"206 700 LINE",
"18 700 LINE",
"18 0 LINE"
);
}
);
width = 499;
},
{
layerId = "DCBE1F7B-116A-43E0-B7B4-8657BA77D8B5";
paths = (
{
closed = 1;
nodes = (
"340 0 LINE",
"340 21 LINE",
"85 21 LINE",
"85 700 LINE",
"63 700 LINE",
"63 0 LINE"
);
}
);
width = 354;
}
);
rightKerningGroup = L;
unicode = 004C;
},
{
color = 3;
glyphname = M;
lastChange = "2017-02-24 09:01:06 +0000";
layers = (
{
layerId = "262880E7-CFE1-4BDA-902E-E24798F3240A";
paths = (
{
closed = 1;
nodes = (
"102 0 LINE",
"102 654 LINE",
"279 329 LINE",
"297 329 LINE",
"472 654 LINE",
"472 0 LINE",
"494 0 LINE",
"494 700 LINE",
"472 700 LINE",
"286 358 LINE",
"102 700 LINE",
"80 700 LINE",
"80 0 LINE"
);
}
);
width = 574;
},
{
layerId = "4E2227F3-52E4-4048-A8EE-327B486EF0A4";
paths = (
{
closed = 1;
nodes = (
"204 0 LINE",
"204 439 LINE",
"263 310 LINE",
"264 310 LINE",
"324 436 LINE",
"324 0 LINE",
"512 0 LINE",
"512 700 LINE",
"329 700 LINE",
"264 560 LINE",
"199 700 LINE",
"16 700 LINE",
"16 0 LINE"
);
}
);
width = 528;
},
{
associatedMasterId = "4E2227F3-52E4-4048-A8EE-327B486EF0A4";
layerId = "C618EEF0-F381-433B-B25F-2EDAE517ED4C";
name = "{100,3}";
paths = (
{
closed = 1;
nodes = (
"142 0 LINE",
"142 490 LINE",
"239 280 LINE",
"248 280 LINE",
"345 488 LINE",
"345 0 LINE",
"444 0 LINE",
"444 700 LINE",
"347 700 LINE",
"243 452 LINE",
"139 700 LINE",
"42 700 LINE",
"42 0 LINE"
);
}
);
width = 485;
},
{
layerId = "FFFA8D72-12AC-4CE0-B2CA-57A29829F4DA";
paths = (
{
closed = 1;
nodes = (
"204 0 LINE",
"204 418 LINE",
"279 282 LINE",
"349 282 LINE",
"424 418 LINE",
"424 0 LINE",
"612 0 LINE",
"612 700 LINE",
"429 700 LINE",
"314 512 LINE",
"199 700 LINE",
"16 700 LINE",
"16 0 LINE"
);
}
);
width = 628;
},
{
layerId = "DCBE1F7B-116A-43E0-B7B4-8657BA77D8B5";
paths = (
{
closed = 1;
nodes = (
"78 0 LINE",
"78 651 LINE",
"208 330 LINE",
"226 330 LINE",
"354 651 LINE",
"354 0 LINE",
"376 0 LINE",
"376 700 LINE",
"354 700 LINE",
"215 358 LINE",
"78 700 LINE",
"56 700 LINE",
"56 0 LINE"
);
}
);
width = 432;
},
{
associatedMasterId = "4E2227F3-52E4-4048-A8EE-327B486EF0A4";
layerId = "B75973C7-2F91-404C-BACF-1A0B6CD40DCC";
name = "{100,5}";
paths = (
{
closed = 1;
nodes = (
"150 0 LINE",
"150 516 LINE",
"276 291 LINE",
"324 291 LINE",
"450 516 LINE",
"450 0 LINE",
"549 0 LINE",
"549 700 LINE",
"452 700 LINE",
"299 427 LINE",
"147 700 LINE",
"50 700 LINE",
"50 0 LINE"
);
}
);
width = 599;
}
);
unicode = 004D;
},
{
color = 3;
glyphname = N;
lastChange = "2017-02-24 09:01:06 +0000";
layers = (
{
anchors = (
{
name = top;
position = "{273, 710}";
}
);
layerId = "262880E7-CFE1-4BDA-902E-E24798F3240A";
paths = (
{
closed = 1;
nodes = (
"102 0 LINE",
"102 648 LINE",
"441 0 LINE",
"463 0 LINE",
"463 700 LINE",
"441 700 LINE",
"441 52 LINE",
"102 700 LINE",
"80 700 LINE",
"80 0 LINE"
);
}
);
width = 543;
},
{
anchors = (
{
name = top;
position = "{260, 713}";
}
);
layerId = "4E2227F3-52E4-4048-A8EE-327B486EF0A4";
paths = (
{
closed = 1;
nodes = (
"202 0 LINE",
"200 346 LINE",
"286 0 LINE",
"492 0 LINE",
"492 700 LINE",
"306 700 LINE",
"307 356 LINE",
"220 700 LINE",
"16 700 LINE",
"16 0 LINE"
);
}
);
width = 508;
},
{
anchors = (
{
name = top;
position = "{273, 713}";
}
);
layerId = "FFFA8D72-12AC-4CE0-B2CA-57A29829F4DA";
paths = (
{
closed = 1;
nodes = (
"202 0 LINE",
"200 352 LINE",
"396 0 LINE",
"552 0 LINE",
"552 700 LINE",
"366 700 LINE",
"368 341 LINE",
"172 700 LINE",
"16 700 LINE",
"16 0 LINE"
);
}
);
width = 568;
},
{
anchors = (
{
name = top;
position = "{205, 710}";
}
);
layerId = "DCBE1F7B-116A-43E0-B7B4-8657BA77D8B5";
paths = (
{
closed = 1;
nodes = (
"78 0 LINE",
"78 648 LINE",
"330 0 LINE",
"353 0 LINE",
"353 700 LINE",
"331 700 LINE",
"331 52 LINE",
"78 700 LINE",
"56 700 LINE",
"56 0 LINE"
);
}
);
width = 409;
},
{
anchors = (
{
name = top;
position = "{281, 711}";
}
);
associatedMasterId = "4E2227F3-52E4-4048-A8EE-327B486EF0A4";
layerId = "AF700569-CAED-4344-924C-FF7EDA896D2F";
name = "{100,5}";
paths = (
{
closed = 1;
nodes = (
"149 0 LINE",
"148 490 LINE",
"409 0 LINE",
"505 0 LINE",
"505 700 LINE",
"406 700 LINE",
"407 207 LINE",
"146 700 LINE",
"50 700 LINE",
"50 0 LINE"
);
}
);
width = 555;
},
{
anchors = (
{
name = top;
position = "{233, 711}";
}
);
associatedMasterId = "4E2227F3-52E4-4048-A8EE-327B486EF0A4";
layerId = "42C43E0D-C6E2-494E-A0C1-A4C56C6C4E84";
name = "{100,3}";
paths = (
{
closed = 1;
nodes = (
"141 0 LINE",
"140 467 LINE",
"317 0 LINE",
"423 0 LINE",
"423 700 LINE",
"324 700 LINE",
"325 234 LINE",
"146 700 LINE",
"42 700 LINE",
"42 0 LINE"
);
}
);
width = 465;
}
);
leftKerningGroup = H;
rightKerningGroup = H;
unicode = 004E;
},
{
glyphname = O;
lastChange = "2017-02-24 09:27:00 +0000";
layers = (
{
anchors = (
{
name = top;
position = "{256, 708}";
}
);
layerId = "262880E7-CFE1-4BDA-902E-E24798F3240A";
paths = (
{
closed = 1;
nodes = (
"375 -7 OFFCURVE",
"454 67 OFFCURVE",
"454 180 CURVE SMOOTH",
"454 519 LINE SMOOTH",
"454 633 OFFCURVE",
"375 708 OFFCURVE",
"256 708 CURVE SMOOTH",
"138 708 OFFCURVE",
"60 633 OFFCURVE",
"60 519 CURVE SMOOTH",
"60 180 LINE SMOOTH",
"60 67 OFFCURVE",
"138 -7 OFFCURVE",
"256 -7 CURVE SMOOTH"
);
},
{
closed = 1;
nodes = (
"152 13 OFFCURVE",
"82 79 OFFCURVE",
"82 179 CURVE SMOOTH",
"82 520 LINE SMOOTH",
"82 620 OFFCURVE",
"152 687 OFFCURVE",
"256 687 CURVE SMOOTH",
"362 687 OFFCURVE",
"432 620 OFFCURVE",
"432 520 CURVE SMOOTH",
"432 179 LINE SMOOTH",
"432 79 OFFCURVE",
"362 13 OFFCURVE",
"256 13 CURVE SMOOTH"
);
}
);
width = 514;
},
{
anchors = (
{
name = top;
position = "{231, 708}";
}
);
layerId = "4E2227F3-52E4-4048-A8EE-327B486EF0A4";
paths = (
{
closed = 1;
nodes = (
"362 -8 OFFCURVE",
"450 75 OFFCURVE",
"450 206 CURVE SMOOTH",
"450 494 LINE SMOOTH",
"450 625 OFFCURVE",
"362 708 OFFCURVE",
"231 708 CURVE SMOOTH",
"99 708 OFFCURVE",
"12 625 OFFCURVE",
"12 494 CURVE SMOOTH",
"12 206 LINE SMOOTH",
"12 75 OFFCURVE",
"99 -8 OFFCURVE",
"231 -8 CURVE SMOOTH"
);
},
{
closed = 1;
nodes = (
"212 153 OFFCURVE",
"200 170 OFFCURVE",
"200 195 CURVE SMOOTH",
"200 505 LINE SMOOTH",
"200 530 OFFCURVE",
"212 547 OFFCURVE",
"231 547 CURVE SMOOTH",
"250 547 OFFCURVE",
"262 530 OFFCURVE",
"262 505 CURVE SMOOTH",
"262 195 LINE SMOOTH",
"262 170 OFFCURVE",
"250 153 OFFCURVE",
"231 153 CURVE SMOOTH"
);
}
);
width = 462;
},
{
anchors = (
{
name = top;
position = "{268, 708}";
}
);
layerId = "FFFA8D72-12AC-4CE0-B2CA-57A29829F4DA";
paths = (
{
closed = 1;
nodes = (
"422 -12 OFFCURVE",
"525 87 OFFCURVE",
"525 236 CURVE SMOOTH",
"525 464 LINE SMOOTH",
"525 613 OFFCURVE",
"422 708 OFFCURVE",
"268 708 CURVE SMOOTH",
"114 708 OFFCURVE",
"12 613 OFFCURVE",
"12 464 CURVE SMOOTH",
"12 236 LINE SMOOTH",
"12 87 OFFCURVE",
"114 -12 OFFCURVE",
"268 -12 CURVE SMOOTH"
);
},
{
closed = 1;
nodes = (
"227 149 OFFCURVE",
"200 180 OFFCURVE",
"200 226 CURVE SMOOTH",
"200 474 LINE SMOOTH",
"200 520 OFFCURVE",
"227 551 OFFCURVE",
"268 551 CURVE SMOOTH",
"309 551 OFFCURVE",
"337 520 OFFCURVE",
"337 474 CURVE SMOOTH",
"337 226 LINE SMOOTH",
"337 180 OFFCURVE",
"309 149 OFFCURVE",
"268 149 CURVE SMOOTH"
);
}
);
width = 537;
},
{
anchors = (
{
name = top;
position = "{193, 699}";
}
);
layerId = "DCBE1F7B-116A-43E0-B7B4-8657BA77D8B5";
paths = (
{
closed = 1;
nodes = (
"283 -8 OFFCURVE",
"346 56 OFFCURVE",
"346 150 CURVE SMOOTH",
"346 549 LINE SMOOTH",
"346 643 OFFCURVE",
"283 708 OFFCURVE",
"193 708 CURVE SMOOTH",
"104 708 OFFCURVE",
"42 643 OFFCURVE",
"42 549 CURVE SMOOTH",
"42 150 LINE SMOOTH",
"42 56 OFFCURVE",
"104 -8 OFFCURVE",
"193 -8 CURVE SMOOTH"
);
},
{
closed = 1;
nodes = (
"117 13 OFFCURVE",
"64 69 OFFCURVE",
"64 149 CURVE SMOOTH",
"64 550 LINE SMOOTH",
"64 631 OFFCURVE",
"117 687 OFFCURVE",
"193 687 CURVE SMOOTH",
"270 687 OFFCURVE",
"324 631 OFFCURVE",
"324 550 CURVE SMOOTH",
"324 149 LINE SMOOTH",
"324 69 OFFCURVE",
"270 13 OFFCURVE",
"193 13 CURVE SMOOTH"
);
}
);
width = 388;
}
);
leftKerningGroup = C;
rightKerningGroup = O;
unicode = 004F;
},
{
glyphname = P;
lastChange = "2017-02-24 09:01:06 +0000";
layers = (
{
layerId = "262880E7-CFE1-4BDA-902E-E24798F3240A";
paths = (
{
closed = 1;
nodes = (
"102 0 LINE",
"102 681 LINE",
"286 681 LINE SMOOTH",
"376 681 OFFCURVE",
"437 617 OFFCURVE",
"437 520 CURVE SMOOTH",
"437 425 OFFCURVE",
"376 361 OFFCURVE",
"286 361 CURVE SMOOTH",
"97 361 LINE",
"97 340 LINE",
"284 340 LINE SMOOTH",
"389 340 OFFCURVE",
"459 411 OFFCURVE",
"459 520 CURVE SMOOTH",
"459 629 OFFCURVE",
"389 702 OFFCURVE",
"284 702 CURVE SMOOTH",
"80 702 LINE",
"80 0 LINE"
);
}
);
width = 509;
},
{
layerId = "4E2227F3-52E4-4048-A8EE-327B486EF0A4";
paths = (
{
closed = 1;
nodes = (
"204 0 LINE",
"204 539 LINE",
"223 539 LINE SMOOTH",
"252 539 OFFCURVE",
"273 517 OFFCURVE",
"273 471 CURVE SMOOTH",
"273 426 OFFCURVE",
"252 405 OFFCURVE",
"223 405 CURVE SMOOTH",
"188 405 LINE",
"188 260 LINE",
"266 260 LINE SMOOTH",
"382 260 OFFCURVE",
"461 345 OFFCURVE",
"461 475 CURVE SMOOTH",
"461 608 OFFCURVE",
"378 700 OFFCURVE",
"256 700 CURVE SMOOTH",
"16 700 LINE",
"16 0 LINE"
);
}
);
width = 471;
},
{
layerId = "FFFA8D72-12AC-4CE0-B2CA-57A29829F4DA";
paths = (
{
closed = 1;
nodes = (
"204 0 LINE",
"204 539 LINE",
"263 539 LINE SMOOTH",
"311 539 OFFCURVE",
"345 517 OFFCURVE",
"345 471 CURVE SMOOTH",
"345 426 OFFCURVE",
"311 405 OFFCURVE",
"263 405 CURVE SMOOTH",
"187 405 LINE",
"187 255 LINE",
"304 255 LINE SMOOTH",
"440 255 OFFCURVE",
"532 345 OFFCURVE",
"532 475 CURVE SMOOTH",
"532 608 OFFCURVE",
"436 700 OFFCURVE",
"294 700 CURVE SMOOTH",
"16 700 LINE",
"16 0 LINE"
);
}
);
width = 542;
},
{
layerId = "DCBE1F7B-116A-43E0-B7B4-8657BA77D8B5";
paths = (
{
closed = 1;
nodes = (
"78 0 LINE",
"78 681 LINE",
"204 681 LINE SMOOTH",
"278 681 OFFCURVE",
"327 617 OFFCURVE",
"327 520 CURVE SMOOTH",
"327 425 OFFCURVE",
"278 361 OFFCURVE",
"204 361 CURVE SMOOTH",
"74 361 LINE",
"74 340 LINE",
"204 340 LINE SMOOTH",
"291 340 OFFCURVE",
"349 412 OFFCURVE",
"349 520 CURVE SMOOTH",
"349 629 OFFCURVE",
"291 702 OFFCURVE",
"204 702 CURVE SMOOTH",
"56 702 LINE",
"56 0 LINE"
);
}
);
width = 384;
}
);
leftKerningGroup = H;
unicode = 0050;
},
{
glyphname = Q;
lastChange = "2017-02-24 09:34:46 +0000";
layers = (
{
layerId = "262880E7-CFE1-4BDA-902E-E24798F3240A";
paths = (
{
closed = 1;
nodes = (
"259 -127 LINE",
"259 0 LINE",
"237 0 LINE",
"237 -127 LINE"
);
},
{
closed = 1;
nodes = (
"148 13 OFFCURVE",
"82 80 OFFCURVE",
"82 180 CURVE SMOOTH",
"82 520 LINE SMOOTH",
"82 620 OFFCURVE",
"148 687 OFFCURVE",
"248 687 CURVE SMOOTH",
"348 687 OFFCURVE",
"415 620 OFFCURVE",
"415 520 CURVE SMOOTH",
"415 180 LINE SMOOTH",
"415 80 OFFCURVE",
"348 13 OFFCURVE",
"248 13 CURVE SMOOTH"
);
},
{
closed = 1;
nodes = (
"361 -8 OFFCURVE",
"437 67 OFFCURVE",
"437 181 CURVE SMOOTH",
"437 519 LINE SMOOTH",
"437 633 OFFCURVE",
"361 708 OFFCURVE",
"248 708 CURVE SMOOTH",
"135 708 OFFCURVE",
"60 633 OFFCURVE",
"60 519 CURVE SMOOTH",
"60 181 LINE SMOOTH",
"60 67 OFFCURVE",
"135 -8 OFFCURVE",
"248 -8 CURVE SMOOTH"
);
}
);
width = 514;
},
{
layerId = "4E2227F3-52E4-4048-A8EE-327B486EF0A4";
paths = (
{
closed = 1;
nodes = (
"322 -87 LINE",
"322 113 LINE",
"134 113 LINE",
"134 -87 LINE"
);
},
{
closed = 1;
nodes = (
"211 153 OFFCURVE",
"200 170 OFFCURVE",
"200 195 CURVE SMOOTH",
"200 505 LINE SMOOTH",
"200 530 OFFCURVE",
"211 547 OFFCURVE",
"228 547 CURVE SMOOTH",
"246 547 OFFCURVE",
"257 530 OFFCURVE",
"257 505 CURVE SMOOTH",
"257 195 LINE SMOOTH",
"257 170 OFFCURVE",
"246 153 OFFCURVE",
"228 153 CURVE SMOOTH"
);
},
{
closed = 1;
nodes = (
"359 -8 OFFCURVE",
"445 81 OFFCURVE",
"445 215 CURVE SMOOTH",
"445 485 LINE SMOOTH",
"445 619 OFFCURVE",
"359 708 OFFCURVE",
"228 708 CURVE SMOOTH",
"98 708 OFFCURVE",
"12 619 OFFCURVE",
"12 485 CURVE SMOOTH",
"12 215 LINE SMOOTH",
"12 81 OFFCURVE",
"98 -8 OFFCURVE",
"228 -8 CURVE SMOOTH"
);
}
);
width = 462;
},
{
layerId = "FFFA8D72-12AC-4CE0-B2CA-57A29829F4DA";
paths = (
{
closed = 1;
nodes = (
"359 -87 LINE",
"359 113 LINE",
"171 113 LINE",
"171 -87 LINE"
);
},
{
closed = 1;
nodes = (
"226 153 OFFCURVE",
"200 184 OFFCURVE",
"200 230 CURVE SMOOTH",
"200 470 LINE SMOOTH",
"200 516 OFFCURVE",
"226 547 OFFCURVE",
"264 547 CURVE SMOOTH",
"303 547 OFFCURVE",
"329 516 OFFCURVE",
"329 470 CURVE SMOOTH",
"329 230 LINE SMOOTH",
"329 184 OFFCURVE",
"303 153 OFFCURVE",
"264 153 CURVE SMOOTH"
);
},
{
closed = 1;
nodes = (
"415 -8 OFFCURVE",
"517 85 OFFCURVE",
"517 225 CURVE SMOOTH",
"517 460 LINE SMOOTH",
"517 612 OFFCURVE",
"415 708 OFFCURVE",
"264 708 CURVE SMOOTH",
"113 708 OFFCURVE",
"12 612 OFFCURVE",
"12 460 CURVE SMOOTH",
"12 225 LINE SMOOTH",
"12 85 OFFCURVE",
"113 -8 OFFCURVE",
"264 -8 CURVE SMOOTH"
);
}
);
width = 537;
},
{
layerId = "DCBE1F7B-116A-43E0-B7B4-8657BA77D8B5";
paths = (
{
closed = 1;
nodes = (
"199 -127 LINE",
"199 0 LINE",
"176 0 LINE",
"176 -127 LINE"
);
},
{
closed = 1;
nodes = (
"115 13 OFFCURVE",
"64 69 OFFCURVE",
"64 150 CURVE SMOOTH",
"64 550 LINE SMOOTH",
"64 631 OFFCURVE",
"115 687 OFFCURVE",
"188 687 CURVE SMOOTH",
"261 687 OFFCURVE",
"311 631 OFFCURVE",
"311 550 CURVE SMOOTH",
"311 150 LINE SMOOTH",
"311 69 OFFCURVE",
"261 13 OFFCURVE",
"188 13 CURVE SMOOTH"
);
},
{
closed = 1;
nodes = (
"274 -8 OFFCURVE",
"333 57 OFFCURVE",
"333 151 CURVE SMOOTH",
"333 549 LINE SMOOTH",
"333 643 OFFCURVE",
"274 708 OFFCURVE",
"188 708 CURVE SMOOTH",
"102 708 OFFCURVE",
"42 643 OFFCURVE",
"42 549 CURVE SMOOTH",
"42 151 LINE SMOOTH",
"42 57 OFFCURVE",
"102 -8 OFFCURVE",
"188 -8 CURVE SMOOTH"
);
}
);
width = 388;
}
);
leftKerningGroup = C;
unicode = 0051;
},
{
glyphname = R;
lastChange = "2017-02-24 09:01:06 +0000";
layers = (
{
layerId = "262880E7-CFE1-4BDA-902E-E24798F3240A";
paths = (
{
closed = 1;
nodes = (
"102 0 LINE",
"102 681 LINE",
"286 681 LINE SMOOTH",
"376 681 OFFCURVE",
"437 617 OFFCURVE",
"437 522 CURVE SMOOTH",
"437 429 OFFCURVE",
"376 365 OFFCURVE",
"286 365 CURVE SMOOTH",
"97 365 LINE",
"97 344 LINE",
"284 344 LINE SMOOTH",
"389 344 OFFCURVE",
"459 415 OFFCURVE",
"459 522 CURVE SMOOTH",
"459 629 OFFCURVE",
"389 702 OFFCURVE",
"284 702 CURVE SMOOTH",
"80 702 LINE",
"80 0 LINE"
);
},
{
closed = 1;
nodes = (
"472 0 LINE",
"283 355 LINE",
"265 347 LINE",
"450 0 LINE"
);
}
);
width = 532;
},
{
layerId = "4E2227F3-52E4-4048-A8EE-327B486EF0A4";
paths = (
{
closed = 1;
nodes = (
"204 0 LINE",
"204 539 LINE",
"223 539 LINE SMOOTH",
"252 539 OFFCURVE",
"273 518 OFFCURVE",
"273 475 CURVE SMOOTH",
"273 434 OFFCURVE",
"252 412 OFFCURVE",
"223 412 CURVE SMOOTH",
"188 412 LINE",
"188 269 LINE",
"266 269 LINE SMOOTH",
"382 269 OFFCURVE",
"461 352 OFFCURVE",
"461 477 CURVE SMOOTH",
"461 608 OFFCURVE",
"378 700 OFFCURVE",
"256 700 CURVE SMOOTH",
"16 700 LINE",
"16 0 LINE"
);
},
{
closed = 1;
nodes = (
"470 0 LINE",
"371 349 LINE",
"192 349 LINE",
"276 0 LINE"
);
}
);
width = 482;
},
{
layerId = "FFFA8D72-12AC-4CE0-B2CA-57A29829F4DA";
paths = (
{
closed = 1;
nodes = (
"204 0 LINE",
"204 539 LINE",
"273 539 LINE SMOOTH",
"316 539 OFFCURVE",
"345 513 OFFCURVE",
"345 475 CURVE SMOOTH",
"345 437 OFFCURVE",
"316 412 OFFCURVE",
"273 412 CURVE SMOOTH",
"187 412 LINE",
"187 269 LINE",
"304 269 LINE SMOOTH",
"441 269 OFFCURVE",
"532 352 OFFCURVE",
"532 477 CURVE SMOOTH",
"532 611 OFFCURVE",
"441 700 OFFCURVE",
"304 700 CURVE SMOOTH",
"16 700 LINE",
"16 0 LINE"
);
},
{
closed = 1;
nodes = (
"544 0 LINE",
"407 349 LINE",
"229 349 LINE",
"351 0 LINE"
);
}
);
width = 556;
},
{
layerId = "DCBE1F7B-116A-43E0-B7B4-8657BA77D8B5";
paths = (
{
closed = 1;
nodes = (
"78 0 LINE",
"78 681 LINE",
"204 681 LINE SMOOTH",
"278 681 OFFCURVE",
"327 617 OFFCURVE",
"327 522 CURVE SMOOTH",
"327 428 OFFCURVE",
"278 365 OFFCURVE",
"204 365 CURVE SMOOTH",
"74 365 LINE",
"74 344 LINE",
"204 344 LINE SMOOTH",
"291 344 OFFCURVE",
"349 415 OFFCURVE",
"349 522 CURVE SMOOTH",
"349 630 OFFCURVE",
"291 702 OFFCURVE",
"204 702 CURVE SMOOTH",
"56 702 LINE",
"56 0 LINE"
);
},
{
closed = 1;
nodes = (
"354 0 LINE",
"211 353 LINE",
"192 345 LINE",
"332 0 LINE"
);
}
);
width = 396;
}
);
rightKerningGroup = R;
unicode = 0052;
},
{
color = 3;
glyphname = S;
lastChange = "2017-02-24 09:28:20 +0000";
layers = (
{
anchors = (
{
name = top;
position = "{242, 708}";
}
);
layerId = "262880E7-CFE1-4BDA-902E-E24798F3240A";
paths = (
{
closed = 1;
nodes = (
"368 -8 OFFCURVE",
"448 61 OFFCURVE",
"448 161 CURVE SMOOTH",
"448 257 OFFCURVE",
"374 303 OFFCURVE",
"255 370 CURVE SMOOTH",
"145 432 OFFCURVE",
"72 456 OFFCURVE",
"72 549 CURVE SMOOTH",
"72 639 OFFCURVE",
"144 687 OFFCURVE",
"243 687 CURVE SMOOTH",
"351 687 OFFCURVE",
"419 625 OFFCURVE",
"419 533 CURVE SMOOTH",
"419 500 LINE",
"441 500 LINE",
"441 535 LINE SMOOTH",
"441 639 OFFCURVE",
"365 708 OFFCURVE",
"242 708 CURVE SMOOTH",
"131 708 OFFCURVE",
"50 652 OFFCURVE",
"50 549 CURVE SMOOTH",
"50 449 OFFCURVE",
"125 416 OFFCURVE",
"240 352 CURVE SMOOTH",
"380 275 OFFCURVE",
"426 237 OFFCURVE",
"426 165 CURVE SMOOTH",
"426 72 OFFCURVE",
"353 13 OFFCURVE",
"247 13 CURVE SMOOTH",
"140 13 OFFCURVE",
"71 74 OFFCURVE",
"71 166 CURVE SMOOTH",
"71 210 LINE",
"51 210 LINE",
"51 164 LINE SMOOTH",
"51 60 OFFCURVE",
"129 -8 OFFCURVE",
"248 -8 CURVE SMOOTH"
);
}
);
width = 498;
},
{
anchors = (
{
name = top;
position = "{223, 708}";
}
);
layerId = "4E2227F3-52E4-4048-A8EE-327B486EF0A4";
paths = (
{
closed = 1;
nodes = (
"354 -8 OFFCURVE",
"441 70 OFFCURVE",
"441 187 CURVE SMOOTH",
"441 287 OFFCURVE",
"380 338 OFFCURVE",
"275 412 CURVE SMOOTH",
"212 457 OFFCURVE",
"195 470 OFFCURVE",
"195 500 CURVE SMOOTH",
"195 524 OFFCURVE",
"206 538 OFFCURVE",
"223 538 CURVE SMOOTH",
"240 538 OFFCURVE",
"252 524 OFFCURVE",
"252 504 CURVE SMOOTH",
"252 472 LINE",
"437 472 LINE",
"437 509 LINE SMOOTH",
"437 628 OFFCURVE",
"352 708 OFFCURVE",
"223 708 CURVE SMOOTH",
"95 708 OFFCURVE",
"10 628 OFFCURVE",
"10 510 CURVE SMOOTH",
"10 387 OFFCURVE",
"101 322 OFFCURVE",
"173 272 CURVE SMOOTH",
"243 224 OFFCURVE",
"256 215 OFFCURVE",
"256 194 CURVE SMOOTH",
"256 175 OFFCURVE",
"244 162 OFFCURVE",
"228 162 CURVE SMOOTH",
"212 162 OFFCURVE",
"200 176 OFFCURVE",
"200 198 CURVE SMOOTH",
"200 229 LINE",
"14 229 LINE",
"14 180 LINE SMOOTH",
"14 70 OFFCURVE",
"98 -8 OFFCURVE",
"227 -8 CURVE SMOOTH"
);
}
);
width = 451;
},
{
anchors = (
{
name = top;
position = "{251, 708}";
}
);
layerId = "FFFA8D72-12AC-4CE0-B2CA-57A29829F4DA";
paths = (
{
closed = 1;
nodes = (
"400 -8 OFFCURVE",
"498 67 OFFCURVE",
"498 200 CURVE SMOOTH",
"498 297 OFFCURVE",
"445 357 OFFCURVE",
"332 410 CURVE SMOOTH",
"242 452 OFFCURVE",
"195 455 OFFCURVE",
"195 497 CURVE SMOOTH",
"195 523 OFFCURVE",
"214 538 OFFCURVE",
"246 538 CURVE SMOOTH",
"284 538 OFFCURVE",
"309 518 OFFCURVE",
"309 488 CURVE SMOOTH",
"309 462 LINE",
"494 462 LINE",
"494 509 LINE SMOOTH",
"494 628 OFFCURVE",
"396 708 OFFCURVE",
"252 708 CURVE SMOOTH",
"107 708 OFFCURVE",
"10 626 OFFCURVE",
"10 493 CURVE SMOOTH",
"10 382 OFFCURVE",
"78 342 OFFCURVE",
"173 300 CURVE SMOOTH",
"277 254 OFFCURVE",
"313 237 OFFCURVE",
"313 203 CURVE SMOOTH",
"313 175 OFFCURVE",
"289 162 OFFCURVE",
"260 162 CURVE SMOOTH",
"220 162 OFFCURVE",
"200 186 OFFCURVE",
"200 214 CURVE SMOOTH",
"200 234 LINE",
"11 234 LINE",
"14 180 LINE SMOOTH",
"20 67 OFFCURVE",
"109 -8 OFFCURVE",
"255 -8 CURVE SMOOTH"
);
}
);
width = 508;
},
{
anchors = (
{
name = top;
position = "{176, 708}";
}
);
layerId = "DCBE1F7B-116A-43E0-B7B4-8657BA77D8B5";
paths = (
{
closed = 1;
nodes = (
"268 -8 OFFCURVE",
"330 60 OFFCURVE",
"330 165 CURVE SMOOTH",
"330 256 OFFCURVE",
"283 295 OFFCURVE",
"185 368 CURVE SMOOTH",
"100 431 OFFCURVE",
"57 465 OFFCURVE",
"57 547 CURVE SMOOTH",
"57 638 OFFCURVE",
"109 688 OFFCURVE",
"176 688 CURVE SMOOTH",
"251 688 OFFCURVE",
"302 627 OFFCURVE",
"302 534 CURVE SMOOTH",
"302 500 LINE",
"324 500 LINE",
"324 535 LINE SMOOTH",
"324 639 OFFCURVE",
"265 708 OFFCURVE",
"176 708 CURVE SMOOTH",
"96 708 OFFCURVE",
"35 652 OFFCURVE",
"35 551 CURVE SMOOTH",
"35 455 OFFCURVE",
"91 410 OFFCURVE",
"173 348 CURVE SMOOTH",
"251 289 OFFCURVE",
"308 254 OFFCURVE",
"308 162 CURVE SMOOTH",
"308 72 OFFCURVE",
"253 12 OFFCURVE",
"181 12 CURVE SMOOTH",
"108 12 OFFCURVE",
"56 72 OFFCURVE",
"56 165 CURVE SMOOTH",
"56 192 LINE",
"35 192 LINE",
"35 164 LINE SMOOTH",
"35 60 OFFCURVE",
"96 -8 OFFCURVE",
"182 -8 CURVE SMOOTH"
);
}
);
width = 365;
}
);
leftKerningGroup = S;
rightKerningGroup = S;
unicode = 0053;
},
{
glyphname = T;
lastChange = "2017-02-24 09:01:06 +0000";
layers = (
{
layerId = "262880E7-CFE1-4BDA-902E-E24798F3240A";
paths = (
{
closed = 1;
nodes = (
"247 0 LINE",
"247 689 LINE",
"225 689 LINE",
"225 0 LINE"
);
},
{
closed = 1;
nodes = (
"442 679 LINE",
"442 700 LINE",
"40 700 LINE",
"40 679 LINE"
);
}
);
width = 462;
},
{
layerId = "4E2227F3-52E4-4048-A8EE-327B486EF0A4";
paths = (
{
closed = 1;
nodes = (
"332 0 LINE",
"332 689 LINE",
"144 689 LINE",
"144 0 LINE"
);
},
{
closed = 1;
nodes = (
"471 530 LINE",
"471 700 LINE",
"8 700 LINE",
"8 530 LINE"
);
}
);
width = 475;
},
{
layerId = "FFFA8D72-12AC-4CE0-B2CA-57A29829F4DA";
paths = (
{
closed = 1;
nodes = (
"369 0 LINE",
"369 689 LINE",
"181 689 LINE",
"181 0 LINE"
);
},
{
closed = 1;
nodes = (
"547 530 LINE",
"547 700 LINE",
"8 700 LINE",
"8 530 LINE"
);
}
);
width = 551;
},
{
layerId = "DCBE1F7B-116A-43E0-B7B4-8657BA77D8B5";
paths = (
{
closed = 1;
nodes = (
"190 0 LINE",
"190 689 LINE",
"168 689 LINE",
"168 0 LINE"
);
},
{
closed = 1;
nodes = (
"339 679 LINE",
"339 700 LINE",
"28 700 LINE",
"28 679 LINE"
);
}
);
width = 353;
}
);
leftKerningGroup = T;
rightKerningGroup = T;
unicode = 0054;
},
{
glyphname = U;
lastChange = "2017-02-24 09:29:10 +0000";
layers = (
{
anchors = (
{
name = top;
position = "{268, 712}";
}
);
layerId = "262880E7-CFE1-4BDA-902E-E24798F3240A";
paths = (
{
closed = 1;
nodes = (
"387 -8 OFFCURVE",
"467 69 OFFCURVE",
"467 185 CURVE SMOOTH",
"467 700 LINE",
"445 700 LINE",
"445 182 LINE SMOOTH",
"445 81 OFFCURVE",
"374 13 OFFCURVE",
"268 13 CURVE SMOOTH",
"162 13 OFFCURVE",
"92 81 OFFCURVE",
"92 182 CURVE SMOOTH",
"92 700 LINE",
"70 700 LINE",
"70 185 LINE SMOOTH",
"70 69 OFFCURVE",
"149 -8 OFFCURVE",
"268 -8 CURVE SMOOTH"
);
}
);
width = 537;
},
{
anchors = (
{
name = top;
position = "{231, 713}";
}
);
layerId = "4E2227F3-52E4-4048-A8EE-327B486EF0A4";
paths = (
{
closed = 1;
nodes = (
"361 -8 OFFCURVE",
"447 78 OFFCURVE",
"447 208 CURVE SMOOTH",
"447 700 LINE",
"259 700 LINE",
"259 190 LINE SMOOTH",
"259 168 OFFCURVE",
"248 153 OFFCURVE",
"231 153 CURVE SMOOTH",
"213 153 OFFCURVE",
"202 168 OFFCURVE",
"202 190 CURVE SMOOTH",
"202 700 LINE",
"14 700 LINE",
"14 208 LINE SMOOTH",
"14 78 OFFCURVE",
"100 -8 OFFCURVE",
"231 -8 CURVE SMOOTH"
);
}
);
width = 461;
},
{
anchors = (
{
name = top;
position = "{268, 713}";
}
);
layerId = "FFFA8D72-12AC-4CE0-B2CA-57A29829F4DA";
paths = (
{
closed = 1;
nodes = (
"420 -8 OFFCURVE",
"522 81 OFFCURVE",
"522 223 CURVE SMOOTH",
"522 700 LINE",
"334 700 LINE",
"334 223 LINE SMOOTH",
"334 183 OFFCURVE",
"308 153 OFFCURVE",
"268 153 CURVE SMOOTH",
"228 153 OFFCURVE",
"201 183 OFFCURVE",
"201 223 CURVE SMOOTH",
"201 700 LINE",
"13 700 LINE",
"13 223 LINE SMOOTH",
"13 81 OFFCURVE",
"115 -8 OFFCURVE",
"268 -8 CURVE SMOOTH"
);
}
);
width = 535;
},
{
anchors = (
{
name = top;
position = "{201, 710}";
}
);
layerId = "DCBE1F7B-116A-43E0-B7B4-8657BA77D8B5";
paths = (
{
closed = 1;
nodes = (
"293 -8 OFFCURVE",
"355 65 OFFCURVE",
"355 175 CURVE SMOOTH",
"355 700 LINE",
"333 700 LINE",
"333 172 LINE SMOOTH",
"333 77 OFFCURVE",
"280 13 OFFCURVE",
"201 13 CURVE SMOOTH",
"123 13 OFFCURVE",
"71 77 OFFCURVE",
"71 172 CURVE SMOOTH",
"71 700 LINE",
"49 700 LINE",
"49 175 LINE SMOOTH",
"49 65 OFFCURVE",
"110 -8 OFFCURVE",
"201 -8 CURVE SMOOTH"
);
}
);
width = 404;
}
);
rightKerningGroup = U;
unicode = 0055;
},
{
glyphname = V;
lastChange = "2017-02-24 09:01:06 +0000";
layers = (
{
layerId = "262880E7-CFE1-4BDA-902E-E24798F3240A";
paths = (
{
closed = 1;
nodes = (
"261 0 LINE",
"471 700 LINE",
"449 700 LINE",
"250 42 LINE",
"52 700 LINE",
"30 700 LINE",
"239 0 LINE"
);
}
);
width = 501;
},
{
layerId = "4E2227F3-52E4-4048-A8EE-327B486EF0A4";
paths = (
{
closed = 1;
nodes = (
"355 0 LINE",
"503 700 LINE",
"305 700 LINE",
"259 305 LINE",
"209 700 LINE",
"6 700 LINE",
"152 0 LINE"
);
}
);
width = 509;
},
{
layerId = "FFFA8D72-12AC-4CE0-B2CA-57A29829F4DA";
paths = (
{
closed = 1;
nodes = (
"367 0 LINE",
"547 700 LINE",
"359 700 LINE",
"280 250 LINE",
"198 700 LINE",
"6 700 LINE",
"184 0 LINE"
);
}
);
width = 553;
},
{
layerId = "DCBE1F7B-116A-43E0-B7B4-8657BA77D8B5";
paths = (
{
closed = 1;
nodes = (
"193 0 LINE",
"342 700 LINE",
"320 700 LINE",
"182 42 LINE",
"44 700 LINE",
"21 700 LINE",
"171 0 LINE"
);
}
);
width = 363;
}
);
leftKerningGroup = V;
rightKerningGroup = V;
unicode = 0056;
},
{
glyphname = W;
lastChange = "2017-02-24 09:01:06 +0000";
layers = (
{
layerId = "262880E7-CFE1-4BDA-902E-E24798F3240A";
paths = (
{
closed = 1;
nodes = (
"211 0 LINE",
"365 656 LINE",
"519 0 LINE",
"541 0 LINE",
"702 700 LINE",
"680 700 LINE",
"531 40 LINE",
"375 700 LINE",
"353 700 LINE",
"201 40 LINE",
"52 700 LINE",
"30 700 LINE",
"189 0 LINE"
);
}
);
width = 732;
},
{
layerId = "4E2227F3-52E4-4048-A8EE-327B486EF0A4";
paths = (
{
closed = 1;
nodes = (
"313 0 LINE",
"352 362 LINE",
"400 0 LINE",
"564 0 LINE",
"698 700 LINE",
"504 700 LINE",
"483 352 LINE",
"432 700 LINE",
"266 700 LINE",
"231 352 LINE",
"204 700 LINE",
"6 700 LINE",
"148 0 LINE"
);
}
);
width = 704;
},
{
layerId = "FFFA8D72-12AC-4CE0-B2CA-57A29829F4DA";
paths = (
{
closed = 1;
nodes = (
"334 0 LINE",
"394 372 LINE",
"461 0 LINE",
"649 0 LINE",
"779 700 LINE",
"591 700 LINE",
"546 348 LINE",
"493 700 LINE",
"302 700 LINE",
"253 348 LINE",
"204 700 LINE",
"6 700 LINE",
"156 0 LINE"
);
}
);
width = 785;
},
{
layerId = "DCBE1F7B-116A-43E0-B7B4-8657BA77D8B5";
paths = (
{
closed = 1;
nodes = (
"176 0 LINE",
"280 656 LINE",
"383 0 LINE",
"406 0 LINE",
"532 700 LINE",
"508 700 LINE",
"396 40 LINE",
"291 700 LINE",
"268 700 LINE",
"166 40 LINE",
"44 700 LINE",
"21 700 LINE",
"154 0 LINE"
);
}
);
width = 553;
}
);
leftKerningGroup = V;
rightKerningGroup = V;
unicode = 0057;
},
{
glyphname = X;
lastChange = "2017-02-24 09:01:06 +0000";
layers = (
{
layerId = "262880E7-CFE1-4BDA-902E-E24798F3240A";
paths = (
{
closed = 1;
nodes = (
"55 0 LINE",
"238 330 LINE",
"420 0 LINE",
"445 0 LINE",
"248 349 LINE",
"445 700 LINE",
"420 700 LINE",
"238 369 LINE",
"55 700 LINE",
"30 700 LINE",
"227 350 LINE",
"30 0 LINE"
);
}
);
width = 475;
},
{
layerId = "4E2227F3-52E4-4048-A8EE-327B486EF0A4";
paths = (
{
closed = 1;
nodes = (
"197 0 LINE",
"246 162 LINE",
"295 0 LINE",
"485 0 LINE",
"345 350 LINE",
"485 700 LINE",
"294 700 LINE",
"246 537 LINE",
"198 700 LINE",
"6 700 LINE",
"146 350 LINE",
"6 0 LINE"
);
}
);
width = 491;
},
{
layerId = "FFFA8D72-12AC-4CE0-B2CA-57A29829F4DA";
paths = (
{
closed = 1;
nodes = (
"210 0 LINE",
"298 196 LINE",
"386 0 LINE",
"589 0 LINE",
"410 350 LINE",
"589 700 LINE",
"385 700 LINE",
"298 503 LINE",
"211 700 LINE",
"6 700 LINE",
"186 350 LINE",
"6 0 LINE"
);
}
);
width = 595;
},
{
layerId = "DCBE1F7B-116A-43E0-B7B4-8657BA77D8B5";
paths = (
{
closed = 1;
nodes = (
"46 0 LINE",
"182 330 LINE",
"317 0 LINE",
"342 0 LINE",
"192 349 LINE",
"342 700 LINE",
"317 700 LINE",
"182 369 LINE",
"46 700 LINE",
"21 700 LINE",
"170 350 LINE",
"21 0 LINE"
);
}
);
width = 363;
}
);
rightKerningGroup = X;
unicode = 0058;
},
{
glyphname = Y;
lastChange = "2017-02-24 09:01:06 +0000";
layers = (
{
anchors = (
{
name = top;
position = "{234, 699}";
}
);
layerId = "262880E7-CFE1-4BDA-902E-E24798F3240A";
paths = (
{
closed = 1;
nodes = (
"245 0 LINE",
"245 339 LINE",
"438 700 LINE",
"416 700 LINE",
"234 358 LINE",
"52 700 LINE",
"30 700 LINE",
"223 339 LINE",
"223 0 LINE"
);
}
);
width = 468;
},
{
anchors = (
{
name = top;
position = "{248, 699}";
}
);
layerId = "4E2227F3-52E4-4048-A8EE-327B486EF0A4";
paths = (
{
closed = 1;
nodes = (
"341 2 LINE",
"341 251 LINE",
"490 700 LINE",
"292 700 LINE",
"248 471 LINE",
"204 700 LINE",
"6 700 LINE",
"153 251 LINE",
"153 2 LINE"
);
}
);
width = 496;
},
{
anchors = (
{
name = top;
position = "{293, 700}";
}
);
layerId = "FFFA8D72-12AC-4CE0-B2CA-57A29829F4DA";
paths = (
{
closed = 1;
nodes = (
"386 2 LINE",
"386 251 LINE",
"581 700 LINE",
"376 700 LINE",
"293 461 LINE",
"210 700 LINE",
"6 700 LINE",
"199 251 LINE",
"199 2 LINE"
);
}
);
width = 587;
},
{
anchors = (
{
name = top;
position = "{174, 700}";
}
);
layerId = "DCBE1F7B-116A-43E0-B7B4-8657BA77D8B5";
paths = (
{
closed = 1;
nodes = (
"185 0 LINE",
"185 339 LINE",
"326 700 LINE",
"303 700 LINE",
"174 358 LINE",
"44 700 LINE",
"21 700 LINE",
"163 339 LINE",
"163 0 LINE"
);
}
);
width = 347;
}
);
leftKerningGroup = Y;
unicode = 0059;
},
{
glyphname = Z;
lastChange = "2017-02-24 09:01:06 +0000";
layers = (
{
anchors = (
{
name = top;
position = "{203, 713}";
}
);
layerId = "262880E7-CFE1-4BDA-902E-E24798F3240A";
paths = (
{
closed = 1;
nodes = (
"409 0 LINE",
"409 21 LINE",
"55 21 LINE",
"409 679 LINE",
"409 700 LINE",
"30 700 LINE",
"30 679 LINE",
"385 679 LINE",
"30 21 LINE",
"30 0 LINE"
);
}
);
width = 449;
},
{
anchors = (
{
name = top;
position = "{199, 713}";
}
);
layerId = "4E2227F3-52E4-4048-A8EE-327B486EF0A4";
paths = (
{
closed = 1;
nodes = (
"404 0 LINE",
"404 170 LINE",
"202 170 LINE",
"404 530 LINE",
"404 700 LINE",
"6 700 LINE",
"6 530 LINE",
"206 530 LINE",
"6 170 LINE",
"6 0 LINE"
);
}
);
width = 412;
},
{
anchors = (
{
name = top;
position = "{241, 713}";
}
);
layerId = "FFFA8D72-12AC-4CE0-B2CA-57A29829F4DA";
paths = (
{
closed = 1;
nodes = (
"477 0 LINE",
"477 170 LINE",
"202 170 LINE",
"477 530 LINE",
"477 700 LINE",
"6 700 LINE",
"6 530 LINE",
"279 530 LINE",
"6 170 LINE",
"6 0 LINE"
);
}
);
width = 485;
},
{
anchors = (
{
name = top;
position = "{160, 713}";
}
);
layerId = "DCBE1F7B-116A-43E0-B7B4-8657BA77D8B5";
paths = (
{
closed = 1;
nodes = (
"313 0 LINE",
"313 21 LINE",
"46 21 LINE",
"313 679 LINE",
"313 700 LINE",
"21 700 LINE",
"21 679 LINE",
"289 679 LINE",
"21 21 LINE",
"21 0 LINE"
);
}
);
width = 341;
}
);
leftKerningGroup = Z;
rightKerningGroup = Z;
unicode = 005A;
},
{
glyphname = a;
lastChange = "2017-02-24 09:35:13 +0000";
layers = (
{
anchors = (
{
name = top;
position = "{244, 508}";
}
);
layerId = "262880E7-CFE1-4BDA-902E-E24798F3240A";
paths = (
{
closed = 1;
nodes = (
"403 0 LINE",
"403 342 LINE SMOOTH",
"403 442 OFFCURVE",
"335 508 OFFCURVE",
"234 508 CURVE SMOOTH",
"137 508 OFFCURVE",
"70 454 OFFCURVE",
"70 372 CURVE SMOOTH",
"70 371 LINE",
"92 371 LINE",
"92 375 LINE SMOOTH",
"92 442 OFFCURVE",
"150 487 OFFCURVE",
"234 487 CURVE SMOOTH",
"322 487 OFFCURVE",
"381 430 OFFCURVE",
"381 345 CURVE SMOOTH",
"381 0 LINE"
);
},
{
closed = 1;
nodes = (
"307 -8 OFFCURVE",
"398 37 OFFCURVE",
"398 142 CURVE",
"398 277 LINE",
"251 277 LINE",
"120 277 OFFCURVE",
"53 226 OFFCURVE",
"53 125 CURVE SMOOTH",
"53 18 OFFCURVE",
"139 -8 OFFCURVE",
"205 -8 CURVE SMOOTH"
);
},
{
closed = 1;
nodes = (
"137 13 OFFCURVE",
"75 45 OFFCURVE",
"75 126 CURVE SMOOTH",
"75 213 OFFCURVE",
"139 256 OFFCURVE",
"251 256 CURVE",
"381 256 LINE",
"381 142 LINE SMOOTH",
"381 52 OFFCURVE",
"295 13 OFFCURVE",
"207 13 CURVE SMOOTH"
);
}
);
width = 483;
},
{
anchors = (
{
name = top;
position = "{230, 528}";
}
);
layerId = "4E2227F3-52E4-4048-A8EE-327B486EF0A4";
paths = (
{
closed = 1;
nodes = (
"447 0 LINE",
"447 360 LINE SMOOTH",
"447 461 OFFCURVE",
"360 528 OFFCURVE",
"230 528 CURVE SMOOTH",
"103 528 OFFCURVE",
"15 450 OFFCURVE",
"15 360 CURVE SMOOTH",
"15 339 LINE",
"204 332 LINE",
"204 337 LINE SMOOTH",
"204 355 OFFCURVE",
"215 367 OFFCURVE",
"230 367 CURVE SMOOTH",
"247 367 OFFCURVE",
"259 355 OFFCURVE",
"259 337 CURVE SMOOTH",
"259 0 LINE"
);
},
{
closed = 1;
nodes = (
"262 -7 OFFCURVE",
"298 59 OFFCURVE",
"298 197 CURVE",
"298 313 LINE",
"219 313 LINE",
"93 313 OFFCURVE",
"10 297 OFFCURVE",
"10 151 CURVE SMOOTH",
"10 7 OFFCURVE",
"88 -9 OFFCURVE",
"157 -8 CURVE SMOOTH"
);
},
{
closed = 1;
nodes = (
"214 125 OFFCURVE",
"202 134 OFFCURVE",
"202 153 CURVE SMOOTH",
"202 170 OFFCURVE",
"214 185 OFFCURVE",
"233 185 CURVE",
"259 185 LINE",
"259 152 LINE SMOOTH",
"259 135 OFFCURVE",
"241 125 OFFCURVE",
"227 125 CURVE SMOOTH"
);
}
);
width = 463;
},
{
anchors = (
{
name = top;
position = "{252, 517}";
}
);
associatedMasterId = "4E2227F3-52E4-4048-A8EE-327B486EF0A4";
layerId = "ECDB5D87-04FB-4DD9-B431-22FBE4ECF321";
name = "{100,5}";
paths = (
{
closed = 1;
nodes = (
"452 0 LINE",
"452 348 LINE SMOOTH",
"452 446 OFFCURVE",
"366 517 OFFCURVE",
"245 517 CURVE SMOOTH",
"131 517 OFFCURVE",
"47 453 OFFCURVE",
"47 364 CURVE SMOOTH",
"47 352 LINE",
"146 352 LINE",
"146 354 LINE SMOOTH",
"146 400 OFFCURVE",
"189 431 OFFCURVE",
"247 431 CURVE SMOOTH",
"312 431 OFFCURVE",
"353 392 OFFCURVE",
"353 333 CURVE SMOOTH",
"353 0 LINE"
);
},
{
closed = 1;
nodes = (
"318 -8 OFFCURVE",
"380 44 OFFCURVE",
"380 161 CURVE",
"380 300 LINE",
"238 300 LINE",
"112 300 OFFCURVE",
"35 240 OFFCURVE",
"35 141 CURVE SMOOTH",
"35 49 OFFCURVE",
"101 -8 OFFCURVE",
"209 -8 CURVE SMOOTH"
);
},
{
closed = 1;
nodes = (
"170 81 OFFCURVE",
"135 104 OFFCURVE",
"135 141 CURVE SMOOTH",
"135 189 OFFCURVE",
"182 218 OFFCURVE",
"258 218 CURVE",
"353 218 LINE",
"353 200 LINE SMOOTH",
"353 122 OFFCURVE",
"293 81 OFFCURVE",
"226 81 CURVE SMOOTH"
);
}
);
width = 507;
},
{
anchors = (
{
name = top;
position = "{253, 528}";
}
);
layerId = "FFFA8D72-12AC-4CE0-B2CA-57A29829F4DA";
paths = (
{
closed = 1;
nodes = (
"501 0 LINE",
"501 355 LINE SMOOTH",
"501 451 OFFCURVE",
"392 528 OFFCURVE",
"253 528 CURVE SMOOTH",
"113 528 OFFCURVE",
"12 451 OFFCURVE",
"12 355 CURVE SMOOTH",
"12 331 LINE",
"200 331 LINE",
"200 331 LINE SMOOTH",
"200 351 OFFCURVE",
"223 367 OFFCURVE",
"256 367 CURVE SMOOTH",
"291 367 OFFCURVE",
"313 348 OFFCURVE",
"313 320 CURVE SMOOTH",
"313 0 LINE"
);
},
{
closed = 1;
nodes = (
"302 -8 OFFCURVE",
"352 53 OFFCURVE",
"352 182 CURVE",
"352 305 LINE",
"215 305 LINE",
"77 305 OFFCURVE",
"6 251 OFFCURVE",
"6 145 CURVE SMOOTH",
"6 44 OFFCURVE",
"67 -8 OFFCURVE",
"185 -8 CURVE SMOOTH"
);
},
{
closed = 1;
nodes = (
"210 115 OFFCURVE",
"195 127 OFFCURVE",
"195 149 CURVE SMOOTH",
"195 180 OFFCURVE",
"216 196 OFFCURVE",
"258 196 CURVE",
"313 196 LINE",
"313 180 LINE SMOOTH",
"313 138 OFFCURVE",
"283 115 OFFCURVE",
"239 115 CURVE SMOOTH"
);
}
);
width = 517;
},
{
anchors = (
{
name = top;
position = "{181, 508}";
}
);
layerId = "DCBE1F7B-116A-43E0-B7B4-8657BA77D8B5";
paths = (
{
closed = 1;
nodes = (
"310 0 LINE",
"310 342 LINE SMOOTH",
"310 442 OFFCURVE",
"261 508 OFFCURVE",
"175 508 CURVE SMOOTH",
"100 508 OFFCURVE",
"42 458 OFFCURVE",
"42 382 CURVE SMOOTH",
"42 381 LINE",
"65 381 LINE",
"65 385 LINE SMOOTH",
"65 446 OFFCURVE",
"113 487 OFFCURVE",
"174 487 CURVE SMOOTH",
"246 487 OFFCURVE",
"287 430 OFFCURVE",
"287 345 CURVE SMOOTH",
"287 0 LINE"
);
},
{
closed = 1;
nodes = (
"233 -8 OFFCURVE",
"302 37 OFFCURVE",
"302 142 CURVE",
"302 290 LINE",
"190 283 LINE SMOOTH",
"101 277 OFFCURVE",
"36 236 OFFCURVE",
"36 126 CURVE SMOOTH",
"36 18 OFFCURVE",
"100 -8 OFFCURVE",
"157 -8 CURVE SMOOTH"
);
},
{
closed = 1;
nodes = (
"103 13 OFFCURVE",
"58 45 OFFCURVE",
"58 127 CURVE SMOOTH",
"58 219 OFFCURVE",
"114 256 OFFCURVE",
"192 262 CURVE SMOOTH",
"287 269 LINE",
"287 142 LINE SMOOTH",
"287 52 OFFCURVE",
"223 13 OFFCURVE",
"160 13 CURVE SMOOTH"
);
}
);
width = 366;
},
{
anchors = (
{
name = top;
position = "{201, 517}";
}
);
associatedMasterId = "4E2227F3-52E4-4048-A8EE-327B486EF0A4";
layerId = "FAF4597E-2DB2-4F36-AC5C-F274557DEF62";
name = "{100,3}";
paths = (
{
closed = 1;
nodes = (
"367 0 LINE",
"367 350 LINE SMOOTH",
"367 450 OFFCURVE",
"299 517 OFFCURVE",
"198 517 CURVE SMOOTH",
"95 517 OFFCURVE",
"26 457 OFFCURVE",
"26 366 CURVE SMOOTH",
"26 355 LINE",
"126 352 LINE",
"126 357 LINE SMOOTH",
"126 401 OFFCURVE",
"154 431 OFFCURVE",
"197 431 CURVE SMOOTH",
"239 431 OFFCURVE",
"267 395 OFFCURVE",
"267 341 CURVE SMOOTH",
"267 0 LINE"
);
},
{
closed = 1;
nodes = (
"250 -8 OFFCURVE",
"303 45 OFFCURVE",
"303 178 CURVE",
"303 294 LINE",
"196 294 LINE",
"83 294 OFFCURVE",
"17 237 OFFCURVE",
"17 141 CURVE SMOOTH",
"17 47 OFFCURVE",
"68 -8 OFFCURVE",
"156 -8 CURVE SMOOTH"
);
},
{
closed = 1;
nodes = (
"149 85 OFFCURVE",
"118 102 OFFCURVE",
"118 143 CURVE SMOOTH",
"118 187 OFFCURVE",
"150 213 OFFCURVE",
"204 213 CURVE",
"267 213 LINE",
"267 167 LINE SMOOTH",
"267 111 OFFCURVE",
"225 85 OFFCURVE",
"184 85 CURVE SMOOTH"
);
}
);
width = 400;
}
);
leftKerningGroup = a;
rightKerningGroup = b;
unicode = 0061;
},
{
glyphname = b;
lastChange = "2017-02-24 09:01:07 +0000";
layers = (
{
components = (
{
name = b.bowl;
transform = "{1, 0, 0, 1, 82, 0}";
}
);
layerId = "262880E7-CFE1-4BDA-902E-E24798F3240A";
paths = (
{
closed = 1;
nodes = (
"102 0 LINE",
"102 700 LINE",
"80 700 LINE",
"80 0 LINE"
);
}
);
width = 494;
},
{
components = (
{
name = b.bowl;
transform = "{1, 0, 0, 1, 170, 0}";
}
);
layerId = "4E2227F3-52E4-4048-A8EE-327B486EF0A4";
paths = (
{
closed = 1;
nodes = (
"204 0 LINE",
"204 700 LINE",
"16 700 LINE",
"16 0 LINE"
);
}
);
width = 451;
},
{
components = (
{
name = b.bowl;
transform = "{1, 0, 0, 1, 145, 0}";
}
);
layerId = "FFFA8D72-12AC-4CE0-B2CA-57A29829F4DA";
paths = (
{
closed = 1;
nodes = (
"204 0 LINE",
"204 700 LINE",
"16 700 LINE",
"16 0 LINE"
);
}
);
width = 519;
},
{
components = (
{
name = b.bowl;
transform = "{1, 0, 0, 1, 63, 0}";
}
);
layerId = "DCBE1F7B-116A-43E0-B7B4-8657BA77D8B5";
paths = (
{
closed = 1;
nodes = (
"78 0 LINE",
"78 700 LINE",
"56 700 LINE",
"56 0 LINE"
);
}
);
width = 372;
}
);
leftKerningGroup = b;
rightKerningGroup = n;
unicode = 0062;
},
{
glyphname = c;
lastChange = "2017-02-24 09:21:08 +0000";
layers = (
{
anchors = (
{
name = top;
position = "{224, 508}";
}
);
layerId = "262880E7-CFE1-4BDA-902E-E24798F3240A";
paths = (
{
closed = 1;
nodes = (
"312 -8 OFFCURVE",
"379 45 OFFCURVE",
"393 113 CURVE SMOOTH",
"395 124 OFFCURVE",
"396 129 OFFCURVE",
"397 137 CURVE",
"375 139 LINE",
"374 131 OFFCURVE",
"374 131 OFFCURVE",
"373 125 CURVE SMOOTH",
"361 64 OFFCURVE",
"304 13 OFFCURVE",
"224 13 CURVE SMOOTH",
"144 13 OFFCURVE",
"89 63 OFFCURVE",
"76 135 CURVE SMOOTH",
"72 156 OFFCURVE",
"72 193 OFFCURVE",
"72 250 CURVE SMOOTH",
"72 302 OFFCURVE",
"72 343 OFFCURVE",
"76 365 CURVE SMOOTH",
"89 436 OFFCURVE",
"144 487 OFFCURVE",
"224 487 CURVE SMOOTH",
"304 487 OFFCURVE",
"361 436 OFFCURVE",
"373 375 CURVE SMOOTH",
"374 369 OFFCURVE",
"375 361 OFFCURVE",
"376 352 CURVE",
"398 353 LINE",
"397 363 OFFCURVE",
"395 376 OFFCURVE",
"393 387 CURVE SMOOTH",
"379 455 OFFCURVE",
"312 508 OFFCURVE",
"224 508 CURVE SMOOTH",
"136 508 OFFCURVE",
"73 454 OFFCURVE",
"56 377 CURVE SMOOTH",
"49 345 OFFCURVE",
"50 310 OFFCURVE",
"50 251 CURVE SMOOTH",
"50 195 OFFCURVE",
"49 156 OFFCURVE",
"56 123 CURVE SMOOTH",
"73 46 OFFCURVE",
"136 -8 OFFCURVE",
"224 -8 CURVE SMOOTH"
);
}
);
width = 438;
},
{
anchors = (
{
name = top;
position = "{223, 532}";
}
);
layerId = "4E2227F3-52E4-4048-A8EE-327B486EF0A4";
paths = (
{
closed = 1;
nodes = (
"359 -8 OFFCURVE",
"435 57 OFFCURVE",
"435 170 CURVE SMOOTH",
"435 180 OFFCURVE",
"435 194 OFFCURVE",
"435 209 CURVE",
"247 214 LINE",
"246 184 OFFCURVE",
"245 171 OFFCURVE",
"241 163 CURVE SMOOTH",
"238 157 OFFCURVE",
"231 153 OFFCURVE",
"223 153 CURVE SMOOTH",
"215 153 OFFCURVE",
"207 157 OFFCURVE",
"204 163 CURVE SMOOTH",
"198 174 OFFCURVE",
"198 194 OFFCURVE",
"198 260 CURVE SMOOTH",
"198 332 OFFCURVE",
"197 348 OFFCURVE",
"204 360 CURVE SMOOTH",
"208 366 OFFCURVE",
"214 371 OFFCURVE",
"223 371 CURVE SMOOTH",
"231 371 OFFCURVE",
"238 366 OFFCURVE",
"241 360 CURVE SMOOTH",
"245 351 OFFCURVE",
"247 340 OFFCURVE",
"247 305 CURVE",
"435 311 LINE",
"435 326 OFFCURVE",
"435 340 OFFCURVE",
"435 350 CURVE SMOOTH",
"435 456 OFFCURVE",
"359 532 OFFCURVE",
"223 532 CURVE SMOOTH",
"87 532 OFFCURVE",
"10 456 OFFCURVE",
"10 350 CURVE SMOOTH",
"10 327 OFFCURVE",
"10 283 OFFCURVE",
"10 260 CURVE SMOOTH",
"10 237 OFFCURVE",
"10 193 OFFCURVE",
"10 170 CURVE SMOOTH",
"10 57 OFFCURVE",
"87 -8 OFFCURVE",
"223 -8 CURVE SMOOTH"
);
}
);
width = 443;
},
{
anchors = (
{
name = top;
position = "{260, 528}";
}
);
layerId = "FFFA8D72-12AC-4CE0-B2CA-57A29829F4DA";
paths = (
{
closed = 1;
nodes = (
"372 -8 OFFCURVE",
"454 49 OFFCURVE",
"490 144 CURVE SMOOTH",
"497 163 OFFCURVE",
"502 183 OFFCURVE",
"505 204 CURVE",
"319 219 LINE",
"317 206 OFFCURVE",
"314 195 OFFCURVE",
"310 185 CURVE SMOOTH",
"302 165 OFFCURVE",
"285 153 OFFCURVE",
"260 153 CURVE SMOOTH",
"235 153 OFFCURVE",
"219 165 OFFCURVE",
"210 185 CURVE SMOOTH",
"201 205 OFFCURVE",
"198 232 OFFCURVE",
"198 262 CURVE SMOOTH",
"198 298 OFFCURVE",
"200 316 OFFCURVE",
"210 336 CURVE SMOOTH",
"220 355 OFFCURVE",
"235 367 OFFCURVE",
"260 367 CURVE SMOOTH",
"285 367 OFFCURVE",
"300 355 OFFCURVE",
"310 336 CURVE SMOOTH",
"316 324 OFFCURVE",
"319 309 OFFCURVE",
"321 295 CURVE",
"507 315 LINE",
"503 338 OFFCURVE",
"498 360 OFFCURVE",
"490 381 CURVE SMOOTH",
"454 476 OFFCURVE",
"372 528 OFFCURVE",
"260 528 CURVE SMOOTH",
"148 528 OFFCURVE",
"66 476 OFFCURVE",
"30 381 CURVE SMOOTH",
"17 346 OFFCURVE",
"10 307 OFFCURVE",
"10 263 CURVE SMOOTH",
"10 219 OFFCURVE",
"17 179 OFFCURVE",
"30 144 CURVE SMOOTH",
"66 49 OFFCURVE",
"148 -8 OFFCURVE",
"260 -8 CURVE SMOOTH"
);
}
);
width = 515;
},
{
anchors = (
{
name = top;
position = "{169, 508}";
}
);
layerId = "DCBE1F7B-116A-43E0-B7B4-8657BA77D8B5";
paths = (
{
closed = 1;
nodes = (
"249 -8 OFFCURVE",
"304 52 OFFCURVE",
"304 135 CURVE SMOOTH",
"304 137 OFFCURVE",
"304 138 OFFCURVE",
"304 140 CURVE",
"282 141 LINE",
"282 139 OFFCURVE",
"282 137 OFFCURVE",
"282 135 CURVE SMOOTH",
"282 63 OFFCURVE",
"236 13 OFFCURVE",
"169 13 CURVE SMOOTH",
"103 13 OFFCURVE",
"57 63 OFFCURVE",
"57 135 CURVE SMOOTH",
"57 173 OFFCURVE",
"57 212 OFFCURVE",
"57 250 CURVE SMOOTH",
"57 288 OFFCURVE",
"57 327 OFFCURVE",
"57 365 CURVE SMOOTH",
"57 437 OFFCURVE",
"103 487 OFFCURVE",
"169 487 CURVE SMOOTH",
"236 487 OFFCURVE",
"282 437 OFFCURVE",
"282 365 CURVE SMOOTH",
"282 363 OFFCURVE",
"282 362 OFFCURVE",
"282 360 CURVE",
"304 361 LINE",
"304 362 OFFCURVE",
"304 364 OFFCURVE",
"304 365 CURVE SMOOTH",
"304 448 OFFCURVE",
"249 508 OFFCURVE",
"169 508 CURVE SMOOTH",
"90 508 OFFCURVE",
"35 448 OFFCURVE",
"35 365 CURVE SMOOTH",
"35 327 OFFCURVE",
"35 288 OFFCURVE",
"35 250 CURVE SMOOTH",
"35 212 OFFCURVE",
"35 173 OFFCURVE",
"35 135 CURVE SMOOTH",
"35 52 OFFCURVE",
"90 -8 OFFCURVE",
"169 -8 CURVE SMOOTH"
);
}
);
width = 332;
}
);
leftKerningGroup = o;
rightKerningGroup = c;
unicode = 0063;
},
{
color = 3;
glyphname = e;
lastChange = "2017-02-24 09:36:06 +0000";
layers = (
{
anchors = (
{
name = top;
position = "{224, 508}";
}
);
layerId = "262880E7-CFE1-4BDA-902E-E24798F3240A";
paths = (
{
closed = 1;
nodes = (
"310 -8 OFFCURVE",
"373 44 OFFCURVE",
"392 118 CURVE",
"369 117 LINE",
"350 56 OFFCURVE",
"297 13 OFFCURVE",
"224 13 CURVE SMOOTH",
"144 13 OFFCURVE",
"89 63 OFFCURVE",
"76 135 CURVE SMOOTH",
"72 156 OFFCURVE",
"72 193 OFFCURVE",
"72 250 CURVE SMOOTH",
"72 302 OFFCURVE",
"72 343 OFFCURVE",
"76 365 CURVE SMOOTH",
"89 436 OFFCURVE",
"144 487 OFFCURVE",
"224 487 CURVE SMOOTH",
"304 487 OFFCURVE",
"360 436 OFFCURVE",
"373 365 CURVE SMOOTH",
"377 346 OFFCURVE",
"377 315 OFFCURVE",
"377 267 CURVE",
"62 267 LINE",
"62 246 LINE",
"399 246 LINE",
"399 332 OFFCURVE",
"399 350 OFFCURVE",
"393 377 CURVE SMOOTH",
"376 454 OFFCURVE",
"312 508 OFFCURVE",
"224 508 CURVE SMOOTH",
"136 508 OFFCURVE",
"73 454 OFFCURVE",
"56 377 CURVE SMOOTH",
"49 345 OFFCURVE",
"50 310 OFFCURVE",
"50 251 CURVE SMOOTH",
"50 195 OFFCURVE",
"49 156 OFFCURVE",
"56 123 CURVE SMOOTH",
"73 46 OFFCURVE",
"136 -8 OFFCURVE",
"224 -8 CURVE SMOOTH"
);
}
);
width = 449;
},
{
anchors = (
{
name = top;
position = "{260, 528}";
}
);
layerId = "FFFA8D72-12AC-4CE0-B2CA-57A29829F4DA";
paths = (
{
closed = 1;
nodes = (
"382 -8 OFFCURVE",
"455 49 OFFCURVE",
"499 172 CURVE",
"313 192 LINE",
"302 167 OFFCURVE",
"289 153 OFFCURVE",
"261 153 CURVE SMOOTH",
"235 153 OFFCURVE",
"219 165 OFFCURVE",
"210 185 CURVE SMOOTH",
"201 205 OFFCURVE",
"198 232 OFFCURVE",
"198 262 CURVE SMOOTH",
"198 305 OFFCURVE",
"201 318 OFFCURVE",
"210 336 CURVE SMOOTH",
"220 355 OFFCURVE",
"235 367 OFFCURVE",
"260 367 CURVE SMOOTH",
"285 367 OFFCURVE",
"300 355 OFFCURVE",
"310 336 CURVE SMOOTH",
"316 324 OFFCURVE",
"320 311 OFFCURVE",
"321 302 CURVE",
"194 302 LINE",
"194 222 LINE",
"510 222 LINE",
"510 280 OFFCURVE",
"510 327 OFFCURVE",
"490 381 CURVE SMOOTH",
"454 476 OFFCURVE",
"372 528 OFFCURVE",
"260 528 CURVE SMOOTH",
"148 528 OFFCURVE",
"66 476 OFFCURVE",
"30 381 CURVE SMOOTH",
"17 346 OFFCURVE",
"10 307 OFFCURVE",
"10 263 CURVE SMOOTH",
"10 219 OFFCURVE",
"17 179 OFFCURVE",
"30 144 CURVE SMOOTH",
"66 49 OFFCURVE",
"146 -8 OFFCURVE",
"264 -8 CURVE SMOOTH"
);
}
);
width = 520;
},
{
anchors = (
{
name = top;
position = "{223, 532}";
}
);
layerId = "4E2227F3-52E4-4048-A8EE-327B486EF0A4";
paths = (
{
closed = 1;
nodes = (
"357 -8 OFFCURVE",
"435 54 OFFCURVE",
"435 175 CURVE",
"246 192 LINE",
"245 172 OFFCURVE",
"244 153 OFFCURVE",
"223 153 CURVE SMOOTH",
"215 153 OFFCURVE",
"207 157 OFFCURVE",
"204 163 CURVE",
"198 174 OFFCURVE",
"198 195 OFFCURVE",
"198 260 CURVE SMOOTH",
"198 332 OFFCURVE",
"197 348 OFFCURVE",
"204 360 CURVE",
"208 366 OFFCURVE",
"214 371 OFFCURVE",
"223 371 CURVE SMOOTH",
"231 371 OFFCURVE",
"238 366 OFFCURVE",
"241 360 CURVE",
"246 351 OFFCURVE",
"247 339 OFFCURVE",
"247 303 CURVE",
"162 303 LINE",
"162 213 LINE",
"435 213 LINE",
"435 268 OFFCURVE",
"435 294 OFFCURVE",
"435 350 CURVE SMOOTH",
"435 456 OFFCURVE",
"359 532 OFFCURVE",
"223 532 CURVE SMOOTH",
"87 532 OFFCURVE",
"10 456 OFFCURVE",
"10 350 CURVE SMOOTH",
"10 327 OFFCURVE",
"10 283 OFFCURVE",
"10 260 CURVE SMOOTH",
"10 230 OFFCURVE",
"10 200 OFFCURVE",
"10 170 CURVE SMOOTH",
"10 57 OFFCURVE",
"87 -8 OFFCURVE",
"223 -8 CURVE SMOOTH"
);
}
);
width = 445;
},
{
anchors = (
{
name = top;
position = "{169, 508}";
}
);
layerId = "DCBE1F7B-116A-43E0-B7B4-8657BA77D8B5";
paths = (
{
closed = 1;
nodes = (
"240 -8 OFFCURVE",
"292 40 OFFCURVE",
"302 109 CURVE",
"280 108 LINE",
"270 51 OFFCURVE",
"227 13 OFFCURVE",
"169 13 CURVE SMOOTH",
"103 13 OFFCURVE",
"57 63 OFFCURVE",
"57 135 CURVE SMOOTH",
"57 173 OFFCURVE",
"57 212 OFFCURVE",
"57 250 CURVE SMOOTH",
"57 288 OFFCURVE",
"57 327 OFFCURVE",
"57 365 CURVE SMOOTH",
"57 437 OFFCURVE",
"103 487 OFFCURVE",
"169 487 CURVE SMOOTH",
"236 487 OFFCURVE",
"282 437 OFFCURVE",
"282 365 CURVE SMOOTH",
"282 332 OFFCURVE",
"282 300 OFFCURVE",
"282 267 CURVE",
"49 267 LINE",
"49 246 LINE",
"304 246 LINE",
"304 286 OFFCURVE",
"304 325 OFFCURVE",
"304 365 CURVE SMOOTH",
"304 448 OFFCURVE",
"249 508 OFFCURVE",
"169 508 CURVE SMOOTH",
"90 508 OFFCURVE",
"35 448 OFFCURVE",
"35 365 CURVE SMOOTH",
"35 327 OFFCURVE",
"35 288 OFFCURVE",
"35 250 CURVE SMOOTH",
"35 212 OFFCURVE",
"35 173 OFFCURVE",
"35 135 CURVE SMOOTH",
"35 52 OFFCURVE",
"90 -8 OFFCURVE",
"169 -8 CURVE SMOOTH"
);
}
);
width = 339;
},
{
anchors = (
{
name = top;
position = "{252, 528}";
}
);
associatedMasterId = "FFFA8D72-12AC-4CE0-B2CA-57A29829F4DA";
layerId = "C523A904-EA06-4FAF-AEC3-0CFA5C7EE4AC";
name = "Feb 19 17, 20:25";
paths = (
{
closed = 1;
nodes = (
"389 -7 OFFCURVE",
"479 61 OFFCURVE",
"485 162 CURVE",
"305 185 LINE",
"304 166 OFFCURVE",
"285 154 OFFCURVE",
"257 154 CURVE SMOOTH",
"222 154 OFFCURVE",
"198 188 OFFCURVE",
"198 239 CURVE SMOOTH",
"198 271 LINE SMOOTH",
"198 329 OFFCURVE",
"221 367 OFFCURVE",
"256 367 CURVE SMOOTH",
"289 367 OFFCURVE",
"311 338 OFFCURVE",
"311 294 CURVE",
"311 310 LINE",
"126 310 LINE",
"126 206 LINE",
"499 206 LINE",
"499 267 LINE SMOOTH",
"499 424 OFFCURVE",
"401 528 OFFCURVE",
"253 528 CURVE SMOOTH",
"107 528 OFFCURVE",
"10 428 OFFCURVE",
"10 277 CURVE SMOOTH",
"10 249 LINE SMOOTH",
"10 95 OFFCURVE",
"110 -7 OFFCURVE",
"259 -7 CURVE SMOOTH"
);
}
);
width = 509;
},
{
anchors = (
{
name = top;
position = "{226, 498}";
}
);
associatedMasterId = "262880E7-CFE1-4BDA-902E-E24798F3240A";
layerId = "2EFA006A-DDA3-4D17-BF31-C40C040EE571";
name = "Feb 24 17, 00:11";
paths = (
{
closed = 1;
nodes = (
"307 -8 OFFCURVE",
"370 42 OFFCURVE",
"385 116 CURVE",
"364 115 LINE",
"348 54 OFFCURVE",
"293 13 OFFCURVE",
"227 13 CURVE SMOOTH",
"137 13 OFFCURVE",
"77 81 OFFCURVE",
"77 182 CURVE SMOOTH",
"77 318 LINE SMOOTH",
"77 419 OFFCURVE",
"137 487 OFFCURVE",
"226 487 CURVE SMOOTH",
"316 487 OFFCURVE",
"376 419 OFFCURVE",
"376 318 CURVE SMOOTH",
"376 267 LINE",
"67 267 LINE",
"67 246 LINE",
"398 246 LINE",
"398 316 LINE SMOOTH",
"398 431 OFFCURVE",
"329 508 OFFCURVE",
"226 508 CURVE SMOOTH",
"123 508 OFFCURVE",
"55 432 OFFCURVE",
"55 317 CURVE SMOOTH",
"55 183 LINE SMOOTH",
"55 68 OFFCURVE",
"124 -8 OFFCURVE",
"227 -8 CURVE SMOOTH"
);
}
);
width = 453;
visible = 1;
},
{
anchors = (
{
name = top;
position = "{252, 528}";
}
);
associatedMasterId = "FFFA8D72-12AC-4CE0-B2CA-57A29829F4DA";
layerId = "FDC1E1ED-A095-4F4A-B02A-1ACC860B025E";
name = "Feb 24 17, 00:13";
paths = (
{
closed = 1;
nodes = (
"390 -7 OFFCURVE",
"474 57 OFFCURVE",
"501 173 CURVE",
"313 194 LINE",
"304 168 OFFCURVE",
"287 154 OFFCURVE",
"260 154 CURVE SMOOTH",
"216 154 OFFCURVE",
"198 193 OFFCURVE",
"198 263 CURVE SMOOTH",
"198 263 LINE SMOOTH",
"198 328 OFFCURVE",
"216 367 OFFCURVE",
"260 367 CURVE SMOOTH",
"303 367 OFFCURVE",
"321 330 OFFCURVE",
"322 269 CURVE",
"322 306 LINE",
"162 306 LINE",
"162 219 LINE",
"510 219 LINE",
"510 263 LINE SMOOTH",
"510 435 OFFCURVE",
"420 528 OFFCURVE",
"260 528 CURVE SMOOTH",
"100 528 OFFCURVE",
"10 435 OFFCURVE",
"10 263 CURVE SMOOTH",
"10 263 LINE SMOOTH",
"10 90 OFFCURVE",
"100 -7 OFFCURVE",
"260 -7 CURVE SMOOTH"
);
}
);
width = 520;
visible = 1;
},
{
anchors = (
{
name = top;
position = "{260, 528}";
}
);
associatedMasterId = "FFFA8D72-12AC-4CE0-B2CA-57A29829F4DA";
layerId = "5A86ED49-1A07-4A08-ACBE-BDE77E6ADA45";
name = "Feb 24 17, 00:19";
paths = (
{
closed = 1;
nodes = (
"510 219 LINE",
"510 284 OFFCURVE",
"510 327 OFFCURVE",
"490 381 CURVE SMOOTH",
"454 476 OFFCURVE",
"372 528 OFFCURVE",
"260 528 CURVE SMOOTH",
"148 528 OFFCURVE",
"66 476 OFFCURVE",
"30 381 CURVE SMOOTH",
"17 346 OFFCURVE",
"10 307 OFFCURVE",
"10 263 CURVE SMOOTH",
"10 219 OFFCURVE",
"17 179 OFFCURVE",
"30 144 CURVE SMOOTH",
"66 49 OFFCURVE",
"148 -8 OFFCURVE",
"260 -8 CURVE SMOOTH",
"384 -8 OFFCURVE",
"454 48 OFFCURVE",
"499 172 CURVE",
"313 193 LINE",
"302 168 OFFCURVE",
"289 154 OFFCURVE",
"260 154 CURVE SMOOTH",
"235 154 OFFCURVE",
"219 166 OFFCURVE",
"210 186 CURVE SMOOTH",
"201 206 OFFCURVE",
"198 233 OFFCURVE",
"198 263 CURVE SMOOTH",
"198 302 OFFCURVE",
"200 320 OFFCURVE",
"210 340 CURVE SMOOTH",
"220 359 OFFCURVE",
"235 371 OFFCURVE",
"260 371 CURVE SMOOTH",
"285 371 OFFCURVE",
"300 359 OFFCURVE",
"310 340 CURVE SMOOTH",
"316 328 OFFCURVE",
"319 313 OFFCURVE",
"321 296 CURVE",
"194 296 LINE",
"194 219 LINE"
);
}
);
width = 520;
},
{
anchors = (
{
name = top;
position = "{223, 528}";
}
);
associatedMasterId = "4E2227F3-52E4-4048-A8EE-327B486EF0A4";
layerId = "1607DCD5-9BA9-4F8D-B5DF-80154018F12C";
name = "Feb 24 17, 00:20";
paths = (
{
closed = 1;
nodes = (
"358 -7 OFFCURVE",
"429 67 OFFCURVE",
"428 181 CURVE",
"247 193 LINE",
"246 168 OFFCURVE",
"238 154 OFFCURVE",
"224 154 CURVE SMOOTH",
"207 154 OFFCURVE",
"198 168 OFFCURVE",
"198 193 CURVE SMOOTH",
"198 332 LINE SMOOTH",
"198 354 OFFCURVE",
"207 367 OFFCURVE",
"223 367 CURVE SMOOTH",
"238 367 OFFCURVE",
"247 354 OFFCURVE",
"247 332 CURVE SMOOTH",
"247 303 LINE",
"126 303 LINE",
"126 215 LINE",
"435 215 LINE",
"435 331 LINE SMOOTH",
"435 457 OFFCURVE",
"359 528 OFFCURVE",
"223 528 CURVE SMOOTH",
"87 528 OFFCURVE",
"10 457 OFFCURVE",
"10 331 CURVE SMOOTH",
"10 189 LINE SMOOTH",
"10 64 OFFCURVE",
"87 -7 OFFCURVE",
"223 -7 CURVE SMOOTH"
);
}
);
width = 445;
visible = 1;
},
{
anchors = (
{
name = top;
position = "{203, 517}";
}
);
associatedMasterId = "4E2227F3-52E4-4048-A8EE-327B486EF0A4";
layerId = "A53D93E6-92CC-45B1-8880-653E9256B646";
name = "100,3} Feb 24 17, 00:22";
paths = (
{
closed = 1;
nodes = (
"303 -8 OFFCURVE",
"372 48 OFFCURVE",
"379 141 CURVE",
"280 143 LINE",
"272 102 OFFCURVE",
"241 79 OFFCURVE",
"204 79 CURVE SMOOTH",
"156 79 OFFCURVE",
"125 115 OFFCURVE",
"125 173 CURVE SMOOTH",
"125 339 LINE SMOOTH",
"125 395 OFFCURVE",
"156 431 OFFCURVE",
"203 431 CURVE SMOOTH",
"251 431 OFFCURVE",
"281 395 OFFCURVE",
"281 339 CURVE SMOOTH",
"281 298 LINE",
"86 298 LINE",
"86 215 LINE",
"381 215 LINE",
"381 337 LINE SMOOTH",
"381 449 OFFCURVE",
"314 517 OFFCURVE",
"203 517 CURVE SMOOTH",
"94 517 OFFCURVE",
"26 449 OFFCURVE",
"26 338 CURVE SMOOTH",
"26 171 LINE SMOOTH",
"26 61 OFFCURVE",
"93 -8 OFFCURVE",
"204 -8 CURVE SMOOTH"
);
}
);
width = 409;
visible = 1;
},
{
anchors = (
{
name = top;
position = "{235, 517}";
}
);
associatedMasterId = "4E2227F3-52E4-4048-A8EE-327B486EF0A4";
layerId = "A47C68F1-3740-4053-814E-50DA5F989A02";
name = "100,5} Feb 24 17, 00:22";
paths = (
{
closed = 1;
nodes = (
"345 -8 OFFCURVE",
"415 47 OFFCURVE",
"436 143 CURVE",
"338 152 LINE",
"324 106 OFFCURVE",
"289 79 OFFCURVE",
"240 79 CURVE SMOOTH",
"169 79 OFFCURVE",
"131 134 OFFCURVE",
"131 230 CURVE SMOOTH",
"131 282 LINE SMOOTH",
"131 377 OFFCURVE",
"169 433 OFFCURVE",
"239 433 CURVE SMOOTH",
"309 433 OFFCURVE",
"348 378 OFFCURVE",
"348 284 CURVE",
"348 296 LINE",
"109 296 LINE",
"109 211 LINE",
"448 211 LINE",
"448 281 LINE SMOOTH",
"448 432 OFFCURVE",
"371 519 OFFCURVE",
"239 519 CURVE SMOOTH",
"107 519 OFFCURVE",
"31 432 OFFCURVE",
"31 281 CURVE SMOOTH",
"31 231 LINE SMOOTH",
"31 79 OFFCURVE",
"107 -8 OFFCURVE",
"240 -8 CURVE SMOOTH"
);
}
);
width = 479;
},
{
anchors = (
{
name = top;
position = "{243, 522}";
}
);
associatedMasterId = "4E2227F3-52E4-4048-A8EE-327B486EF0A4";
layerId = "5954086A-CF98-4407-B6DE-F8A05521AEBF";
name = "140,5} Feb 24 17, 00:22";
paths = (
{
closed = 1;
nodes = (
"365 -8 OFFCURVE",
"442 52 OFFCURVE",
"466 157 CURVE",
"327 171 LINE",
"315 134 OFFCURVE",
"288 113 OFFCURVE",
"249 113 CURVE SMOOTH",
"190 113 OFFCURVE",
"161 161 OFFCURVE",
"161 245 CURVE SMOOTH",
"161 273 LINE SMOOTH",
"161 357 OFFCURVE",
"190 405 OFFCURVE",
"249 405 CURVE SMOOTH",
"306 405 OFFCURVE",
"336 358 OFFCURVE",
"336 277 CURVE",
"336 308 LINE",
"133 308 LINE",
"133 213 LINE",
"476 213 LINE",
"476 273 LINE SMOOTH",
"476 433 OFFCURVE",
"393 525 OFFCURVE",
"249 525 CURVE SMOOTH",
"104 525 OFFCURVE",
"21 433 OFFCURVE",
"21 273 CURVE SMOOTH",
"21 246 LINE SMOOTH",
"21 84 OFFCURVE",
"104 -8 OFFCURVE",
"249 -8 CURVE SMOOTH"
);
}
);
width = 498;
},
{
anchors = (
{
name = top;
position = "{194, 519}";
}
);
associatedMasterId = "4E2227F3-52E4-4048-A8EE-327B486EF0A4";
layerId = "6A71C6C0-6498-4E03-A0EC-57F8322562B8";
name = "{100,3}";
paths = (
{
closed = 1;
nodes = (
"295 -8 OFFCURVE",
"359 47 OFFCURVE",
"364 140 CURVE",
"264 147 LINE",
"258 108 OFFCURVE",
"235 79 OFFCURVE",
"194 79 CURVE SMOOTH",
"155 79 OFFCURVE",
"127 107 OFFCURVE",
"126 149 CURVE SMOOTH",
"123 174 OFFCURVE",
"123 204 OFFCURVE",
"123 255 CURVE SMOOTH",
"123 309 OFFCURVE",
"122 337 OFFCURVE",
"126 363 CURVE SMOOTH",
"127 404 OFFCURVE",
"155 433 OFFCURVE",
"194 433 CURVE SMOOTH",
"234 433 OFFCURVE",
"261 404 OFFCURVE",
"263 363 CURVE SMOOTH",
"265 341 OFFCURVE",
"266 318 OFFCURVE",
"266 294 CURVE",
"102 294 LINE",
"102 210 LINE",
"365 210 LINE",
"365 257 OFFCURVE",
"365 311 OFFCURVE",
"365 358 CURVE SMOOTH",
"365 452 OFFCURVE",
"300 519 OFFCURVE",
"194 519 CURVE SMOOTH",
"89 519 OFFCURVE",
"23 452 OFFCURVE",
"23 358 CURVE SMOOTH",
"23 327 OFFCURVE",
"23 286 OFFCURVE",
"23 255 CURVE SMOOTH",
"23 220 OFFCURVE",
"23 186 OFFCURVE",
"23 151 CURVE SMOOTH",
"23 54 OFFCURVE",
"89 -8 OFFCURVE",
"194 -8 CURVE SMOOTH"
);
}
);
width = 392;
},
{
anchors = (
{
name = top;
position = "{243, 517}";
}
);
associatedMasterId = "4E2227F3-52E4-4048-A8EE-327B486EF0A4";
layerId = "E8CA071A-13DC-4AE8-9510-CE5451652C21";
name = "{100,5}";
paths = (
{
closed = 1;
nodes = (
"347 -8 OFFCURVE",
"413 46 OFFCURVE",
"444 143 CURVE",
"345 152 LINE",
"330 108 OFFCURVE",
"295 79 OFFCURVE",
"243 79 CURVE SMOOTH",
"189 79 OFFCURVE",
"152 111 OFFCURVE",
"141 159 CURVE SMOOTH",
"134 179 OFFCURVE",
"133 212 OFFCURVE",
"133 256 CURVE SMOOTH",
"133 302 OFFCURVE",
"134 332 OFFCURVE",
"141 353 CURVE SMOOTH",
"152 400 OFFCURVE",
"189 433 OFFCURVE",
"243 433 CURVE SMOOTH",
"297 433 OFFCURVE",
"334 400 OFFCURVE",
"346 353 CURVE SMOOTH",
"351 338 OFFCURVE",
"352 319 OFFCURVE",
"353 296 CURVE",
"126 296 LINE",
"126 212 LINE",
"453 212 LINE",
"453 289 OFFCURVE",
"453 339 OFFCURVE",
"440 379 CURVE SMOOTH",
"415 464 OFFCURVE",
"342 517 OFFCURVE",
"243 517 CURVE SMOOTH",
"144 517 OFFCURVE",
"72 464 OFFCURVE",
"46 379 CURVE SMOOTH",
"36 345 OFFCURVE",
"33 309 OFFCURVE",
"33 257 CURVE SMOOTH",
"33 206 OFFCURVE",
"36 167 OFFCURVE",
"46 133 CURVE SMOOTH",
"72 47 OFFCURVE",
"144 -8 OFFCURVE",
"243 -8 CURVE SMOOTH"
);
}
);
width = 484;
visible = 1;
},
{
anchors = (
{
name = top;
position = "{251, 522}";
}
);
associatedMasterId = "4E2227F3-52E4-4048-A8EE-327B486EF0A4";
layerId = "85DE9978-90DD-44A9-B0A0-A27E17CC7D90";
name = "{140,5}";
paths = (
{
closed = 1;
nodes = (
"364 -8 OFFCURVE",
"432 47 OFFCURVE",
"469 156 CURVE",
"330 171 LINE",
"317 135 OFFCURVE",
"292 113 OFFCURVE",
"251 113 CURVE SMOOTH",
"210 113 OFFCURVE",
"182 136 OFFCURVE",
"172 171 CURVE SMOOTH",
"164 191 OFFCURVE",
"163 222 OFFCURVE",
"163 259 CURVE SMOOTH",
"163 302 OFFCURVE",
"164 327 OFFCURVE",
"172 347 CURVE SMOOTH",
"183 381 OFFCURVE",
"210 405 OFFCURVE",
"251 405 CURVE SMOOTH",
"292 405 OFFCURVE",
"319 381 OFFCURVE",
"330 347 CURVE SMOOTH",
"335 333 OFFCURVE",
"337 316 OFFCURVE",
"338 312 CURVE",
"157 312 LINE",
"157 209 LINE",
"479 209 LINE",
"479 278 OFFCURVE",
"479 334 OFFCURVE",
"463 380 CURVE SMOOTH",
"433 469 OFFCURVE",
"356 522 OFFCURVE",
"251 522 CURVE SMOOTH",
"146 522 OFFCURVE",
"69 469 OFFCURVE",
"39 380 CURVE SMOOTH",
"27 345 OFFCURVE",
"23 308 OFFCURVE",
"23 260 CURVE SMOOTH",
"23 212 OFFCURVE",
"27 172 OFFCURVE",
"39 138 CURVE SMOOTH",
"69 48 OFFCURVE",
"146 -8 OFFCURVE",
"251 -8 CURVE SMOOTH"
);
}
);
width = 500;
}
);
leftKerningGroup = o;
rightKerningGroup = o;
unicode = 0065;
},
{
color = 3;
glyphname = f;
lastChange = "2017-02-24 09:01:07 +0000";
layers = (
{
layerId = "262880E7-CFE1-4BDA-902E-E24798F3240A";
paths = (
{
closed = 1;
nodes = (
"109 0 LINE",
"109 550 LINE SMOOTH",
"109 637 OFFCURVE",
"127 689 OFFCURVE",
"220 689 CURVE SMOOTH",
"251 689 LINE",
"251 710 LINE",
"220 710 LINE SMOOTH",
"114 710 OFFCURVE",
"87 650 OFFCURVE",
"87 550 CURVE SMOOTH",
"87 0 LINE"
);
},
{
closed = 1;
nodes = (
"246 479 LINE",
"246 500 LINE",
"10 500 LINE",
"10 479 LINE"
);
}
);
width = 266;
},
{
layerId = "4E2227F3-52E4-4048-A8EE-327B486EF0A4";
paths = (
{
closed = 1;
nodes = (
"231 0 LINE",
"231 539 LINE SMOOTH",
"231 557 OFFCURVE",
"244 572 OFFCURVE",
"268 575 CURVE",
"275 575 LINE",
"275 700 LINE",
"268 700 LINE",
"126 707 OFFCURVE",
"43 683 OFFCURVE",
"43 556 CURVE SMOOTH",
"43 0 LINE"
);
},
{
closed = 1;
nodes = (
"289 390 LINE",
"289 520 LINE",
"2 520 LINE",
"2 390 LINE"
);
}
);
width = 293;
},
{
layerId = "FFFA8D72-12AC-4CE0-B2CA-57A29829F4DA";
paths = (
{
closed = 1;
nodes = (
"261 0 LINE",
"261 539 LINE SMOOTH",
"261 557 OFFCURVE",
"274 572 OFFCURVE",
"298 575 CURVE",
"355 575 LINE",
"355 700 LINE",
"298 700 LINE",
"156 707 OFFCURVE",
"73 683 OFFCURVE",
"73 556 CURVE SMOOTH",
"73 0 LINE"
);
},
{
closed = 1;
nodes = (
"369 370 LINE",
"369 520 LINE",
"2 520 LINE",
"2 370 LINE"
);
}
);
width = 373;
},
{
layerId = "DCBE1F7B-116A-43E0-B7B4-8657BA77D8B5";
paths = (
{
closed = 1;
nodes = (
"89 0 LINE",
"89 550 LINE SMOOTH",
"89 637 OFFCURVE",
"102 689 OFFCURVE",
"172 689 CURVE SMOOTH",
"197 689 LINE",
"197 710 LINE",
"171 710 LINE SMOOTH",
"89 710 OFFCURVE",
"67 650 OFFCURVE",
"67 550 CURVE SMOOTH",
"67 0 LINE"
);
},
{
closed = 1;
nodes = (
"193 479 LINE",
"193 500 LINE",
"7 500 LINE",
"7 479 LINE"
);
}
);
width = 207;
},
{
associatedMasterId = "FFFA8D72-12AC-4CE0-B2CA-57A29829F4DA";
layerId = "2C93A357-82AB-483E-BCC8-F28359C8C182";
name = "{100,5}";
paths = (
{
closed = 1;
nodes = (
"181 0 LINE",
"181 517 LINE",
"181 574 OFFCURVE",
"200 606 OFFCURVE",
"265 606 CURVE SMOOTH",
"299 606 LINE",
"299 700 LINE",
"255 700 LINE SMOOTH",
"142 700 OFFCURVE",
"81 645 OFFCURVE",
"81 530 CURVE",
"81 0 LINE"
);
},
{
closed = 1;
nodes = (
"299 418 LINE",
"299 510 LINE",
"0 510 LINE",
"0 418 LINE"
);
}
);
width = 309;
}
);
leftKerningGroup = t;
unicode = 0066;
},
{
glyphname = g;
lastChange = "2017-02-24 09:01:07 +0000";
layers = (
{
components = (
{
name = b.bowl;
transform = "{-1, 0, 0, 1, 412, 0}";
}
);
layerId = "262880E7-CFE1-4BDA-902E-E24798F3240A";
paths = (
{
closed = 1;
nodes = (
"342 -205 OFFCURVE",
"415 -137 OFFCURVE",
"415 0 CURVE SMOOTH",
"415 500 LINE",
"393 500 LINE",
"393 0 LINE SMOOTH",
"393 -123 OFFCURVE",
"326 -183 OFFCURVE",
"237 -179 CURVE",
"237 -200 LINE"
);
}
);
width = 495;
},
{
components = (
{
name = b.bowl;
transform = "{-1, 0, 0, 1, 281, 0}";
}
);
layerId = "4E2227F3-52E4-4048-A8EE-327B486EF0A4";
paths = (
{
closed = 1;
nodes = (
"381 -233 OFFCURVE",
"434 -115 OFFCURVE",
"434 34 CURVE SMOOTH",
"434 520 LINE",
"246 520 LINE",
"246 54 LINE SMOOTH",
"246 -14 OFFCURVE",
"239 -56 OFFCURVE",
"94 -45 CURVE",
"94 -207 LINE"
);
}
);
width = 450;
},
{
components = (
{
name = b.bowl;
transform = "{-1, 0, 0, 1, 374, 0}";
}
);
layerId = "FFFA8D72-12AC-4CE0-B2CA-57A29829F4DA";
paths = (
{
closed = 1;
nodes = (
"405 -236 OFFCURVE",
"503 -115 OFFCURVE",
"503 34 CURVE SMOOTH",
"503 520 LINE",
"315 520 LINE",
"315 24 LINE SMOOTH",
"315 -36 OFFCURVE",
"264 -59 OFFCURVE",
"103 -38 CURVE",
"103 -200 LINE"
);
}
);
width = 519;
},
{
components = (
{
name = b.bowl;
transform = "{-1, 0, 0, 1, 309, 0}";
}
);
layerId = "DCBE1F7B-116A-43E0-B7B4-8657BA77D8B5";
paths = (
{
closed = 1;
nodes = (
"260 -204 OFFCURVE",
"316 -137 OFFCURVE",
"316 0 CURVE SMOOTH",
"316 500 LINE",
"293 500 LINE",
"293 0 LINE SMOOTH",
"293 -123 OFFCURVE",
"244 -183 OFFCURVE",
"174 -179 CURVE",
"174 -200 LINE"
);
}
);
width = 372;
}
);
leftKerningGroup = d;
rightKerningGroup = g;
unicode = 0067;
},
{
glyphname = h;
lastChange = "2017-02-24 09:01:06 +0000";
layers = (
{
components = (
{
name = n.curve;
transform = "{1, 0, 0, 1, 84, 0}";
}
);
layerId = "262880E7-CFE1-4BDA-902E-E24798F3240A";
paths = (
{
closed = 1;
nodes = (
"102 0 LINE",
"102 700 LINE",
"80 700 LINE",
"80 0 LINE"
);
}
);
width = 488;
},
{
components = (
{
name = n.curve;
transform = "{1, 0, 0, 1, 168, 0}";
}
);
layerId = "4E2227F3-52E4-4048-A8EE-327B486EF0A4";
paths = (
{
closed = 1;
nodes = (
"204 0 LINE",
"204 700 LINE",
"16 700 LINE",
"16 0 LINE"
);
}
);
width = 450;
},
{
components = (
{
name = n.curve;
transform = "{1, 0, 0, 1, 165, 0}";
}
);
layerId = "FFFA8D72-12AC-4CE0-B2CA-57A29829F4DA";
paths = (
{
closed = 1;
nodes = (
"204 0 LINE",
"204 700 LINE",
"16 700 LINE",
"16 0 LINE"
);
}
);
width = 519;
},
{
components = (
{
name = n.curve;
transform = "{1, 0, 0, 1, 63, 0}";
}
);
layerId = "DCBE1F7B-116A-43E0-B7B4-8657BA77D8B5";
paths = (
{
closed = 1;
nodes = (
"78 0 LINE",
"78 700 LINE",
"56 700 LINE",
"56 0 LINE"
);
}
);
width = 366;
}
);
leftKerningGroup = b;
rightKerningGroup = n;
unicode = 0068;
},
{
glyphname = i;
lastChange = "2017-02-24 09:01:06 +0000";
layers = (
{
layerId = "262880E7-CFE1-4BDA-902E-E24798F3240A";
paths = (
{
closed = 1;
nodes = (
"113 0 LINE",
"113 500 LINE",
"91 500 LINE",
"91 0 LINE"
);
},
{
closed = 1;
nodes = (
"119 620 OFFCURVE",
"132 633 OFFCURVE",
"132 650 CURVE SMOOTH",
"132 666 OFFCURVE",
"119 679 OFFCURVE",
"102 679 CURVE SMOOTH",
"84 679 OFFCURVE",
"70 666 OFFCURVE",
"70 650 CURVE SMOOTH",
"70 633 OFFCURVE",
"84 620 OFFCURVE",
"102 620 CURVE SMOOTH"
);
}
);
width = 202;
},
{
layerId = "4E2227F3-52E4-4048-A8EE-327B486EF0A4";
paths = (
{
closed = 1;
nodes = (
"212 0 LINE",
"212 520 LINE",
"24 520 LINE",
"24 0 LINE"
);
},
{
closed = 1;
nodes = (
"181 542 OFFCURVE",
"222 584 OFFCURVE",
"222 647 CURVE SMOOTH",
"222 710 OFFCURVE",
"181 752 OFFCURVE",
"118 752 CURVE SMOOTH",
"56 752 OFFCURVE",
"14 710 OFFCURVE",
"14 647 CURVE SMOOTH",
"14 584 OFFCURVE",
"56 542 OFFCURVE",
"118 542 CURVE SMOOTH"
);
}
);
width = 236;
},
{
layerId = "FFFA8D72-12AC-4CE0-B2CA-57A29829F4DA";
paths = (
{
closed = 1;
nodes = (
"216 0 LINE",
"216 520 LINE",
"28 520 LINE",
"28 0 LINE"
);
},
{
closed = 1;
nodes = (
"187 536 OFFCURVE",
"230 578 OFFCURVE",
"230 641 CURVE SMOOTH",
"230 704 OFFCURVE",
"187 746 OFFCURVE",
"122 746 CURVE SMOOTH",
"58 746 OFFCURVE",
"14 704 OFFCURVE",
"14 641 CURVE SMOOTH",
"14 578 OFFCURVE",
"58 536 OFFCURVE",
"122 536 CURVE SMOOTH"
);
}
);
width = 244;
},
{
layerId = "DCBE1F7B-116A-43E0-B7B4-8657BA77D8B5";
paths = (
{
closed = 1;
nodes = (
"87 0 LINE",
"87 500 LINE",
"65 500 LINE",
"65 0 LINE"
);
},
{
closed = 1;
nodes = (
"90 620 OFFCURVE",
"101 633 OFFCURVE",
"101 650 CURVE SMOOTH",
"101 666 OFFCURVE",
"90 679 OFFCURVE",
"76 679 CURVE SMOOTH",
"61 679 OFFCURVE",
"49 666 OFFCURVE",
"49 650 CURVE SMOOTH",
"49 633 OFFCURVE",
"61 620 OFFCURVE",
"76 620 CURVE SMOOTH"
);
}
);
width = 150;
}
);
leftKerningGroup = i;
unicode = 0069;
},
{
glyphname = idotless;
lastChange = "2017-02-24 09:19:17 +0000";
layers = (
{
anchors = (
{
name = top;
position = "{81, 509}";
}
);
layerId = "262880E7-CFE1-4BDA-902E-E24798F3240A";
paths = (
{
closed = 1;
nodes = (
"92 0 LINE",
"92 500 LINE",
"70 500 LINE",
"70 0 LINE"
);
}
);
width = 162;
},
{
anchors = (
{
name = top;
position = "{104, 532}";
}
);
layerId = "FFFA8D72-12AC-4CE0-B2CA-57A29829F4DA";
paths = (
{
closed = 1;
nodes = (
"202 0 LINE",
"202 520 LINE",
"14 520 LINE",
"14 0 LINE"
);
}
);
width = 216;
},
{
anchors = (
{
name = top;
position = "{60, 509}";
}
);
layerId = "DCBE1F7B-116A-43E0-B7B4-8657BA77D8B5";
paths = (
{
closed = 1;
nodes = (
"71 0 LINE",
"71 500 LINE",
"49 500 LINE",
"49 0 LINE"
);
}
);
width = 120;
},
{
anchors = (
{
name = top;
position = "{108, 533}";
}
);
layerId = "4E2227F3-52E4-4048-A8EE-327B486EF0A4";
paths = (
{
closed = 1;
nodes = (
"202 0 LINE",
"202 520 LINE",
"14 520 LINE",
"14 0 LINE"
);
}
);
width = 216;
}
);
leftMetricsKey = "=i";
rightMetricsKey = "=i";
unicode = 0131;
},
{
glyphname = j;
lastChange = "2017-02-24 09:01:06 +0000";
layers = (
{
layerId = "262880E7-CFE1-4BDA-902E-E24798F3240A";
paths = (
{
closed = 1;
nodes = (
"70 -211 OFFCURVE",
"122 -159 OFFCURVE",
"122 -74 CURVE SMOOTH",
"122 500 LINE",
"100 500 LINE",
"100 -74 LINE SMOOTH",
"100 -146 OFFCURVE",
"57 -190 OFFCURVE",
"-15 -190 CURVE",
"-15 -211 LINE"
);
},
{
closed = 1;
nodes = (
"131 620 OFFCURVE",
"143 631 OFFCURVE",
"143 650 CURVE SMOOTH",
"143 669 OFFCURVE",
"131 679 OFFCURVE",
"111 679 CURVE SMOOTH",
"93 679 OFFCURVE",
"80 669 OFFCURVE",
"80 650 CURVE SMOOTH",
"80 631 OFFCURVE",
"93 620 OFFCURVE",
"111 620 CURVE SMOOTH"
);
}
);
width = 192;
},
{
layerId = "4E2227F3-52E4-4048-A8EE-327B486EF0A4";
paths = (
{
closed = 1;
nodes = (
"203 -210 OFFCURVE",
"208 -120 OFFCURVE",
"208 29 CURVE SMOOTH",
"208 520 LINE",
"20 520 LINE",
"20 29 LINE SMOOTH",
"20 -19 OFFCURVE",
"5 -49 OFFCURVE",
"-76 -41 CURVE",
"-76 -201 LINE"
);
},
{
closed = 1;
nodes = (
"175 542 OFFCURVE",
"218 589 OFFCURVE",
"218 647 CURVE SMOOTH",
"218 705 OFFCURVE",
"166 752 OFFCURVE",
"114 752 CURVE SMOOTH",
"61 752 OFFCURVE",
"10 705 OFFCURVE",
"10 647 CURVE SMOOTH",
"10 589 OFFCURVE",
"52 542 OFFCURVE",
"114 542 CURVE SMOOTH"
);
}
);
width = 222;
},
{
layerId = "FFFA8D72-12AC-4CE0-B2CA-57A29829F4DA";
paths = (
{
closed = 1;
nodes = (
"191 -210 OFFCURVE",
"208 -120 OFFCURVE",
"208 29 CURVE SMOOTH",
"208 520 LINE",
"20 520 LINE",
"20 29 LINE SMOOTH",
"20 -19 OFFCURVE",
"-4 -49 OFFCURVE",
"-99 -41 CURVE",
"-99 -201 LINE"
);
},
{
closed = 1;
nodes = (
"177 536 OFFCURVE",
"222 583 OFFCURVE",
"222 641 CURVE SMOOTH",
"222 699 OFFCURVE",
"169 746 OFFCURVE",
"114 746 CURVE SMOOTH",
"58 746 OFFCURVE",
"6 699 OFFCURVE",
"6 641 CURVE SMOOTH",
"6 583 OFFCURVE",
"49 536 OFFCURVE",
"114 536 CURVE SMOOTH"
);
}
);
width = 222;
},
{
layerId = "DCBE1F7B-116A-43E0-B7B4-8657BA77D8B5";
paths = (
{
closed = 1;
nodes = (
"53 -211 OFFCURVE",
"92 -159 OFFCURVE",
"92 -74 CURVE SMOOTH",
"92 500 LINE",
"70 500 LINE",
"70 -74 LINE SMOOTH",
"70 -146 OFFCURVE",
"38 -190 OFFCURVE",
"-18 -190 CURVE",
"-18 -211 LINE"
);
},
{
closed = 1;
nodes = (
"97 620 OFFCURVE",
"108 631 OFFCURVE",
"108 650 CURVE SMOOTH",
"108 669 OFFCURVE",
"97 679 OFFCURVE",
"81 679 CURVE SMOOTH",
"66 679 OFFCURVE",
"55 669 OFFCURVE",
"55 650 CURVE SMOOTH",
"55 631 OFFCURVE",
"66 620 OFFCURVE",
"81 620 CURVE SMOOTH"
);
}
);
width = 141;
}
);
leftKerningGroup = j;
unicode = 006A;
},
{
glyphname = k;
lastChange = "2017-02-24 09:01:06 +0000";
layers = (
{
guideLines = (
{
angle = 180;
position = "{264, 0}";
showMeasurement = 1;
}
);
layerId = "262880E7-CFE1-4BDA-902E-E24798F3240A";
paths = (
{
closed = 1;
nodes = (
"102 0 LINE",
"102 200 LINE",
"247 347 LINE",
"396 0 LINE",
"420 0 LINE",
"263 363 LINE",
"400 500 LINE",
"372 502 LINE",
"102 228 LINE",
"102 700 LINE",
"80 700 LINE",
"80 0 LINE"
);
}
);
width = 450;
},
{
layerId = "4E2227F3-52E4-4048-A8EE-327B486EF0A4";
paths = (
{
closed = 1;
nodes = (
"204 0 LINE",
"204 136 LINE",
"216 165 LINE",
"269 0 LINE",
"463 0 LINE",
"332 315 LINE",
"457 520 LINE",
"262 520 LINE",
"204 390 LINE",
"204 700 LINE",
"16 700 LINE",
"16 0 LINE"
);
}
);
width = 469;
},
{
layerId = "FFFA8D72-12AC-4CE0-B2CA-57A29829F4DA";
paths = (
{
closed = 1;
nodes = (
"204 0 LINE",
"204 149 LINE",
"244 205 LINE",
"332 0 LINE",
"526 0 LINE",
"364 315 LINE",
"516 520 LINE",
"302 520 LINE",
"204 378 LINE",
"204 700 LINE",
"16 700 LINE",
"16 0 LINE"
);
}
);
width = 532;
},
{
guideLines = (
{
angle = 180;
position = "{262, 0}";
showMeasurement = 1;
}
);
layerId = "DCBE1F7B-116A-43E0-B7B4-8657BA77D8B5";
paths = (
{
closed = 1;
nodes = (
"78 0 LINE",
"78 200 LINE",
"186 345 LINE",
"297 0 LINE",
"321 0 LINE",
"201 363 LINE",
"305 500 LINE",
"279 500 LINE",
"78 232 LINE",
"78 700 LINE",
"56 700 LINE",
"56 0 LINE"
);
}
);
width = 342;
}
);
leftKerningGroup = b;
rightKerningGroup = k;
unicode = 006B;
},
{
glyphname = l;
lastChange = "2017-02-24 09:01:06 +0000";
layers = (
{
layerId = "262880E7-CFE1-4BDA-902E-E24798F3240A";
paths = (
{
closed = 1;
nodes = (
"102 0 LINE",
"102 700 LINE",
"80 700 LINE",
"80 0 LINE"
);
}
);
width = 182;
},
{
layerId = "4E2227F3-52E4-4048-A8EE-327B486EF0A4";
paths = (
{
closed = 1;
nodes = (
"204 0 LINE",
"204 700 LINE",
"16 700 LINE",
"16 0 LINE"
);
}
);
width = 220;
},
{
layerId = "FFFA8D72-12AC-4CE0-B2CA-57A29829F4DA";
paths = (
{
closed = 1;
nodes = (
"204 0 LINE",
"204 700 LINE",
"16 700 LINE",
"16 0 LINE"
);
}
);
width = 220;
},
{
layerId = "DCBE1F7B-116A-43E0-B7B4-8657BA77D8B5";
paths = (
{
closed = 1;
nodes = (
"78 0 LINE",
"78 700 LINE",
"56 700 LINE",
"56 0 LINE"
);
}
);
width = 134;
}
);
leftKerningGroup = l;
rightKerningGroup = l;
unicode = 006C;
},
{
glyphname = m;
lastChange = "2017-02-24 09:01:06 +0000";
layers = (
{
layerId = "262880E7-CFE1-4BDA-902E-E24798F3240A";
paths = (
{
closed = 1;
nodes = (
"102 0 LINE",
"102 500 LINE",
"80 500 LINE",
"80 0 LINE"
);
},
{
closed = 1;
nodes = (
"404 0 LINE",
"404 347 LINE SMOOTH",
"404 446 OFFCURVE",
"340 507 OFFCURVE",
"248 507 CURVE SMOOTH",
"149 507 OFFCURVE",
"85 448 OFFCURVE",
"85 346 CURVE",
"102 346 LINE",
"102 433 OFFCURVE",
"158 486 OFFCURVE",
"246 486 CURVE SMOOTH",
"326 486 OFFCURVE",
"382 432 OFFCURVE",
"382 344 CURVE SMOOTH",
"382 0 LINE"
);
},
{
closed = 1;
nodes = (
"707 0 LINE",
"707 347 LINE SMOOTH",
"707 446 OFFCURVE",
"642 507 OFFCURVE",
"550 507 CURVE SMOOTH",
"452 507 OFFCURVE",
"387 448 OFFCURVE",
"387 346 CURVE",
"404 346 LINE",
"404 433 OFFCURVE",
"461 486 OFFCURVE",
"548 486 CURVE SMOOTH",
"628 486 OFFCURVE",
"685 432 OFFCURVE",
"685 344 CURVE SMOOTH",
"685 0 LINE"
);
}
);
width = 777;
},
{
layerId = "4E2227F3-52E4-4048-A8EE-327B486EF0A4";
paths = (
{
closed = 1;
nodes = (
"204 0 LINE",
"204 520 LINE",
"16 520 LINE",
"16 0 LINE"
);
},
{
closed = 1;
nodes = (
"436 0 LINE",
"436 348 LINE SMOOTH",
"436 459 OFFCURVE",
"395 528 OFFCURVE",
"294 528 CURVE SMOOTH",
"257 528 OFFCURVE",
"157 515 OFFCURVE",
"158 335 CURVE",
"204 335 LINE",
"204 356 OFFCURVE",
"212 367 OFFCURVE",
"227 367 CURVE SMOOTH",
"241 367 OFFCURVE",
"248 356 OFFCURVE",
"248 335 CURVE SMOOTH",
"248 0 LINE"
);
},
{
closed = 1;
nodes = (
"668 0 LINE",
"668 348 LINE SMOOTH",
"668 459 OFFCURVE",
"627 528 OFFCURVE",
"526 528 CURVE SMOOTH",
"485 528 OFFCURVE",
"385 515 OFFCURVE",
"386 335 CURVE",
"436 335 LINE",
"436 356 OFFCURVE",
"444 367 OFFCURVE",
"459 367 CURVE SMOOTH",
"473 367 OFFCURVE",
"480 356 OFFCURVE",
"480 335 CURVE SMOOTH",
"480 0 LINE"
);
}
);
width = 682;
},
{
layerId = "FFFA8D72-12AC-4CE0-B2CA-57A29829F4DA";
paths = (
{
closed = 1;
nodes = (
"204 0 LINE",
"204 520 LINE",
"16 520 LINE",
"16 0 LINE"
);
},
{
closed = 1;
nodes = (
"496 0 LINE",
"496 348 LINE SMOOTH",
"496 464 OFFCURVE",
"410 528 OFFCURVE",
"316 528 CURVE SMOOTH",
"221 528 OFFCURVE",
"145 463 OFFCURVE",
"145 300 CURVE",
"204 300 LINE",
"204 340 OFFCURVE",
"226 367 OFFCURVE",
"257 367 CURVE SMOOTH",
"288 367 OFFCURVE",
"308 340 OFFCURVE",
"308 300 CURVE SMOOTH",
"308 0 LINE"
);
},
{
closed = 1;
nodes = (
"789 0 LINE",
"789 348 LINE SMOOTH",
"789 462 OFFCURVE",
"704 528 OFFCURVE",
"608 528 CURVE SMOOTH",
"512 528 OFFCURVE",
"417 462 OFFCURVE",
"417 300 CURVE",
"496 300 LINE",
"496 340 OFFCURVE",
"518 367 OFFCURVE",
"550 367 CURVE SMOOTH",
"581 367 OFFCURVE",
"601 340 OFFCURVE",
"601 300 CURVE SMOOTH",
"601 0 LINE"
);
}
);
width = 803;
},
{
layerId = "DCBE1F7B-116A-43E0-B7B4-8657BA77D8B5";
paths = (
{
closed = 1;
nodes = (
"78 0 LINE",
"78 500 LINE",
"56 500 LINE",
"56 0 LINE"
);
},
{
closed = 1;
nodes = (
"308 0 LINE",
"308 347 LINE SMOOTH",
"308 446 OFFCURVE",
"260 507 OFFCURVE",
"189 507 CURVE SMOOTH",
"115 507 OFFCURVE",
"62 448 OFFCURVE",
"62 346 CURVE",
"78 346 LINE",
"78 433 OFFCURVE",
"120 486 OFFCURVE",
"185 486 CURVE SMOOTH",
"244 486 OFFCURVE",
"286 432 OFFCURVE",
"286 344 CURVE SMOOTH",
"286 0 LINE"
);
},
{
closed = 1;
nodes = (
"538 0 LINE",
"538 347 LINE SMOOTH",
"538 446 OFFCURVE",
"489 507 OFFCURVE",
"419 507 CURVE SMOOTH",
"345 507 OFFCURVE",
"291 451 OFFCURVE",
"291 346 CURVE",
"308 346 LINE",
"308 433 OFFCURVE",
"350 486 OFFCURVE",
"414 486 CURVE SMOOTH",
"474 486 OFFCURVE",
"516 432 OFFCURVE",
"516 344 CURVE SMOOTH",
"516 0 LINE"
);
}
);
width = 587;
}
);
leftKerningGroup = n;
rightKerningGroup = h;
unicode = 006D;
},
{
glyphname = n;
lastChange = "2017-02-24 09:01:06 +0000";
layers = (
{
anchors = (
{
name = top;
position = "{244, 500}";
}
);
components = (
{
name = n.curve;
transform = "{1, 0, 0, 1, 84, 0}";
}
);
layerId = "262880E7-CFE1-4BDA-902E-E24798F3240A";
paths = (
{
closed = 1;
nodes = (
"102 0 LINE",
"102 500 LINE",
"80 500 LINE",
"80 0 LINE"
);
}
);
width = 488;
},
{
anchors = (
{
name = top;
position = "{232, 520}";
}
);
components = (
{
name = n.curve;
transform = "{1, 0, 0, 1, 168, 0}";
}
);
layerId = "4E2227F3-52E4-4048-A8EE-327B486EF0A4";
paths = (
{
closed = 1;
nodes = (
"204 0 LINE",
"204 520 LINE",
"16 520 LINE",
"16 0 LINE"
);
}
);
width = 450;
},
{
anchors = (
{
name = top;
position = "{272, 520}";
}
);
components = (
{
name = n.curve;
transform = "{1, 0, 0, 1, 165, 0}";
}
);
layerId = "FFFA8D72-12AC-4CE0-B2CA-57A29829F4DA";
paths = (
{
closed = 1;
nodes = (
"204 0 LINE",
"204 520 LINE",
"16 520 LINE",
"16 0 LINE"
);
}
);
width = 519;
},
{
anchors = (
{
name = top;
position = "{192, 500}";
}
);
components = (
{
name = n.curve;
transform = "{1, 0, 0, 1, 63, 0}";
}
);
layerId = "DCBE1F7B-116A-43E0-B7B4-8657BA77D8B5";
paths = (
{
closed = 1;
nodes = (
"78 0 LINE",
"78 500 LINE",
"56 500 LINE",
"56 0 LINE"
);
}
);
width = 366;
}
);
leftKerningGroup = n;
rightKerningGroup = n;
unicode = 006E;
},
{
color = 3;
glyphname = o;
lastChange = "2017-02-24 09:20:47 +0000";
layers = (
{
anchors = (
{
name = top;
position = "{224, 508}";
}
);
guideLines = (
{
position = "{226, 135}";
}
);
layerId = "262880E7-CFE1-4BDA-902E-E24798F3240A";
paths = (
{
closed = 1;
nodes = (
"312 -8 OFFCURVE",
"376 46 OFFCURVE",
"393 123 CURVE SMOOTH",
"400 155 OFFCURVE",
"399 191 OFFCURVE",
"399 250 CURVE SMOOTH",
"399 305 OFFCURVE",
"400 344 OFFCURVE",
"393 377 CURVE SMOOTH",
"376 454 OFFCURVE",
"312 508 OFFCURVE",
"224 508 CURVE SMOOTH",
"136 508 OFFCURVE",
"73 454 OFFCURVE",
"56 377 CURVE SMOOTH",
"49 345 OFFCURVE",
"50 310 OFFCURVE",
"50 251 CURVE SMOOTH",
"50 195 OFFCURVE",
"49 156 OFFCURVE",
"56 123 CURVE SMOOTH",
"73 46 OFFCURVE",
"136 -8 OFFCURVE",
"224 -8 CURVE SMOOTH"
);
},
{
closed = 1;
nodes = (
"144 13 OFFCURVE",
"89 63 OFFCURVE",
"76 135 CURVE SMOOTH",
"72 156 OFFCURVE",
"72 193 OFFCURVE",
"72 250 CURVE SMOOTH",
"72 302 OFFCURVE",
"72 343 OFFCURVE",
"76 365 CURVE SMOOTH",
"89 436 OFFCURVE",
"144 487 OFFCURVE",
"224 487 CURVE SMOOTH",
"304 487 OFFCURVE",
"360 436 OFFCURVE",
"373 365 CURVE SMOOTH",
"377 344 OFFCURVE",
"377 307 OFFCURVE",
"377 250 CURVE SMOOTH",
"377 198 OFFCURVE",
"377 157 OFFCURVE",
"373 135 CURVE SMOOTH",
"360 64 OFFCURVE",
"304 13 OFFCURVE",
"224 13 CURVE SMOOTH"
);
}
);
width = 449;
},
{
anchors = (
{
name = top;
position = "{223, 528}";
}
);
guideLines = (
{
angle = 39.959;
position = "{289, 232}";
showMeasurement = 1;
},
{
angle = -39.959;
position = "{156, 232}";
showMeasurement = 1;
},
{
angle = 39.959;
position = "{289, 404}";
showMeasurement = 1;
},
{
angle = -180;
position = "{224, 260}";
showMeasurement = 1;
},
{
angle = -39.959;
position = "{155, 404}";
showMeasurement = 1;
},
{
position = "{261, 170}";
},
{
position = "{260, 350}";
},
{
position = "{262, 260}";
}
);
layerId = "4E2227F3-52E4-4048-A8EE-327B486EF0A4";
paths = (
{
closed = 1;
nodes = (
"359 -8 OFFCURVE",
"435 57 OFFCURVE",
"435 170 CURVE SMOOTH",
"435 193 OFFCURVE",
"435 237 OFFCURVE",
"435 260 CURVE SMOOTH",
"435 283 OFFCURVE",
"435 327 OFFCURVE",
"435 350 CURVE SMOOTH",
"435 456 OFFCURVE",
"359 528 OFFCURVE",
"223 528 CURVE SMOOTH",
"87 528 OFFCURVE",
"10 456 OFFCURVE",
"10 350 CURVE SMOOTH",
"10 327 OFFCURVE",
"10 283 OFFCURVE",
"10 260 CURVE SMOOTH",
"10 237 OFFCURVE",
"10 193 OFFCURVE",
"10 170 CURVE SMOOTH",
"10 57 OFFCURVE",
"87 -8 OFFCURVE",
"223 -8 CURVE SMOOTH"
);
},
{
closed = 1;
nodes = (
"215 153 OFFCURVE",
"207 157 OFFCURVE",
"204 163 CURVE SMOOTH",
"198 174 OFFCURVE",
"198 194 OFFCURVE",
"198 260 CURVE SMOOTH",
"198 328 OFFCURVE",
"196 344 OFFCURVE",
"204 356 CURVE SMOOTH",
"208 362 OFFCURVE",
"214 367 OFFCURVE",
"223 367 CURVE SMOOTH",
"231 367 OFFCURVE",
"238 362 OFFCURVE",
"241 356 CURVE SMOOTH",
"247 344 OFFCURVE",
"247 328 OFFCURVE",
"247 260 CURVE SMOOTH",
"247 195 OFFCURVE",
"247 175 OFFCURVE",
"241 163 CURVE SMOOTH",
"238 157 OFFCURVE",
"231 153 OFFCURVE",
"223 153 CURVE SMOOTH"
);
}
);
width = 445;
},
{
anchors = (
{
name = top;
position = "{260, 528}";
}
);
guideLines = (
{
position = "{261, 144}";
},
{
position = "{260, 381}";
},
{
position = "{262, 263}";
},
{
position = "{260, 340}";
},
{
position = "{260, 186}";
}
);
layerId = "FFFA8D72-12AC-4CE0-B2CA-57A29829F4DA";
paths = (
{
closed = 1;
nodes = (
"372 -8 OFFCURVE",
"454 49 OFFCURVE",
"490 144 CURVE SMOOTH",
"503 179 OFFCURVE",
"510 219 OFFCURVE",
"510 263 CURVE SMOOTH",
"510 307 OFFCURVE",
"503 346 OFFCURVE",
"490 381 CURVE SMOOTH",
"454 476 OFFCURVE",
"372 528 OFFCURVE",
"260 528 CURVE SMOOTH",
"148 528 OFFCURVE",
"66 476 OFFCURVE",
"30 381 CURVE SMOOTH",
"17 346 OFFCURVE",
"10 307 OFFCURVE",
"10 263 CURVE SMOOTH",
"10 219 OFFCURVE",
"17 179 OFFCURVE",
"30 144 CURVE SMOOTH",
"66 49 OFFCURVE",
"148 -8 OFFCURVE",
"260 -8 CURVE SMOOTH"
);
},
{
closed = 1;
nodes = (
"235 153 OFFCURVE",
"219 165 OFFCURVE",
"210 185 CURVE SMOOTH",
"201 205 OFFCURVE",
"198 232 OFFCURVE",
"198 262 CURVE SMOOTH",
"198 298 OFFCURVE",
"200 316 OFFCURVE",
"210 336 CURVE SMOOTH",
"220 355 OFFCURVE",
"235 367 OFFCURVE",
"260 367 CURVE SMOOTH",
"285 367 OFFCURVE",
"300 355 OFFCURVE",
"310 336 CURVE SMOOTH",
"320 317 OFFCURVE",
"322 290 OFFCURVE",
"322 262 CURVE SMOOTH",
"322 232 OFFCURVE",
"319 205 OFFCURVE",
"310 185 CURVE SMOOTH",
"301 165 OFFCURVE",
"285 153 OFFCURVE",
"260 153 CURVE SMOOTH"
);
}
);
width = 520;
},
{
anchors = (
{
name = top;
position = "{169, 508}";
}
);
guideLines = (
{
angle = 66;
position = "{170, 250}";
showMeasurement = 1;
},
{
angle = 112;
position = "{169, 250}";
showMeasurement = 1;
},
{
angle = -180;
position = "{169, 250}";
showMeasurement = 1;
}
);
layerId = "DCBE1F7B-116A-43E0-B7B4-8657BA77D8B5";
paths = (
{
closed = 1;
nodes = (
"249 -8 OFFCURVE",
"304 52 OFFCURVE",
"304 135 CURVE SMOOTH",
"304 173 OFFCURVE",
"304 212 OFFCURVE",
"304 250 CURVE SMOOTH",
"304 288 OFFCURVE",
"304 327 OFFCURVE",
"304 365 CURVE SMOOTH",
"304 448 OFFCURVE",
"249 508 OFFCURVE",
"169 508 CURVE SMOOTH",
"90 508 OFFCURVE",
"35 448 OFFCURVE",
"35 365 CURVE SMOOTH",
"35 327 OFFCURVE",
"35 288 OFFCURVE",
"35 250 CURVE SMOOTH",
"35 212 OFFCURVE",
"35 173 OFFCURVE",
"35 135 CURVE SMOOTH",
"35 52 OFFCURVE",
"90 -8 OFFCURVE",
"169 -8 CURVE SMOOTH"
);
},
{
closed = 1;
nodes = (
"103 13 OFFCURVE",
"57 63 OFFCURVE",
"57 135 CURVE SMOOTH",
"57 173 OFFCURVE",
"57 212 OFFCURVE",
"57 250 CURVE SMOOTH",
"57 288 OFFCURVE",
"57 327 OFFCURVE",
"57 365 CURVE SMOOTH",
"57 437 OFFCURVE",
"103 487 OFFCURVE",
"169 487 CURVE SMOOTH",
"236 487 OFFCURVE",
"282 437 OFFCURVE",
"282 365 CURVE SMOOTH",
"282 327 OFFCURVE",
"282 288 OFFCURVE",
"282 250 CURVE SMOOTH",
"282 212 OFFCURVE",
"282 173 OFFCURVE",
"282 135 CURVE SMOOTH",
"282 63 OFFCURVE",
"236 13 OFFCURVE",
"169 13 CURVE SMOOTH"
);
}
);
width = 339;
},
{
anchors = (
{
name = top;
position = "{252, 532}";
}
);
associatedMasterId = "FFFA8D72-12AC-4CE0-B2CA-57A29829F4DA";
layerId = "E170A48F-3AE5-4D63-9FF6-9C732EC5D514";
name = "Feb 19 17, 03:14";
paths = (
{
closed = 1;
nodes = (
"374 -12 OFFCURVE",
"464 35 OFFCURVE",
"497 134 CURVE SMOOTH",
"509 170 OFFCURVE",
"512 208 OFFCURVE",
"512 245 CURVE SMOOTH",
"512 282 OFFCURVE",
"509 320 OFFCURVE",
"497 356 CURVE SMOOTH",
"464 455 OFFCURVE",
"374 502 OFFCURVE",
"262 502 CURVE SMOOTH",
"150 502 OFFCURVE",
"60 455 OFFCURVE",
"27 356 CURVE SMOOTH",
"15 320 OFFCURVE",
"12 282 OFFCURVE",
"12 245 CURVE SMOOTH",
"12 208 OFFCURVE",
"15 170 OFFCURVE",
"27 134 CURVE SMOOTH",
"60 35 OFFCURVE",
"150 -12 OFFCURVE",
"262 -12 CURVE SMOOTH"
);
},
{
closed = 1;
nodes = (
"242 148 OFFCURVE",
"227 155 OFFCURVE",
"220 176 CURVE SMOOTH",
"216 189 OFFCURVE",
"214 204 OFFCURVE",
"214 245 CURVE SMOOTH",
"214 286 OFFCURVE",
"216 301 OFFCURVE",
"220 314 CURVE SMOOTH",
"227 335 OFFCURVE",
"242 342 OFFCURVE",
"262 342 CURVE SMOOTH",
"282 342 OFFCURVE",
"297 335 OFFCURVE",
"304 314 CURVE SMOOTH",
"308 301 OFFCURVE",
"310 286 OFFCURVE",
"310 245 CURVE SMOOTH",
"310 204 OFFCURVE",
"308 189 OFFCURVE",
"304 176 CURVE SMOOTH",
"297 155 OFFCURVE",
"282 148 OFFCURVE",
"262 148 CURVE SMOOTH"
);
}
);
width = 510;
},
{
anchors = (
{
name = top;
position = "{252, 532}";
}
);
associatedMasterId = "FFFA8D72-12AC-4CE0-B2CA-57A29829F4DA";
layerId = "729CD020-0260-4A10-AF2C-A7559C6B0093";
name = "Feb 19 17, 03:05";
paths = (
{
closed = 1;
nodes = (
"403 -7 OFFCURVE",
"500 93 OFFCURVE",
"500 243 CURVE SMOOTH",
"500 262 LINE",
"500 281 LINE SMOOTH",
"500 432 OFFCURVE",
"401 532 OFFCURVE",
"252 532 CURVE SMOOTH",
"107 532 OFFCURVE",
"10 432 OFFCURVE",
"10 281 CURVE SMOOTH",
"10 275 OFFCURVE",
"10 268 OFFCURVE",
"10 262 CURVE SMOOTH",
"10 255 OFFCURVE",
"10 250 OFFCURVE",
"10 243 CURVE",
"10 92 OFFCURVE",
"109 -7 OFFCURVE",
"258 -7 CURVE SMOOTH"
);
},
{
closed = 1;
nodes = (
"221 154 OFFCURVE",
"198 186 OFFCURVE",
"198 235 CURVE SMOOTH",
"198 290 LINE SMOOTH",
"198 339 OFFCURVE",
"221 371 OFFCURVE",
"255 371 CURVE SMOOTH",
"289 371 OFFCURVE",
"312 339 OFFCURVE",
"312 290 CURVE SMOOTH",
"312 235 LINE SMOOTH",
"312 186 OFFCURVE",
"289 154 OFFCURVE",
"255 154 CURVE SMOOTH"
);
}
);
width = 510;
},
{
anchors = (
{
name = top;
position = "{224, 508}";
}
);
associatedMasterId = "262880E7-CFE1-4BDA-902E-E24798F3240A";
guideLines = (
{
angle = 60;
position = "{224, 250}";
showMeasurement = 1;
},
{
angle = -180;
position = "{224, 250}";
showMeasurement = 1;
},
{
angle = -60;
position = "{224, 250}";
showMeasurement = 1;
}
);
layerId = "B0138EC5-030B-498C-B0B8-CB1265BD0ED1";
name = "old light";
paths = (
{
closed = 1;
nodes = (
"327 -8 OFFCURVE",
"397 67 OFFCURVE",
"397 168 CURVE SMOOTH",
"397 332 LINE SMOOTH",
"397 433 OFFCURVE",
"327 508 OFFCURVE",
"223 508 CURVE SMOOTH",
"119 508 OFFCURVE",
"50 433 OFFCURVE",
"50 332 CURVE SMOOTH",
"50 168 LINE SMOOTH",
"50 67 OFFCURVE",
"119 -8 OFFCURVE",
"223 -8 CURVE SMOOTH"
);
},
{
closed = 1;
nodes = (
"132 13 OFFCURVE",
"72 79 OFFCURVE",
"72 167 CURVE SMOOTH",
"72 333 LINE SMOOTH",
"72 421 OFFCURVE",
"132 487 OFFCURVE",
"223 487 CURVE SMOOTH",
"314 487 OFFCURVE",
"375 421 OFFCURVE",
"375 333 CURVE SMOOTH",
"375 167 LINE SMOOTH",
"375 79 OFFCURVE",
"314 13 OFFCURVE",
"223 13 CURVE SMOOTH"
);
}
);
width = 449;
},
{
anchors = (
{
name = top;
position = "{224, 508}";
}
);
associatedMasterId = "262880E7-CFE1-4BDA-902E-E24798F3240A";
guideLines = (
{
angle = 60;
position = "{224, 250}";
showMeasurement = 1;
},
{
angle = -180;
position = "{224, 250}";
showMeasurement = 1;
},
{
angle = -60;
position = "{224, 250}";
showMeasurement = 1;
}
);
layerId = "1ABF4078-FE11-4FD4-BA40-BAADFE713524";
name = "cond light";
paths = (
{
closed = 1;
nodes = (
"254 -8 OFFCURVE",
"309 51 OFFCURVE",
"309 136 CURVE SMOOTH",
"309 364 LINE SMOOTH",
"309 449 OFFCURVE",
"254 508 OFFCURVE",
"174 508 CURVE SMOOTH",
"95 508 OFFCURVE",
"40 449 OFFCURVE",
"40 364 CURVE SMOOTH",
"40 136 LINE SMOOTH",
"40 51 OFFCURVE",
"95 -8 OFFCURVE",
"174 -8 CURVE SMOOTH"
);
},
{
closed = 1;
nodes = (
"108 13 OFFCURVE",
"62 63 OFFCURVE",
"62 135 CURVE SMOOTH",
"62 365 LINE SMOOTH",
"62 437 OFFCURVE",
"108 487 OFFCURVE",
"174 487 CURVE SMOOTH",
"241 487 OFFCURVE",
"287 437 OFFCURVE",
"287 365 CURVE SMOOTH",
"287 135 LINE SMOOTH",
"287 63 OFFCURVE",
"241 13 OFFCURVE",
"174 13 CURVE SMOOTH"
);
}
);
width = 349;
},
{
anchors = (
{
name = top;
position = "{223, 532}";
}
);
associatedMasterId = "4E2227F3-52E4-4048-A8EE-327B486EF0A4";
guideLines = (
{
angle = 39.959;
position = "{289, 232}";
showMeasurement = 1;
},
{
angle = -39.959;
position = "{156, 232}";
showMeasurement = 1;
},
{
angle = 39.959;
position = "{289, 404}";
showMeasurement = 1;
},
{
angle = -180;
position = "{224, 260}";
showMeasurement = 1;
},
{
angle = -39.959;
position = "{155, 404}";
showMeasurement = 1;
}
);
layerId = "A2592930-FB52-446A-8915-5702D869B7BD";
name = oldbc;
paths = (
{
closed = 1;
nodes = (
"359 -7 OFFCURVE",
"435 67 OFFCURVE",
"435 190 CURVE SMOOTH",
"435 330 LINE SMOOTH",
"435 456 OFFCURVE",
"359 532 OFFCURVE",
"223 532 CURVE SMOOTH",
"87 532 OFFCURVE",
"10 456 OFFCURVE",
"10 330 CURVE SMOOTH",
"10 190 LINE SMOOTH",
"10 67 OFFCURVE",
"87 -7 OFFCURVE",
"223 -7 CURVE SMOOTH"
);
},
{
closed = 1;
nodes = (
"206 154 OFFCURVE",
"198 165 OFFCURVE",
"198 186 CURVE SMOOTH",
"198 339 LINE SMOOTH",
"198 360 OFFCURVE",
"206 371 OFFCURVE",
"223 371 CURVE SMOOTH",
"239 371 OFFCURVE",
"247 360 OFFCURVE",
"247 339 CURVE SMOOTH",
"247 186 LINE SMOOTH",
"247 165 OFFCURVE",
"239 154 OFFCURVE",
"223 154 CURVE SMOOTH"
);
}
);
width = 445;
},
{
anchors = (
{
name = top;
position = "{251, 528}";
}
);
associatedMasterId = "FFFA8D72-12AC-4CE0-B2CA-57A29829F4DA";
guideLines = (
{
angle = -180;
position = "{174, 260}";
showMeasurement = 1;
},
{
angle = -59.0044;
position = "{218, 260}";
showMeasurement = 1;
},
{
angle = 59.004;
position = "{290, 260}";
showMeasurement = 1;
},
{
angle = 59.004;
position = "{290, 260}";
showMeasurement = 1;
},
{
angle = 59.004;
position = "{290, 380}";
showMeasurement = 1;
},
{
angle = -59.004;
position = "{220, 380}";
showMeasurement = 1;
}
);
layerId = "3864C296-439A-4200-9E6D-A7A6FACAB388";
name = oldbold;
paths = (
{
closed = 1;
nodes = (
"402 -7 OFFCURVE",
"500 93 OFFCURVE",
"500 244 CURVE SMOOTH",
"500 281 LINE SMOOTH",
"500 432 OFFCURVE",
"402 532 OFFCURVE",
"255 532 CURVE SMOOTH",
"108 532 OFFCURVE",
"10 432 OFFCURVE",
"10 281 CURVE SMOOTH",
"10 244 LINE SMOOTH",
"10 93 OFFCURVE",
"108 -7 OFFCURVE",
"255 -7 CURVE SMOOTH"
);
},
{
closed = 1;
nodes = (
"221 154 OFFCURVE",
"198 186 OFFCURVE",
"198 235 CURVE SMOOTH",
"198 290 LINE SMOOTH",
"198 339 OFFCURVE",
"221 371 OFFCURVE",
"255 371 CURVE SMOOTH",
"289 371 OFFCURVE",
"312 339 OFFCURVE",
"312 290 CURVE SMOOTH",
"312 235 LINE SMOOTH",
"312 186 OFFCURVE",
"289 154 OFFCURVE",
"255 154 CURVE SMOOTH"
);
}
);
width = 510;
},
{
anchors = (
{
name = top;
position = "{251, 528}";
}
);
associatedMasterId = "FFFA8D72-12AC-4CE0-B2CA-57A29829F4DA";
guideLines = (
{
angle = -29.004;
position = "{218, 260}";
showMeasurement = 1;
},
{
angle = 59.004;
position = "{290, 260}";
showMeasurement = 1;
},
{
angle = 59.004;
position = "{290, 260}";
showMeasurement = 1;
},
{
angle = 59.004;
position = "{290, 380}";
showMeasurement = 1;
},
{
angle = -59.004;
position = "{220, 380}";
showMeasurement = 1;
}
);
layerId = "DE3342F3-73B1-435C-BEC9-D64414508369";
name = "Feb 19 17, 05:54";
paths = (
{
closed = 1;
nodes = (
"402 -7 OFFCURVE",
"500 93 OFFCURVE",
"500 244 CURVE SMOOTH",
"500 281 LINE SMOOTH",
"500 432 OFFCURVE",
"402 532 OFFCURVE",
"255 532 CURVE SMOOTH",
"108 532 OFFCURVE",
"10 432 OFFCURVE",
"10 281 CURVE SMOOTH",
"10 244 LINE SMOOTH",
"10 93 OFFCURVE",
"108 -7 OFFCURVE",
"255 -7 CURVE SMOOTH"
);
},
{
closed = 1;
nodes = (
"221 154 OFFCURVE",
"198 186 OFFCURVE",
"198 235 CURVE SMOOTH",
"198 290 LINE SMOOTH",
"198 339 OFFCURVE",
"221 371 OFFCURVE",
"255 371 CURVE SMOOTH",
"289 371 OFFCURVE",
"312 339 OFFCURVE",
"312 290 CURVE SMOOTH",
"312 235 LINE SMOOTH",
"312 186 OFFCURVE",
"289 154 OFFCURVE",
"255 154 CURVE SMOOTH"
);
}
);
width = 510;
},
{
anchors = (
{
name = top;
position = "{251, 528}";
}
);
associatedMasterId = "FFFA8D72-12AC-4CE0-B2CA-57A29829F4DA";
guideLines = (
{
angle = -29.004;
position = "{218, 260}";
showMeasurement = 1;
},
{
angle = 59.004;
position = "{290, 260}";
showMeasurement = 1;
},
{
angle = 59.004;
position = "{290, 260}";
showMeasurement = 1;
},
{
angle = 59.004;
position = "{290, 380}";
showMeasurement = 1;
},
{
angle = -59.004;
position = "{220, 380}";
showMeasurement = 1;
}
);
layerId = "D68179E8-F548-401F-8247-1E270525670B";
name = "Feb 19 17, 05:55";
paths = (
{
closed = 1;
nodes = (
"292 -8 OFFCURVE",
"332 -1 OFFCURVE",
"366 14 CURVE SMOOTH",
"545 94 OFFCURVE",
"550 420 OFFCURVE",
"366 505 CURVE SMOOTH",
"333 520 OFFCURVE",
"294 528 OFFCURVE",
"251 528 CURVE SMOOTH",
"213 528 OFFCURVE",
"176 522 OFFCURVE",
"144 508 CURVE SMOOTH",
"-40 428 OFFCURVE",
"-38 91 OFFCURVE",
"142 12 CURVE SMOOTH",
"174 -2 OFFCURVE",
"211 -8 OFFCURVE",
"250 -8 CURVE SMOOTH"
);
},
{
closed = 1;
nodes = (
"236 153 OFFCURVE",
"220 158 OFFCURVE",
"209 182 CURVE SMOOTH",
"192 220 OFFCURVE",
"191 300 OFFCURVE",
"210 339 CURVE SMOOTH",
"218 355 OFFCURVE",
"231 367 OFFCURVE",
"253 367 CURVE SMOOTH",
"268 367 OFFCURVE",
"281 361 OFFCURVE",
"292 339 CURVE SMOOTH",
"314 296 OFFCURVE",
"317 223 OFFCURVE",
"297 182 CURVE SMOOTH",
"288 163 OFFCURVE",
"274 153 OFFCURVE",
"252 153 CURVE SMOOTH"
);
}
);
width = 510;
},
{
anchors = (
{
name = top;
position = "{223, 532}";
}
);
associatedMasterId = "4E2227F3-52E4-4048-A8EE-327B486EF0A4";
guideLines = (
{
angle = 39.959;
position = "{289, 232}";
showMeasurement = 1;
},
{
angle = -39.959;
position = "{156, 232}";
showMeasurement = 1;
},
{
angle = 39.959;
position = "{289, 404}";
showMeasurement = 1;
},
{
angle = -180;
position = "{224, 260}";
showMeasurement = 1;
},
{
angle = -39.959;
position = "{155, 404}";
showMeasurement = 1;
}
);
layerId = "F7F399D2-DBAD-450E-B011-6AA073A84551";
name = "Feb 24 17, 00:19";
paths = (
{
closed = 1;
nodes = (
"359 -7 OFFCURVE",
"435 57 OFFCURVE",
"435 170 CURVE SMOOTH",
"435 193 OFFCURVE",
"435 237 OFFCURVE",
"435 260 CURVE SMOOTH",
"435 283 OFFCURVE",
"435 327 OFFCURVE",
"435 350 CURVE SMOOTH",
"435 456 OFFCURVE",
"359 532 OFFCURVE",
"223 532 CURVE SMOOTH",
"87 532 OFFCURVE",
"10 456 OFFCURVE",
"10 350 CURVE SMOOTH",
"10 327 OFFCURVE",
"10 283 OFFCURVE",
"10 260 CURVE SMOOTH",
"10 237 OFFCURVE",
"10 193 OFFCURVE",
"10 170 CURVE SMOOTH",
"10 57 OFFCURVE",
"87 -7 OFFCURVE",
"223 -7 CURVE SMOOTH"
);
},
{
closed = 1;
nodes = (
"215 154 OFFCURVE",
"207 158 OFFCURVE",
"204 164 CURVE SMOOTH",
"198 175 OFFCURVE",
"198 195 OFFCURVE",
"198 260 CURVE SMOOTH",
"198 332 OFFCURVE",
"197 348 OFFCURVE",
"204 360 CURVE SMOOTH",
"208 366 OFFCURVE",
"214 371 OFFCURVE",
"223 371 CURVE SMOOTH",
"231 371 OFFCURVE",
"238 366 OFFCURVE",
"241 360 CURVE SMOOTH",
"247 348 OFFCURVE",
"247 332 OFFCURVE",
"247 260 CURVE SMOOTH",
"247 196 OFFCURVE",
"247 176 OFFCURVE",
"241 164 CURVE SMOOTH",
"238 158 OFFCURVE",
"231 154 OFFCURVE",
"223 154 CURVE SMOOTH"
);
}
);
width = 445;
visible = 1;
}
);
leftKerningGroup = o;
rightKerningGroup = o;
unicode = 006F;
},
{
glyphname = thorn;
lastChange = "2017-02-24 09:01:13 +0000";
layers = (
{
components = (
{
name = b.bowl;
transform = "{1, 0, 0, 1, 83, 0}";
}
);
layerId = "262880E7-CFE1-4BDA-902E-E24798F3240A";
paths = (
{
closed = 1;
nodes = (
"80 -167 LINE",
"102 -167 LINE",
"102 725 LINE",
"80 725 LINE"
);
}
);
width = 495;
},
{
components = (
{
name = b.bowl;
transform = "{1, 0, 0, 1, 145, 0}";
}
);
layerId = "FFFA8D72-12AC-4CE0-B2CA-57A29829F4DA";
paths = (
{
closed = 1;
nodes = (
"16 -183 LINE",
"204 -183 LINE",
"204 733 LINE",
"16 733 LINE"
);
}
);
width = 519;
},
{
components = (
{
name = b.bowl;
transform = "{1, 0, 0, 1, 63, 0}";
}
);
layerId = "DCBE1F7B-116A-43E0-B7B4-8657BA77D8B5";
paths = (
{
closed = 1;
nodes = (
"56 -167 LINE",
"78 -167 LINE",
"78 725 LINE",
"56 725 LINE"
);
}
);
width = 372;
},
{
components = (
{
name = b.bowl;
transform = "{1, 0, 0, 1, 170, 0}";
}
);
layerId = "4E2227F3-52E4-4048-A8EE-327B486EF0A4";
paths = (
{
closed = 1;
nodes = (
"16 -183 LINE",
"204 -183 LINE",
"204 733 LINE",
"16 733 LINE"
);
}
);
width = 451;
}
);
leftMetricsKey = "=l";
rightMetricsKey = "=b";
unicode = 00FE;
},
{
color = 3;
glyphname = r;
lastChange = "2017-02-24 09:01:07 +0000";
layers = (
{
layerId = "262880E7-CFE1-4BDA-902E-E24798F3240A";
paths = (
{
closed = 1;
nodes = (
"102 331 LINE",
"102 419 OFFCURVE",
"160 479 OFFCURVE",
"243 479 CURVE SMOOTH",
"269 479 OFFCURVE",
"284 474 OFFCURVE",
"299 466 CURVE",
"310 489 LINE",
"293 498 OFFCURVE",
"275 504 OFFCURVE",
"244 504 CURVE SMOOTH",
"149 504 OFFCURVE",
"87 438 OFFCURVE",
"87 331 CURVE"
);
},
{
closed = 1;
nodes = (
"102 0 LINE",
"102 500 LINE",
"80 500 LINE",
"80 0 LINE"
);
}
);
width = 320;
},
{
layerId = "4E2227F3-52E4-4048-A8EE-327B486EF0A4";
paths = (
{
closed = 1;
nodes = (
"204 273 LINE",
"204 294 OFFCURVE",
"216 318 OFFCURVE",
"235 327 CURVE SMOOTH",
"259 338 OFFCURVE",
"298 333 OFFCURVE",
"308 325 CURVE",
"337 510 LINE",
"328 519 OFFCURVE",
"312 527 OFFCURVE",
"287 527 CURVE SMOOTH",
"170 527 OFFCURVE",
"176 352 OFFCURVE",
"176 273 CURVE"
);
},
{
closed = 1;
nodes = (
"204 1 LINE",
"204 520 LINE",
"16 520 LINE",
"16 1 LINE"
);
}
);
width = 339;
},
{
layerId = "FFFA8D72-12AC-4CE0-B2CA-57A29829F4DA";
paths = (
{
closed = 1;
nodes = (
"204 273 LINE",
"204 307 OFFCURVE",
"238 326 OFFCURVE",
"267 332 CURVE SMOOTH",
"300 339 OFFCURVE",
"334 332 OFFCURVE",
"342 325 CURVE",
"371 507 LINE",
"362 516 OFFCURVE",
"342 527 OFFCURVE",
"308 527 CURVE SMOOTH",
"190 527 OFFCURVE",
"156 394 OFFCURVE",
"156 273 CURVE"
);
},
{
closed = 1;
nodes = (
"204 1 LINE",
"204 520 LINE",
"16 520 LINE",
"16 1 LINE"
);
}
);
width = 373;
},
{
layerId = "DCBE1F7B-116A-43E0-B7B4-8657BA77D8B5";
paths = (
{
closed = 1;
nodes = (
"78 331 LINE",
"78 419 OFFCURVE",
"121 479 OFFCURVE",
"182 479 CURVE SMOOTH",
"203 479 OFFCURVE",
"214 474 OFFCURVE",
"225 466 CURVE",
"235 489 LINE",
"222 498 OFFCURVE",
"209 504 OFFCURVE",
"185 504 CURVE SMOOTH",
"112 504 OFFCURVE",
"65 438 OFFCURVE",
"65 331 CURVE"
);
},
{
closed = 1;
nodes = (
"78 0 LINE",
"78 500 LINE",
"56 500 LINE",
"56 0 LINE"
);
}
);
width = 242;
},
{
associatedMasterId = "4E2227F3-52E4-4048-A8EE-327B486EF0A4";
layerId = "0231DC7A-BAB0-489B-A1F9-3A50B9D86C74";
name = "{100,5}";
paths = (
{
closed = 1;
nodes = (
"141 304 LINE",
"141 360 OFFCURVE",
"176 402 OFFCURVE",
"224 408 CURVE SMOOTH",
"247 411 OFFCURVE",
"270 405 OFFCURVE",
"279 400 CURVE",
"312 499 LINE",
"299 508 OFFCURVE",
"283 515 OFFCURVE",
"250 515 CURVE SMOOTH",
"153 515 OFFCURVE",
"101 412 OFFCURVE",
"101 304 CURVE"
);
},
{
closed = 1;
nodes = (
"141 0 LINE",
"141 510 LINE",
"42 510 LINE",
"42 0 LINE"
);
}
);
width = 312;
}
);
leftKerningGroup = n;
rightKerningGroup = r;
unicode = 0072;
},
{
color = 3;
glyphname = s;
lastChange = "2017-02-24 09:01:07 +0000";
layers = (
{
anchors = (
{
name = top;
position = "{225, 504}";
}
);
layerId = "262880E7-CFE1-4BDA-902E-E24798F3240A";
paths = (
{
closed = 1;
nodes = (
"326 -4 OFFCURVE",
"390 53 OFFCURVE",
"390 130 CURVE SMOOTH",
"390 218 OFFCURVE",
"305 241 OFFCURVE",
"224 267 CURVE SMOOTH",
"149 291 OFFCURVE",
"84 313 OFFCURVE",
"84 379 CURVE SMOOTH",
"84 440 OFFCURVE",
"139 483 OFFCURVE",
"223 483 CURVE SMOOTH",
"310 483 OFFCURVE",
"366 437 OFFCURVE",
"366 369 CURVE SMOOTH",
"366 356 LINE",
"388 356 LINE",
"388 369 LINE SMOOTH",
"388 450 OFFCURVE",
"323 504 OFFCURVE",
"224 504 CURVE SMOOTH",
"128 504 OFFCURVE",
"62 454 OFFCURVE",
"62 378 CURVE SMOOTH",
"62 297 OFFCURVE",
"137 271 OFFCURVE",
"219 245 CURVE SMOOTH",
"294 221 OFFCURVE",
"368 202 OFFCURVE",
"368 129 CURVE SMOOTH",
"368 65 OFFCURVE",
"311 17 OFFCURVE",
"226 17 CURVE SMOOTH",
"139 17 OFFCURVE",
"82 67 OFFCURVE",
"82 132 CURVE SMOOTH",
"82 157 LINE",
"60 157 LINE",
"60 132 LINE SMOOTH",
"60 54 OFFCURVE",
"127 -4 OFFCURVE",
"227 -4 CURVE SMOOTH"
);
}
);
width = 430;
},
{
anchors = (
{
name = top;
position = "{215, 528}";
}
);
layerId = "4E2227F3-52E4-4048-A8EE-327B486EF0A4";
paths = (
{
closed = 1;
nodes = (
"346 -8 OFFCURVE",
"429 52 OFFCURVE",
"429 151 CURVE SMOOTH",
"429 253 OFFCURVE",
"340 285 OFFCURVE",
"269 306 CURVE SMOOTH",
"242 314 OFFCURVE",
"199 327 OFFCURVE",
"199 357 CURVE SMOOTH",
"199 368 OFFCURVE",
"205 383 OFFCURVE",
"220 383 CURVE SMOOTH",
"232 383 OFFCURVE",
"242 374 OFFCURVE",
"242 357 CURVE SMOOTH",
"242 346 LINE",
"417 346 LINE",
"417 346 LINE SMOOTH",
"417 455 OFFCURVE",
"338 528 OFFCURVE",
"215 528 CURVE SMOOTH",
"98 528 OFFCURVE",
"19 463 OFFCURVE",
"19 358 CURVE SMOOTH",
"19 258 OFFCURVE",
"91 215 OFFCURVE",
"147 197 CURVE SMOOTH",
"190 183 OFFCURVE",
"240 177 OFFCURVE",
"240 149 CURVE SMOOTH",
"240 138 OFFCURVE",
"233 130 OFFCURVE",
"221 130 CURVE SMOOTH",
"209 130 OFFCURVE",
"192 139 OFFCURVE",
"192 161 CURVE SMOOTH",
"192 162 LINE",
"12 162 LINE",
"12 156 LINE",
"12 58 OFFCURVE",
"95 -8 OFFCURVE",
"223 -8 CURVE SMOOTH"
);
}
);
width = 437;
},
{
anchors = (
{
name = top;
position = "{247, 528}";
}
);
layerId = "FFFA8D72-12AC-4CE0-B2CA-57A29829F4DA";
paths = (
{
closed = 1;
nodes = (
"397 -8 OFFCURVE",
"493 50 OFFCURVE",
"493 154 CURVE SMOOTH",
"493 220 OFFCURVE",
"454 264 OFFCURVE",
"382 289 CURVE SMOOTH",
"296 319 OFFCURVE",
"199 312 OFFCURVE",
"199 353 CURVE SMOOTH",
"199 373 OFFCURVE",
"222 383 OFFCURVE",
"251 383 CURVE SMOOTH",
"285 383 OFFCURVE",
"306 369 OFFCURVE",
"306 347 CURVE SMOOTH",
"306 346 LINE",
"481 346 LINE",
"481 347 LINE SMOOTH",
"481 456 OFFCURVE",
"389 528 OFFCURVE",
"247 528 CURVE SMOOTH",
"112 528 OFFCURVE",
"19 462 OFFCURVE",
"19 361 CURVE SMOOTH",
"19 297 OFFCURVE",
"57 252 OFFCURVE",
"105 226 CURVE SMOOTH",
"189 180 OFFCURVE",
"304 191 OFFCURVE",
"304 156 CURVE SMOOTH",
"304 142 OFFCURVE",
"285 130 OFFCURVE",
"253 130 CURVE SMOOTH",
"219 130 OFFCURVE",
"192 144 OFFCURVE",
"192 166 CURVE SMOOTH",
"192 167 LINE",
"12 167 LINE",
"12 153 LINE",
"12 56 OFFCURVE",
"106 -8 OFFCURVE",
"255 -8 CURVE SMOOTH"
);
}
);
width = 501;
},
{
anchors = (
{
name = top;
position = "{169, 504}";
}
);
layerId = "DCBE1F7B-116A-43E0-B7B4-8657BA77D8B5";
paths = (
{
closed = 1;
nodes = (
"248 -4 OFFCURVE",
"298 47 OFFCURVE",
"298 123 CURVE SMOOTH",
"298 212 OFFCURVE",
"232 238 OFFCURVE",
"170 264 CURVE SMOOTH",
"116 287 OFFCURVE",
"66 310 OFFCURVE",
"66 378 CURVE SMOOTH",
"66 441 OFFCURVE",
"107 483 OFFCURVE",
"169 483 CURVE SMOOTH",
"233 483 OFFCURVE",
"275 437 OFFCURVE",
"275 369 CURVE SMOOTH",
"275 344 LINE",
"296 344 LINE",
"296 369 LINE SMOOTH",
"296 450 OFFCURVE",
"247 504 OFFCURVE",
"170 504 CURVE SMOOTH",
"95 504 OFFCURVE",
"44 454 OFFCURVE",
"44 378 CURVE SMOOTH",
"44 294 OFFCURVE",
"103 268 OFFCURVE",
"164 243 CURVE SMOOTH",
"222 219 OFFCURVE",
"276 196 OFFCURVE",
"276 123 CURVE SMOOTH",
"276 59 OFFCURVE",
"235 17 OFFCURVE",
"172 17 CURVE SMOOTH",
"105 17 OFFCURVE",
"64 61 OFFCURVE",
"64 126 CURVE SMOOTH",
"64 157 LINE",
"42 157 LINE",
"42 126 LINE SMOOTH",
"42 48 OFFCURVE",
"94 -4 OFFCURVE",
"172 -4 CURVE SMOOTH"
);
}
);
width = 326;
},
{
anchors = (
{
name = top;
position = "{238, 515}";
}
);
associatedMasterId = "4E2227F3-52E4-4048-A8EE-327B486EF0A4";
layerId = "85F9CC44-E494-4B9A-8AA4-6569A0BE88A1";
name = "{100,5}";
paths = (
{
closed = 1;
nodes = (
"362 -6 OFFCURVE",
"441 51 OFFCURVE",
"441 143 CURVE SMOOTH",
"441 249 OFFCURVE",
"337 278 OFFCURVE",
"251 301 CURVE SMOOTH",
"188 318 OFFCURVE",
"141 333 OFFCURVE",
"141 375 CURVE SMOOTH",
"141 414 OFFCURVE",
"181 436 OFFCURVE",
"237 436 CURVE SMOOTH",
"303 436 OFFCURVE",
"341 405 OFFCURVE",
"341 359 CURVE SMOOTH",
"341 351 LINE",
"435 351 LINE",
"435 359 LINE SMOOTH",
"435 453 OFFCURVE",
"357 515 OFFCURVE",
"238 515 CURVE SMOOTH",
"124 515 OFFCURVE",
"45 459 OFFCURVE",
"45 367 CURVE SMOOTH",
"45 263 OFFCURVE",
"145 232 OFFCURVE",
"233 208 CURVE SMOOTH",
"293 191 OFFCURVE",
"341 178 OFFCURVE",
"341 136 CURVE SMOOTH",
"341 99 OFFCURVE",
"302 70 OFFCURVE",
"242 70 CURVE SMOOTH",
"180 70 OFFCURVE",
"137 103 OFFCURVE",
"137 148 CURVE SMOOTH",
"137 162 LINE",
"41 162 LINE",
"41 142 LINE SMOOTH",
"41 55 OFFCURVE",
"120 -6 OFFCURVE",
"243 -6 CURVE SMOOTH"
);
}
);
width = 468;
},
{
anchors = (
{
name = top;
position = "{181, 515}";
}
);
associatedMasterId = "4E2227F3-52E4-4048-A8EE-327B486EF0A4";
layerId = "785EF2C0-A975-4A92-811F-C78DC21C62C7";
name = "{100,3}";
paths = (
{
closed = 1;
nodes = (
"285 -6 OFFCURVE",
"349 49 OFFCURVE",
"349 136 CURVE SMOOTH",
"349 233 OFFCURVE",
"268 268 OFFCURVE",
"212 292 CURVE SMOOTH",
"162 314 OFFCURVE",
"118 330 OFFCURVE",
"118 373 CURVE SMOOTH",
"118 405 OFFCURVE",
"141 436 OFFCURVE",
"183 436 CURVE SMOOTH",
"222 436 OFFCURVE",
"249 408 OFFCURVE",
"249 363 CURVE SMOOTH",
"249 345 LINE",
"342 345 LINE",
"342 358 LINE SMOOTH",
"342 458 OFFCURVE",
"281 515 OFFCURVE",
"181 515 CURVE SMOOTH",
"85 515 OFFCURVE",
"22 462 OFFCURVE",
"22 370 CURVE SMOOTH",
"22 269 OFFCURVE",
"100 236 OFFCURVE",
"153 214 CURVE SMOOTH",
"201 194 OFFCURVE",
"249 177 OFFCURVE",
"249 131 CURVE SMOOTH",
"249 97 OFFCURVE",
"224 70 OFFCURVE",
"184 70 CURVE SMOOTH",
"143 70 OFFCURVE",
"113 97 OFFCURVE",
"113 142 CURVE SMOOTH",
"113 159 LINE",
"18 159 LINE",
"18 140 LINE",
"18 47 OFFCURVE",
"81 -6 OFFCURVE",
"182 -6 CURVE SMOOTH"
);
}
);
width = 367;
}
);
leftKerningGroup = s;
rightKerningGroup = s;
unicode = 0073;
},
{
color = 3;
glyphname = t;
lastChange = "2017-02-24 09:01:07 +0000";
layers = (
{
layerId = "262880E7-CFE1-4BDA-902E-E24798F3240A";
paths = (
{
closed = 1;
nodes = (
"253 0 LINE",
"253 21 LINE",
"224 21 LINE SMOOTH",
"153 21 OFFCURVE",
"116 43 OFFCURVE",
"116 123 CURVE SMOOTH",
"116 626 LINE",
"94 626 LINE",
"94 124 LINE SMOOTH",
"94 23 OFFCURVE",
"148 0 OFFCURVE",
"224 0 CURVE SMOOTH"
);
},
{
closed = 1;
nodes = (
"251 479 LINE",
"251 500 LINE",
"20 500 LINE",
"20 479 LINE"
);
}
);
width = 283;
},
{
layerId = "4E2227F3-52E4-4048-A8EE-327B486EF0A4";
paths = (
{
closed = 1;
nodes = (
"280 7 LINE",
"280 169 LINE",
"263 169 LINE",
"245 168 OFFCURVE",
"232 173 OFFCURVE",
"232 199 CURVE",
"232 650 LINE",
"52 650 LINE",
"52 116 LINE",
"52 17 OFFCURVE",
"119 -11 OFFCURVE",
"217 0 CURVE SMOOTH"
);
},
{
closed = 1;
nodes = (
"295 390 LINE",
"295 520 LINE",
"4 520 LINE",
"4 390 LINE"
);
}
);
width = 301;
},
{
layerId = "FFFA8D72-12AC-4CE0-B2CA-57A29829F4DA";
paths = (
{
closed = 1;
nodes = (
"346 5 LINE",
"346 162 LINE",
"294 164 LINE",
"267 165 OFFCURVE",
"258 185 OFFCURVE",
"258 214 CURVE",
"258 660 LINE",
"78 660 LINE",
"78 136 LINE",
"78 37 OFFCURVE",
"145 -2 OFFCURVE",
"243 0 CURVE"
);
},
{
closed = 1;
nodes = (
"361 370 LINE",
"361 520 LINE",
"4 520 LINE",
"4 370 LINE"
);
}
);
width = 367;
},
{
layerId = "DCBE1F7B-116A-43E0-B7B4-8657BA77D8B5";
paths = (
{
closed = 1;
nodes = (
"194 0 LINE",
"194 21 LINE",
"173 21 LINE SMOOTH",
"120 21 OFFCURVE",
"93 43 OFFCURVE",
"93 123 CURVE SMOOTH",
"93 626 LINE",
"70 626 LINE",
"70 124 LINE SMOOTH",
"70 23 OFFCURVE",
"111 0 OFFCURVE",
"171 0 CURVE SMOOTH"
);
},
{
closed = 1;
nodes = (
"194 479 LINE",
"194 500 LINE",
"14 500 LINE",
"14 479 LINE"
);
}
);
width = 215;
}
);
leftKerningGroup = t;
rightKerningGroup = t;
unicode = 0074;
},
{
glyphname = u;
lastChange = "2017-02-24 09:01:07 +0000";
layers = (
{
anchors = (
{
name = top;
position = "{239, 500}";
}
);
layerId = "262880E7-CFE1-4BDA-902E-E24798F3240A";
paths = (
{
closed = 1;
nodes = (
"336 -7 OFFCURVE",
"404 59 OFFCURVE",
"404 161 CURVE",
"386 161 LINE",
"386 74 OFFCURVE",
"327 14 OFFCURVE",
"236 14 CURVE SMOOTH",
"151 14 OFFCURVE",
"92 71 OFFCURVE",
"92 161 CURVE SMOOTH",
"92 500 LINE",
"70 500 LINE",
"70 158 LINE SMOOTH",
"70 57 OFFCURVE",
"137 -7 OFFCURVE",
"233 -7 CURVE SMOOTH"
);
},
{
closed = 1;
nodes = (
"408 0 LINE",
"408 500 LINE",
"386 500 LINE",
"386 0 LINE"
);
}
);
width = 488;
},
{
anchors = (
{
name = top;
position = "{223, 520}";
}
);
layerId = "4E2227F3-52E4-4048-A8EE-327B486EF0A4";
paths = (
{
closed = 1;
nodes = (
"210 -8 OFFCURVE",
"276 8 OFFCURVE",
"275 185 CURVE",
"246 185 LINE",
"246 164 OFFCURVE",
"238 153 OFFCURVE",
"223 153 CURVE SMOOTH",
"209 153 OFFCURVE",
"202 164 OFFCURVE",
"202 185 CURVE SMOOTH",
"202 520 LINE",
"14 520 LINE",
"14 144 LINE SMOOTH",
"14 31 OFFCURVE",
"84 -8 OFFCURVE",
"154 -8 CURVE SMOOTH"
);
},
{
closed = 1;
nodes = (
"434 0 LINE",
"434 520 LINE",
"246 520 LINE",
"246 0 LINE"
);
}
);
width = 450;
},
{
anchors = (
{
name = top;
position = "{258, 520}";
}
);
layerId = "FFFA8D72-12AC-4CE0-B2CA-57A29829F4DA";
paths = (
{
closed = 1;
nodes = (
"312 -8 OFFCURVE",
"369 63 OFFCURVE",
"369 220 CURVE",
"315 220 LINE",
"315 180 OFFCURVE",
"292 153 OFFCURVE",
"258 153 CURVE SMOOTH",
"212 153 OFFCURVE",
"202 181 OFFCURVE",
"202 221 CURVE SMOOTH",
"202 520 LINE",
"14 520 LINE",
"14 158 LINE SMOOTH",
"14 31 OFFCURVE",
"112 -8 OFFCURVE",
"184 -8 CURVE SMOOTH"
);
},
{
closed = 1;
nodes = (
"503 0 LINE",
"503 520 LINE",
"315 520 LINE",
"315 0 LINE"
);
}
);
width = 519;
},
{
anchors = (
{
name = top;
position = "{179, 500}";
}
);
layerId = "DCBE1F7B-116A-43E0-B7B4-8657BA77D8B5";
paths = (
{
closed = 1;
nodes = (
"252 -7 OFFCURVE",
"304 52 OFFCURVE",
"304 154 CURVE",
"288 154 LINE",
"288 67 OFFCURVE",
"245 14 OFFCURVE",
"177 14 CURVE SMOOTH",
"110 14 OFFCURVE",
"71 57 OFFCURVE",
"71 143 CURVE SMOOTH",
"71 500 LINE",
"49 500 LINE",
"49 138 LINE SMOOTH",
"49 41 OFFCURVE",
"95 -7 OFFCURVE",
"174 -7 CURVE SMOOTH"
);
},
{
closed = 1;
nodes = (
"310 0 LINE",
"310 500 LINE",
"288 500 LINE",
"288 0 LINE"
);
}
);
width = 366;
}
);
leftKerningGroup = u;
unicode = 0075;
},
{
glyphname = v;
lastChange = "2017-02-24 09:01:07 +0000";
layers = (
{
layerId = "262880E7-CFE1-4BDA-902E-E24798F3240A";
paths = (
{
closed = 1;
nodes = (
"224 0 LINE",
"395 500 LINE",
"370 500 LINE",
"213 33 LINE",
"55 500 LINE",
"30 500 LINE",
"202 0 LINE"
);
}
);
width = 435;
},
{
layerId = "4E2227F3-52E4-4048-A8EE-327B486EF0A4";
paths = (
{
closed = 1;
nodes = (
"339 -2 LINE",
"464 518 LINE",
"260 520 LINE",
"235 256 LINE",
"210 520 LINE",
"6 520 LINE",
"131 0 LINE"
);
}
);
width = 472;
},
{
layerId = "FFFA8D72-12AC-4CE0-B2CA-57A29829F4DA";
paths = (
{
closed = 1;
nodes = (
"373 -2 LINE",
"532 518 LINE",
"328 520 LINE",
"269 245 LINE",
"210 520 LINE",
"6 520 LINE",
"166 0 LINE"
);
}
);
width = 540;
},
{
layerId = "DCBE1F7B-116A-43E0-B7B4-8657BA77D8B5";
paths = (
{
closed = 1;
nodes = (
"175 0 LINE",
"304 500 LINE",
"279 500 LINE",
"163 33 LINE",
"46 500 LINE",
"21 500 LINE",
"152 0 LINE"
);
}
);
width = 332;
}
);
leftKerningGroup = v;
rightKerningGroup = v;
unicode = 0076;
},
{
glyphname = w;
lastChange = "2017-02-24 09:01:07 +0000";
layers = (
{
layerId = "262880E7-CFE1-4BDA-902E-E24798F3240A";
paths = (
{
closed = 1;
nodes = (
"194 0 LINE",
"326 461 LINE",
"458 0 LINE",
"480 0 LINE",
"624 500 LINE",
"602 500 LINE",
"469 27 LINE",
"337 500 LINE",
"315 500 LINE",
"183 27 LINE",
"52 500 LINE",
"30 500 LINE",
"172 0 LINE"
);
}
);
width = 664;
},
{
layerId = "4E2227F3-52E4-4048-A8EE-327B486EF0A4";
paths = (
{
closed = 1;
nodes = (
"294 -2 LINE",
"321 211 LINE",
"350 0 LINE",
"531 -2 LINE",
"643 518 LINE",
"465 520 LINE",
"438 256 LINE",
"404 520 LINE",
"243 520 LINE",
"215 256 LINE",
"187 520 LINE",
"6 520 LINE",
"120 0 LINE"
);
}
);
width = 651;
},
{
associatedMasterId = "4E2227F3-52E4-4048-A8EE-327B486EF0A4";
layerId = "6BA1A2A9-BE91-41BC-8363-5886C86B1880";
name = "{100,100}";
paths = (
{
closed = 1;
nodes = (
"242 -1 LINE",
"314 361 LINE",
"392 0 LINE",
"487 -1 LINE",
"614 508 LINE",
"510 509 LINE",
"440 150 LINE",
"360 509 LINE",
"261 509 LINE",
"192 150 LINE",
"119 509 LINE",
"16 509 LINE",
"142 0 LINE"
);
}
);
width = 634;
},
{
associatedMasterId = "262880E7-CFE1-4BDA-902E-E24798F3240A";
layerId = "0E71CFCD-0B5B-44D0-B25D-1766045E780E";
name = "{100,100}";
paths = (
{
closed = 1;
nodes = (
"242 -1 LINE",
"314 361 LINE",
"392 0 LINE",
"487 -1 LINE",
"614 508 LINE",
"510 509 LINE",
"440 150 LINE",
"360 509 LINE",
"261 509 LINE",
"192 150 LINE",
"119 509 LINE",
"16 509 LINE",
"142 0 LINE"
);
}
);
width = 634;
},
{
associatedMasterId = "FFFA8D72-12AC-4CE0-B2CA-57A29829F4DA";
layerId = "663890CE-879E-4110-A274-BE1D7F03E044";
name = "{100,100}";
paths = (
{
closed = 1;
nodes = (
"242 -1 LINE",
"314 361 LINE",
"392 0 LINE",
"487 -1 LINE",
"614 508 LINE",
"510 509 LINE",
"440 150 LINE",
"360 509 LINE",
"261 509 LINE",
"192 150 LINE",
"119 509 LINE",
"16 509 LINE",
"142 0 LINE"
);
}
);
width = 634;
},
{
layerId = "FFFA8D72-12AC-4CE0-B2CA-57A29829F4DA";
paths = (
{
closed = 1;
nodes = (
"345 -2 LINE",
"383 213 LINE",
"436 0 LINE",
"625 -2 LINE",
"766 518 LINE",
"580 520 LINE",
"524 251 LINE",
"465 520 LINE",
"294 520 LINE",
"247 251 LINE",
"194 520 LINE",
"6 520 LINE",
"149 0 LINE"
);
}
);
width = 774;
},
{
layerId = "DCBE1F7B-116A-43E0-B7B4-8657BA77D8B5";
paths = (
{
closed = 1;
nodes = (
"152 0 LINE",
"248 461 LINE",
"346 0 LINE",
"368 0 LINE",
"478 500 LINE",
"456 500 LINE",
"357 27 LINE",
"259 500 LINE",
"237 500 LINE",
"140 27 LINE",
"43 500 LINE",
"21 500 LINE",
"129 0 LINE"
);
}
);
width = 506;
}
);
leftKerningGroup = v;
rightKerningGroup = v;
unicode = 0077;
},
{
glyphname = x;
lastChange = "2017-02-24 09:01:07 +0000";
layers = (
{
layerId = "262880E7-CFE1-4BDA-902E-E24798F3240A";
paths = (
{
closed = 1;
nodes = (
"55 0 LINE",
"217 233 LINE",
"378 0 LINE",
"404 0 LINE",
"228 250 LINE",
"404 500 LINE",
"378 500 LINE",
"217 267 LINE",
"55 500 LINE",
"30 500 LINE",
"206 250 LINE",
"30 0 LINE"
);
}
);
width = 444;
},
{
layerId = "4E2227F3-52E4-4048-A8EE-327B486EF0A4";
paths = (
{
closed = 1;
nodes = (
"200 0 LINE",
"231 105 LINE",
"262 0 LINE",
"456 0 LINE",
"326 260 LINE",
"456 520 LINE",
"262 520 LINE",
"231 420 LINE",
"200 520 LINE",
"6 520 LINE",
"136 260 LINE",
"6 0 LINE"
);
}
);
width = 464;
},
{
layerId = "FFFA8D72-12AC-4CE0-B2CA-57A29829F4DA";
paths = (
{
closed = 1;
nodes = (
"210 0 LINE",
"276 115 LINE",
"342 0 LINE",
"546 0 LINE",
"381 260 LINE",
"546 520 LINE",
"342 520 LINE",
"276 410 LINE",
"210 520 LINE",
"6 520 LINE",
"171 260 LINE",
"6 0 LINE"
);
}
);
width = 554;
},
{
layerId = "DCBE1F7B-116A-43E0-B7B4-8657BA77D8B5";
paths = (
{
closed = 1;
nodes = (
"46 0 LINE",
"166 233 LINE",
"286 0 LINE",
"310 0 LINE",
"177 250 LINE",
"310 500 LINE",
"286 500 LINE",
"166 267 LINE",
"46 500 LINE",
"21 500 LINE",
"155 250 LINE",
"21 0 LINE"
);
}
);
width = 338;
}
);
leftKerningGroup = x;
unicode = 0078;
},
{
glyphname = y;
lastChange = "2017-02-24 09:15:10 +0000";
layers = (
{
anchors = (
{
name = top;
position = "{215, 500}";
}
);
layerId = "262880E7-CFE1-4BDA-902E-E24798F3240A";
paths = (
{
closed = 1;
nodes = (
"72 -200 LINE",
"137 -200 OFFCURVE",
"163 -185 OFFCURVE",
"205 -62 CURVE SMOOTH",
"399 500 LINE",
"377 500 LINE",
"216 27 LINE",
"52 500 LINE",
"30 500 LINE",
"205 0 LINE",
"158 -147 OFFCURVE",
"145 -178 OFFCURVE",
"72 -179 CURVE",
"58 -179 LINE",
"58 -200 LINE"
);
}
);
width = 439;
},
{
anchors = (
{
name = top;
position = "{229, 520}";
}
);
layerId = "4E2227F3-52E4-4048-A8EE-327B486EF0A4";
paths = (
{
closed = 1;
nodes = (
"40 -199 LINE",
"247 -199 OFFCURVE",
"284 -140 OFFCURVE",
"323 -2 CURVE",
"453 518 LINE",
"251 520 LINE",
"230 252 LINE",
"207 520 LINE",
"6 520 LINE",
"135 0 LINE",
"143 -40 OFFCURVE",
"105 -45 OFFCURVE",
"37 -45 CURVE",
"28 -45 LINE",
"28 -199 LINE"
);
}
);
width = 461;
},
{
anchors = (
{
name = top;
position = "{263, 533}";
}
);
layerId = "FFFA8D72-12AC-4CE0-B2CA-57A29829F4DA";
paths = (
{
closed = 1;
nodes = (
"48 -199 LINE",
"264 -199 OFFCURVE",
"306 -140 OFFCURVE",
"353 -2 CURVE",
"522 520 LINE",
"321 520 LINE",
"265 252 LINE",
"206 520 LINE",
"6 520 LINE",
"170 0 LINE",
"167 -40 OFFCURVE",
"128 -45 OFFCURVE",
"45 -45 CURVE",
"34 -45 LINE",
"34 -199 LINE"
);
}
);
width = 530;
},
{
anchors = (
{
name = top;
position = "{165, 500}";
}
);
layerId = "DCBE1F7B-116A-43E0-B7B4-8657BA77D8B5";
paths = (
{
closed = 1;
nodes = (
"53 -200 LINE",
"107 -200 OFFCURVE",
"128 -185 OFFCURVE",
"161 -62 CURVE SMOOTH",
"308 500 LINE",
"285 500 LINE",
"165 27 LINE",
"44 500 LINE",
"21 500 LINE",
"154 0 LINE",
"119 -147 OFFCURVE",
"109 -178 OFFCURVE",
"53 -179 CURVE",
"42 -179 LINE",
"42 -200 LINE"
);
}
);
width = 336;
}
);
leftKerningGroup = v;
rightKerningGroup = v;
unicode = 0079;
},
{
glyphname = z;
lastChange = "2017-02-24 09:01:07 +0000";
layers = (
{
anchors = (
{
name = top;
position = "{212, 509}";
}
);
layerId = "262880E7-CFE1-4BDA-902E-E24798F3240A";
paths = (
{
closed = 1;
nodes = (
"385 0 LINE",
"385 21 LINE",
"64 21 LINE",
"388 479 LINE",
"388 500 LINE",
"43 500 LINE",
"43 479 LINE",
"364 479 LINE",
"40 21 LINE",
"40 0 LINE"
);
}
);
width = 428;
},
{
anchors = (
{
name = top;
position = "{189, 533}";
}
);
layerId = "4E2227F3-52E4-4048-A8EE-327B486EF0A4";
paths = (
{
closed = 1;
nodes = (
"373 0 LINE",
"373 170 LINE",
"222 170 LINE",
"364 350 LINE",
"364 520 LINE",
"15 520 LINE",
"15 350 LINE",
"140 350 LINE",
"8 170 LINE",
"8 0 LINE"
);
}
);
width = 381;
},
{
anchors = (
{
name = top;
position = "{222, 533}";
}
);
layerId = "FFFA8D72-12AC-4CE0-B2CA-57A29829F4DA";
paths = (
{
closed = 1;
nodes = (
"439 0 LINE",
"439 170 LINE",
"222 170 LINE",
"431 350 LINE",
"431 520 LINE",
"15 520 LINE",
"15 350 LINE",
"208 350 LINE",
"8 170 LINE",
"8 0 LINE"
);
}
);
width = 447;
},
{
anchors = (
{
name = top;
position = "{165, 509}";
}
);
layerId = "DCBE1F7B-116A-43E0-B7B4-8657BA77D8B5";
paths = (
{
closed = 1;
nodes = (
"294 0 LINE",
"294 21 LINE",
"53 21 LINE",
"296 479 LINE",
"296 500 LINE",
"30 500 LINE",
"30 479 LINE",
"271 479 LINE",
"28 21 LINE",
"28 0 LINE"
);
}
);
width = 324;
}
);
leftKerningGroup = z;
unicode = 007A;
},
{
glyphname = a.alt;
lastChange = "2017-01-20 08:41:53 +0000";
layers = (
{
components = (
{
name = b.bowl;
transform = "{-1, 0, 0, 1, 415, 0}";
}
);
layerId = "262880E7-CFE1-4BDA-902E-E24798F3240A";
paths = (
{
closed = 1;
nodes = (
"418 0 LINE",
"418 500 LINE",
"396 500 LINE",
"396 0 LINE"
);
}
);
width = 455;
},
{
components = (
{
name = b.bowl;
transform = "{-1, 0, 0, 1, 281, 0}";
}
);
layerId = "4E2227F3-52E4-4048-A8EE-327B486EF0A4";
paths = (
{
closed = 1;
nodes = (
"433 0 LINE",
"433 520 LINE",
"245 520 LINE",
"245 0 LINE"
);
}
);
width = 449;
},
{
components = (
{
name = b.bowl;
transform = "{-1, 0, 0, 1, 365, 0}";
}
);
layerId = "FFFA8D72-12AC-4CE0-B2CA-57A29829F4DA";
paths = (
{
closed = 1;
nodes = (
"514 0 LINE",
"514 520 LINE",
"326 520 LINE",
"326 0 LINE"
);
}
);
width = 449;
},
{
components = (
{
name = b.bowl;
transform = "{-1, 0, 0, 1, 315, 0}";
}
);
layerId = "DCBE1F7B-116A-43E0-B7B4-8657BA77D8B5";
paths = (
{
closed = 1;
nodes = (
"321 0 LINE",
"321 500 LINE",
"299 500 LINE",
"299 0 LINE"
);
}
);
width = 455;
}
);
leftKerningGroup = a;
rightKerningGroup = a;
},
{
color = 3;
export = 0;
glyphname = b.bowl;
lastChange = "2017-02-24 09:35:43 +0000";
layers = (
{
guideLines = (
{
angle = -180;
position = "{169, 250}";
showMeasurement = 1;
}
);
layerId = "262880E7-CFE1-4BDA-902E-E24798F3240A";
paths = (
{
closed = 1;
nodes = (
"255 -8 OFFCURVE",
"319 46 OFFCURVE",
"336 123 CURVE SMOOTH",
"343 155 OFFCURVE",
"342 191 OFFCURVE",
"342 250 CURVE SMOOTH",
"342 305 OFFCURVE",
"343 344 OFFCURVE",
"336 377 CURVE SMOOTH",
"320 454 OFFCURVE",
"255 508 OFFCURVE",
"167 508 CURVE SMOOTH",
"79 508 OFFCURVE",
"23 454 OFFCURVE",
"6 377 CURVE SMOOTH",
"-1 345 OFFCURVE",
"0 310 OFFCURVE",
"0 251 CURVE",
"0 195 OFFCURVE",
"-1 156 OFFCURVE",
"6 123 CURVE SMOOTH",
"22 46 OFFCURVE",
"79 -8 OFFCURVE",
"167 -8 CURVE SMOOTH"
);
},
{
closed = 1;
nodes = (
"87 13 OFFCURVE",
"37 63 OFFCURVE",
"23 135 CURVE SMOOTH",
"19 156 OFFCURVE",
"19 193 OFFCURVE",
"19 250 CURVE SMOOTH",
"19 302 OFFCURVE",
"19 343 OFFCURVE",
"23 365 CURVE SMOOTH",
"36 436 OFFCURVE",
"87 487 OFFCURVE",
"167 487 CURVE SMOOTH",
"247 487 OFFCURVE",
"302 436 OFFCURVE",
"316 365 CURVE SMOOTH",
"320 344 OFFCURVE",
"320 307 OFFCURVE",
"320 250 CURVE SMOOTH",
"320 198 OFFCURVE",
"320 157 OFFCURVE",
"316 135 CURVE SMOOTH",
"303 64 OFFCURVE",
"247 13 OFFCURVE",
"167 13 CURVE SMOOTH"
);
}
);
width = 342;
},
{
guideLines = (
{
position = "{281, 170}";
},
{
position = "{280, 350}";
},
{
position = "{282, 260}";
}
);
layerId = "4E2227F3-52E4-4048-A8EE-327B486EF0A4";
paths = (
{
closed = 1;
nodes = (
"235 -8 OFFCURVE",
"266 53 OFFCURVE",
"267 170 CURVE SMOOTH",
"267 166 OFFCURVE",
"267 235 OFFCURVE",
"267 260 CURVE",
"267 284 OFFCURVE",
"267 350 OFFCURVE",
"267 350 CURVE SMOOTH",
"266 466 OFFCURVE",
"235 528 OFFCURVE",
"126 528 CURVE SMOOTH",
"93 528 OFFCURVE",
"9 514 OFFCURVE",
"1 350 CURVE SMOOTH",
"0 345 OFFCURVE",
"0 313 OFFCURVE",
"0 260 CURVE",
"0 241 OFFCURVE",
"0 175 OFFCURVE",
"0 170 CURVE SMOOTH",
"5 6 OFFCURVE",
"93 -8 OFFCURVE",
"126 -8 CURVE SMOOTH"
);
},
{
closed = 1;
nodes = (
"51 154 OFFCURVE",
"43 158 OFFCURVE",
"40 164 CURVE SMOOTH",
"35 175 OFFCURVE",
"34 195 OFFCURVE",
"34 260 CURVE SMOOTH",
"34 328 OFFCURVE",
"32 344 OFFCURVE",
"40 356 CURVE SMOOTH",
"44 362 OFFCURVE",
"50 367 OFFCURVE",
"58 367 CURVE SMOOTH",
"65 367 OFFCURVE",
"71 362 OFFCURVE",
"73 356 CURVE SMOOTH",
"77 343 OFFCURVE",
"79 328 OFFCURVE",
"79 260 CURVE SMOOTH",
"79 196 OFFCURVE",
"79 176 OFFCURVE",
"73 164 CURVE SMOOTH",
"70 158 OFFCURVE",
"65 154 OFFCURVE",
"58 154 CURVE SMOOTH"
);
}
);
width = 267;
},
{
guideLines = (
{
position = "{260, 381}";
},
{
position = "{260, 186}";
}
);
layerId = "FFFA8D72-12AC-4CE0-B2CA-57A29829F4DA";
paths = (
{
closed = 1;
nodes = (
"281 -8 OFFCURVE",
"337 75 OFFCURVE",
"354 186 CURVE SMOOTH",
"358 210 OFFCURVE",
"360 236 OFFCURVE",
"360 262 CURVE SMOOTH",
"360 305 OFFCURVE",
"355 345 OFFCURVE",
"345 381 CURVE SMOOTH",
"321 468 OFFCURVE",
"267 528 OFFCURVE",
"174 528 CURVE SMOOTH",
"78 528 OFFCURVE",
"31 464 OFFCURVE",
"11 381 CURVE SMOOTH",
"2 344 OFFCURVE",
"-1 304 OFFCURVE",
"-1 264 CURVE SMOOTH",
"-1 238 OFFCURVE",
"0 212 OFFCURVE",
"4 186 CURVE SMOOTH",
"17 84 OFFCURVE",
"62 -8 OFFCURVE",
"174 -8 CURVE SMOOTH"
);
},
{
closed = 1;
nodes = (
"93 154 OFFCURVE",
"78 166 OFFCURVE",
"70 186 CURVE SMOOTH",
"62 206 OFFCURVE",
"59 233 OFFCURVE",
"59 263 CURVE SMOOTH",
"59 302 OFFCURVE",
"61 320 OFFCURVE",
"70 340 CURVE SMOOTH",
"79 359 OFFCURVE",
"93 371 OFFCURVE",
"116 371 CURVE SMOOTH",
"138 371 OFFCURVE",
"152 359 OFFCURVE",
"161 340 CURVE SMOOTH",
"170 321 OFFCURVE",
"172 294 OFFCURVE",
"172 263 CURVE SMOOTH",
"172 233 OFFCURVE",
"169 206 OFFCURVE",
"161 186 CURVE SMOOTH",
"153 166 OFFCURVE",
"138 154 OFFCURVE",
"116 154 CURVE SMOOTH"
);
}
);
width = 360;
},
{
layerId = "DCBE1F7B-116A-43E0-B7B4-8657BA77D8B5";
paths = (
{
closed = 1;
nodes = (
"205 -8 OFFCURVE",
"260 52 OFFCURVE",
"260 135 CURVE SMOOTH",
"260 173 OFFCURVE",
"260 212 OFFCURVE",
"260 250 CURVE SMOOTH",
"260 288 OFFCURVE",
"260 327 OFFCURVE",
"260 365 CURVE SMOOTH",
"260 448 OFFCURVE",
"205 508 OFFCURVE",
"125 508 CURVE SMOOTH",
"48 508 OFFCURVE",
"-1 448 OFFCURVE",
"-1 365 CURVE SMOOTH",
"-1 327 OFFCURVE",
"-1 288 OFFCURVE",
"-1 250 CURVE SMOOTH",
"-1 212 OFFCURVE",
"-1 173 OFFCURVE",
"-1 135 CURVE SMOOTH",
"-1 52 OFFCURVE",
"48 -8 OFFCURVE",
"125 -8 CURVE SMOOTH"
);
},
{
closed = 1;
nodes = (
"61 13 OFFCURVE",
"15 63 OFFCURVE",
"15 135 CURVE SMOOTH",
"15 173 OFFCURVE",
"15 212 OFFCURVE",
"15 250 CURVE SMOOTH",
"15 288 OFFCURVE",
"15 327 OFFCURVE",
"15 365 CURVE SMOOTH",
"15 437 OFFCURVE",
"61 487 OFFCURVE",
"125 487 CURVE SMOOTH",
"192 487 OFFCURVE",
"238 437 OFFCURVE",
"238 365 CURVE SMOOTH",
"238 327 OFFCURVE",
"238 288 OFFCURVE",
"238 250 CURVE SMOOTH",
"238 212 OFFCURVE",
"238 173 OFFCURVE",
"238 135 CURVE SMOOTH",
"238 63 OFFCURVE",
"192 13 OFFCURVE",
"125 13 CURVE SMOOTH"
);
}
);
width = 260;
},
{
associatedMasterId = "262880E7-CFE1-4BDA-902E-E24798F3240A";
layerId = "EF0B346D-A35B-4C08-8775-C9E571173218";
name = "Feb 24 17, 00:34";
paths = (
{
closed = 1;
nodes = (
"273 -8 OFFCURVE",
"342 59 OFFCURVE",
"342 175 CURVE SMOOTH",
"342 325 LINE",
"342 441 OFFCURVE",
"274 508 OFFCURVE",
"172 508 CURVE SMOOTH",
"69 508 OFFCURVE",
"0 441 OFFCURVE",
"0 325 CURVE SMOOTH",
"0 175 LINE SMOOTH",
"0 59 OFFCURVE",
"68 -8 OFFCURVE",
"170 -8 CURVE SMOOTH"
);
},
{
closed = 1;
nodes = (
"79 13 OFFCURVE",
"19 71 OFFCURVE",
"19 172 CURVE SMOOTH",
"19 328 LINE SMOOTH",
"19 429 OFFCURVE",
"79 487 OFFCURVE",
"170 487 CURVE SMOOTH",
"260 487 OFFCURVE",
"320 429 OFFCURVE",
"320 328 CURVE SMOOTH",
"320 172 LINE SMOOTH",
"320 71 OFFCURVE",
"260 13 OFFCURVE",
"170 13 CURVE SMOOTH"
);
}
);
width = 342;
},
{
associatedMasterId = "DCBE1F7B-116A-43E0-B7B4-8657BA77D8B5";
layerId = "7BEC62DC-3AAA-4112-B1FE-3AFCEC97F3F2";
name = "Feb 24 17, 00:37";
paths = (
{
closed = 1;
nodes = (
"207 -8 OFFCURVE",
"260 50 OFFCURVE",
"260 138 CURVE SMOOTH",
"260 362 LINE SMOOTH",
"260 450 OFFCURVE",
"208 508 OFFCURVE",
"130 508 CURVE SMOOTH",
"51 508 OFFCURVE",
"-2 450 OFFCURVE",
"-2 362 CURVE SMOOTH",
"-2 138 LINE SMOOTH",
"-2 50 OFFCURVE",
"50 -8 OFFCURVE",
"128 -8 CURVE SMOOTH"
);
},
{
closed = 1;
nodes = (
"60 13 OFFCURVE",
"15 62 OFFCURVE",
"15 135 CURVE SMOOTH",
"15 365 LINE SMOOTH",
"15 438 OFFCURVE",
"60 487 OFFCURVE",
"127 487 CURVE SMOOTH",
"194 487 OFFCURVE",
"238 438 OFFCURVE",
"238 365 CURVE SMOOTH",
"238 135 LINE SMOOTH",
"238 62 OFFCURVE",
"194 13 OFFCURVE",
"127 13 CURVE SMOOTH"
);
}
);
width = 260;
},
{
associatedMasterId = "FFFA8D72-12AC-4CE0-B2CA-57A29829F4DA";
layerId = "6F2127BE-25A5-48B6-8653-0DC69C1489C9";
name = "Feb 24 17, 00:39";
paths = (
{
closed = 1;
nodes = (
"284 -8 OFFCURVE",
"360 74 OFFCURVE",
"360 232 CURVE SMOOTH",
"360 288 LINE SMOOTH",
"360 445 OFFCURVE",
"284 528 OFFCURVE",
"176 528 CURVE SMOOTH",
"52 528 OFFCURVE",
"0 420 OFFCURVE",
"0 280 CURVE SMOOTH",
"0 240 LINE SMOOTH",
"0 136 OFFCURVE",
"32 -8 OFFCURVE",
"176 -8 CURVE SMOOTH"
);
},
{
closed = 1;
nodes = (
"82 153 OFFCURVE",
"59 182 OFFCURVE",
"59 225 CURVE SMOOTH",
"59 295 LINE SMOOTH",
"59 338 OFFCURVE",
"82 367 OFFCURVE",
"116 367 CURVE SMOOTH",
"150 367 OFFCURVE",
"172 338 OFFCURVE",
"172 295 CURVE SMOOTH",
"172 225 LINE SMOOTH",
"172 182 OFFCURVE",
"150 153 OFFCURVE",
"116 153 CURVE SMOOTH"
);
}
);
width = 360;
},
{
associatedMasterId = "DCBE1F7B-116A-43E0-B7B4-8657BA77D8B5";
layerId = "5C941D39-E37C-46A0-BD59-94FD02728DC9";
name = "Feb 24 17, 00:48";
paths = (
{
closed = 1;
nodes = (
"207 -8 OFFCURVE",
"260 50 OFFCURVE",
"260 138 CURVE SMOOTH",
"260 362 LINE SMOOTH",
"260 450 OFFCURVE",
"208 508 OFFCURVE",
"130 508 CURVE SMOOTH",
"51 508 OFFCURVE",
"-2 450 OFFCURVE",
"-2 362 CURVE SMOOTH",
"-2 138 LINE SMOOTH",
"-2 50 OFFCURVE",
"50 -8 OFFCURVE",
"128 -8 CURVE SMOOTH"
);
},
{
closed = 1;
nodes = (
"60 13 OFFCURVE",
"15 62 OFFCURVE",
"15 135 CURVE SMOOTH",
"15 365 LINE SMOOTH",
"15 438 OFFCURVE",
"60 487 OFFCURVE",
"127 487 CURVE SMOOTH",
"194 487 OFFCURVE",
"238 438 OFFCURVE",
"238 365 CURVE SMOOTH",
"238 135 LINE SMOOTH",
"238 62 OFFCURVE",
"194 13 OFFCURVE",
"127 13 CURVE SMOOTH"
);
}
);
width = 260;
},
{
associatedMasterId = "4E2227F3-52E4-4048-A8EE-327B486EF0A4";
guideLines = (
{
position = "{281, 170}";
},
{
position = "{280, 350}";
},
{
position = "{282, 260}";
}
);
layerId = "026E7C50-79C7-4B42-8D09-400077B72FBA";
name = "Feb 24 17, 00:50";
paths = (
{
closed = 1;
nodes = (
"237 -8 OFFCURVE",
"267 56 OFFCURVE",
"267 177 CURVE SMOOTH",
"267 343 LINE SMOOTH",
"267 464 OFFCURVE",
"237 528 OFFCURVE",
"126 528 CURVE SMOOTH",
"91 528 OFFCURVE",
"0 513 OFFCURVE",
"0 323 CURVE SMOOTH",
"0 197 LINE",
"-4 7 OFFCURVE",
"91 -8 OFFCURVE",
"126 -8 CURVE SMOOTH"
);
},
{
closed = 1;
nodes = (
"42 153 OFFCURVE",
"34 164 OFFCURVE",
"34 186 CURVE SMOOTH",
"34 334 LINE SMOOTH",
"34 356 OFFCURVE",
"42 367 OFFCURVE",
"56 367 CURVE SMOOTH",
"71 367 OFFCURVE",
"79 356 OFFCURVE",
"79 334 CURVE SMOOTH",
"79 186 LINE SMOOTH",
"79 164 OFFCURVE",
"71 153 OFFCURVE",
"56 153 CURVE SMOOTH"
);
}
);
width = 267;
visible = 1;
},
{
associatedMasterId = "262880E7-CFE1-4BDA-902E-E24798F3240A";
layerId = "8878FB41-AE14-4FCC-8DF6-D93B06A89EE4";
name = "100,5} Feb 24 17, 00:53";
paths = (
{
closed = 1;
nodes = (
"269 -8 OFFCURVE",
"350 64 OFFCURVE",
"350 172 CURVE SMOOTH",
"350 338 LINE SMOOTH",
"350 445 OFFCURVE",
"271 517 OFFCURVE",
"164 517 CURVE SMOOTH",
"50 517 OFFCURVE",
"-17 435 OFFCURVE",
"-17 313 CURVE SMOOTH",
"-17 196 LINE SMOOTH",
"-17 74 OFFCURVE",
"49 -8 OFFCURVE",
"163 -8 CURVE SMOOTH"
);
},
{
closed = 1;
nodes = (
"81 78 OFFCURVE",
"38 120 OFFCURVE",
"38 183 CURVE SMOOTH",
"38 326 LINE SMOOTH",
"38 389 OFFCURVE",
"81 431 OFFCURVE",
"145 431 CURVE SMOOTH",
"209 431 OFFCURVE",
"251 389 OFFCURVE",
"251 326 CURVE SMOOTH",
"251 183 LINE SMOOTH",
"251 120 OFFCURVE",
"209 78 OFFCURVE",
"145 78 CURVE SMOOTH"
);
}
);
width = 350;
},
{
associatedMasterId = "262880E7-CFE1-4BDA-902E-E24798F3240A";
layerId = "FCCE69FF-4708-434F-BC2F-E261B33603AA";
name = "100,3} Feb 24 17, 00:53";
paths = (
{
closed = 1;
nodes = (
"208 -8 OFFCURVE",
"263 52 OFFCURVE",
"263 156 CURVE SMOOTH",
"263 353 LINE SMOOTH",
"263 457 OFFCURVE",
"209 517 OFFCURVE",
"125 517 CURVE SMOOTH",
"60 517 OFFCURVE",
"-1 482 OFFCURVE",
"-1 344 CURVE SMOOTH",
"-1 166 LINE SMOOTH",
"-1 29 OFFCURVE",
"54 -8 OFFCURVE",
"122 -8 CURVE SMOOTH"
);
},
{
closed = 1;
nodes = (
"52 78 OFFCURVE",
"24 110 OFFCURVE",
"24 159 CURVE SMOOTH",
"24 351 LINE SMOOTH",
"24 400 OFFCURVE",
"52 431 OFFCURVE",
"94 431 CURVE SMOOTH",
"137 431 OFFCURVE",
"164 400 OFFCURVE",
"164 351 CURVE SMOOTH",
"164 159 LINE SMOOTH",
"164 110 OFFCURVE",
"137 78 OFFCURVE",
"94 78 CURVE SMOOTH"
);
}
);
width = 263;
},
{
associatedMasterId = "262880E7-CFE1-4BDA-902E-E24798F3240A";
layerId = "BB1FBAB0-598D-42D0-9A36-171EF36A797E";
name = "{100,5}";
paths = (
{
closed = 1;
nodes = (
"254 -8 OFFCURVE",
"326 60 OFFCURVE",
"344 152 CURVE SMOOTH",
"349 179 OFFCURVE",
"350 197 OFFCURVE",
"350 254 CURVE SMOOTH",
"350 310 OFFCURVE",
"349 344 OFFCURVE",
"340 379 CURVE SMOOTH",
"316 469 OFFCURVE",
"241 517 OFFCURVE",
"163 517 CURVE SMOOTH",
"77 517 OFFCURVE",
"27 459 OFFCURVE",
"8 379 CURVE SMOOTH",
"0 345 OFFCURVE",
"0 307 OFFCURVE",
"0 257 CURVE",
"0 215 OFFCURVE",
"-1 182 OFFCURVE",
"5 152 CURVE SMOOTH",
"21 59 OFFCURVE",
"72 -8 OFFCURVE",
"163 -8 CURVE SMOOTH"
);
},
{
closed = 1;
nodes = (
"90 79 OFFCURVE",
"56 111 OFFCURVE",
"45 159 CURVE SMOOTH",
"39 179 OFFCURVE",
"38 212 OFFCURVE",
"38 256 CURVE SMOOTH",
"38 302 OFFCURVE",
"39 332 OFFCURVE",
"45 353 CURVE SMOOTH",
"56 400 OFFCURVE",
"90 433 OFFCURVE",
"143 433 CURVE SMOOTH",
"196 433 OFFCURVE",
"231 401 OFFCURVE",
"244 353 CURVE SMOOTH",
"250 332 OFFCURVE",
"251 302 OFFCURVE",
"251 258 CURVE SMOOTH",
"251 214 OFFCURVE",
"250 180 OFFCURVE",
"244 159 CURVE SMOOTH",
"231 110 OFFCURVE",
"196 79 OFFCURVE",
"143 79 CURVE SMOOTH"
);
}
);
width = 350;
},
{
associatedMasterId = "262880E7-CFE1-4BDA-902E-E24798F3240A";
layerId = "FD4975A0-03D0-441D-A0DC-7099881AFB11";
name = "{100,3}";
paths = (
{
closed = 1;
nodes = (
"202 -8 OFFCURVE",
"263 52 OFFCURVE",
"263 151 CURVE SMOOTH",
"263 170 OFFCURVE",
"263 223 OFFCURVE",
"263 255 CURVE SMOOTH",
"263 286 OFFCURVE",
"263 338 OFFCURVE",
"263 358 CURVE SMOOTH",
"263 456 OFFCURVE",
"203 517 OFFCURVE",
"118 517 CURVE SMOOTH",
"63 517 OFFCURVE",
"4 491 OFFCURVE",
"0 378 CURVE SMOOTH",
"-1 355 OFFCURVE",
"-1 300 OFFCURVE",
"-1 255 CURVE SMOOTH",
"-1 226 OFFCURVE",
"-2 154 OFFCURVE",
"-1 131 CURVE SMOOTH",
"2 19 OFFCURVE",
"63 -8 OFFCURVE",
"119 -8 CURVE SMOOTH"
);
},
{
closed = 1;
nodes = (
"56 79 OFFCURVE",
"28 107 OFFCURVE",
"27 149 CURVE SMOOTH",
"24 174 OFFCURVE",
"24 204 OFFCURVE",
"24 255 CURVE SMOOTH",
"24 307 OFFCURVE",
"23 335 OFFCURVE",
"27 361 CURVE SMOOTH",
"29 402 OFFCURVE",
"56 431 OFFCURVE",
"94 431 CURVE SMOOTH",
"133 431 OFFCURVE",
"160 402 OFFCURVE",
"161 361 CURVE SMOOTH",
"163 334 OFFCURVE",
"164 307 OFFCURVE",
"164 255 CURVE SMOOTH",
"164 205 OFFCURVE",
"164 174 OFFCURVE",
"161 149 CURVE SMOOTH",
"160 107 OFFCURVE",
"133 79 OFFCURVE",
"94 79 CURVE SMOOTH"
);
}
);
width = 263;
}
);
},
{
export = 0;
glyphname = n.curve;
lastChange = "2017-02-24 07:39:42 +0000";
layers = (
{
layerId = "262880E7-CFE1-4BDA-902E-E24798F3240A";
paths = (
{
closed = 1;
nodes = (
"334 0 LINE",
"334 340 LINE SMOOTH",
"334 439 OFFCURVE",
"267 507 OFFCURVE",
"171 507 CURVE SMOOTH",
"68 507 OFFCURVE",
"0 441 OFFCURVE",
"0 339 CURVE",
"18 339 LINE",
"18 426 OFFCURVE",
"77 486 OFFCURVE",
"168 486 CURVE SMOOTH",
"253 486 OFFCURVE",
"312 425 OFFCURVE",
"312 337 CURVE SMOOTH",
"312 0 LINE"
);
}
);
width = 334;
},
{
layerId = "4E2227F3-52E4-4048-A8EE-327B486EF0A4";
paths = (
{
closed = 1;
nodes = (
"268 0 LINE",
"268 348 LINE SMOOTH",
"268 459 OFFCURVE",
"227 528 OFFCURVE",
"126 528 CURVE SMOOTH",
"89 528 OFFCURVE",
"-1 515 OFFCURVE",
"0 335 CURVE",
"36 335 LINE",
"36 356 OFFCURVE",
"44 367 OFFCURVE",
"59 367 CURVE SMOOTH",
"73 367 OFFCURVE",
"80 356 OFFCURVE",
"80 335 CURVE SMOOTH",
"80 0 LINE"
);
}
);
width = 268;
},
{
layerId = "FFFA8D72-12AC-4CE0-B2CA-57A29829F4DA";
paths = (
{
closed = 1;
nodes = (
"340 0 LINE",
"340 348 LINE SMOOTH",
"340 459 OFFCURVE",
"259 528 OFFCURVE",
"158 528 CURVE SMOOTH",
"58 528 OFFCURVE",
"-20 460 OFFCURVE",
"-20 300 CURVE",
"39 300 LINE",
"39 340 OFFCURVE",
"62 367 OFFCURVE",
"96 367 CURVE SMOOTH",
"130 367 OFFCURVE",
"152 340 OFFCURVE",
"152 300 CURVE SMOOTH",
"152 0 LINE"
);
}
);
width = 332;
},
{
layerId = "DCBE1F7B-116A-43E0-B7B4-8657BA77D8B5";
paths = (
{
closed = 1;
nodes = (
"254 0 LINE",
"254 357 LINE SMOOTH",
"254 451 OFFCURVE",
"208 507 OFFCURVE",
"129 507 CURVE SMOOTH",
"51 507 OFFCURVE",
"-1 448 OFFCURVE",
"-1 346 CURVE",
"15 346 LINE",
"15 433 OFFCURVE",
"58 486 OFFCURVE",
"126 486 CURVE SMOOTH",
"193 486 OFFCURVE",
"232 437 OFFCURVE",
"232 354 CURVE SMOOTH",
"232 0 LINE"
);
}
);
width = 254;
}
);
},
{
glyphname = zero;
lastChange = "2017-02-24 09:01:05 +0000";
layers = (
{
layerId = "262880E7-CFE1-4BDA-902E-E24798F3240A";
paths = (
{
closed = 1;
nodes = (
"379 -9 OFFCURVE",
"454 64 OFFCURVE",
"454 174 CURVE SMOOTH",
"454 526 LINE SMOOTH",
"454 636 OFFCURVE",
"379 709 OFFCURVE",
"266 709 CURVE SMOOTH",
"154 709 OFFCURVE",
"80 636 OFFCURVE",
"80 526 CURVE SMOOTH",
"80 174 LINE SMOOTH",
"80 64 OFFCURVE",
"154 -9 OFFCURVE",
"266 -9 CURVE SMOOTH"
);
},
{
closed = 1;
nodes = (
"168 12 OFFCURVE",
"102 76 OFFCURVE",
"102 172 CURVE SMOOTH",
"102 528 LINE SMOOTH",
"102 624 OFFCURVE",
"168 688 OFFCURVE",
"266 688 CURVE SMOOTH",
"366 688 OFFCURVE",
"432 624 OFFCURVE",
"432 528 CURVE SMOOTH",
"432 172 LINE SMOOTH",
"432 76 OFFCURVE",
"366 12 OFFCURVE",
"266 12 CURVE SMOOTH"
);
}
);
width = 534;
},
{
layerId = "4E2227F3-52E4-4048-A8EE-327B486EF0A4";
paths = (
{
closed = 1;
nodes = (
"358 -12 OFFCURVE",
"443 75 OFFCURVE",
"443 206 CURVE SMOOTH",
"443 494 LINE SMOOTH",
"443 625 OFFCURVE",
"358 712 OFFCURVE",
"229 712 CURVE SMOOTH",
"101 712 OFFCURVE",
"16 625 OFFCURVE",
"16 494 CURVE SMOOTH",
"16 206 LINE SMOOTH",
"16 75 OFFCURVE",
"101 -12 OFFCURVE",
"229 -12 CURVE SMOOTH"
);
},
{
closed = 1;
nodes = (
"214 149 OFFCURVE",
"204 167 OFFCURVE",
"204 195 CURVE SMOOTH",
"204 505 LINE SMOOTH",
"204 533 OFFCURVE",
"214 551 OFFCURVE",
"229 551 CURVE SMOOTH",
"245 551 OFFCURVE",
"255 533 OFFCURVE",
"255 505 CURVE SMOOTH",
"255 195 LINE SMOOTH",
"255 167 OFFCURVE",
"245 149 OFFCURVE",
"229 149 CURVE SMOOTH"
);
}
);
width = 459;
},
{
layerId = "FFFA8D72-12AC-4CE0-B2CA-57A29829F4DA";
paths = (
{
closed = 1;
nodes = (
"418 -8 OFFCURVE",
"518 75 OFFCURVE",
"518 206 CURVE SMOOTH",
"518 494 LINE SMOOTH",
"518 625 OFFCURVE",
"418 708 OFFCURVE",
"266 708 CURVE SMOOTH",
"116 708 OFFCURVE",
"16 625 OFFCURVE",
"16 494 CURVE SMOOTH",
"16 206 LINE SMOOTH",
"16 75 OFFCURVE",
"116 -8 OFFCURVE",
"266 -8 CURVE SMOOTH"
);
},
{
closed = 1;
nodes = (
"229 149 OFFCURVE",
"204 179 OFFCURVE",
"204 207 CURVE SMOOTH",
"204 493 LINE SMOOTH",
"204 521 OFFCURVE",
"229 551 OFFCURVE",
"266 551 CURVE SMOOTH",
"306 551 OFFCURVE",
"331 521 OFFCURVE",
"331 493 CURVE SMOOTH",
"331 207 LINE SMOOTH",
"331 179 OFFCURVE",
"306 149 OFFCURVE",
"266 149 CURVE SMOOTH"
);
}
);
width = 534;
},
{
layerId = "DCBE1F7B-116A-43E0-B7B4-8657BA77D8B5";
paths = (
{
closed = 1;
nodes = (
"298 -9 OFFCURVE",
"360 56 OFFCURVE",
"360 154 CURVE SMOOTH",
"360 546 LINE SMOOTH",
"360 644 OFFCURVE",
"298 709 OFFCURVE",
"207 709 CURVE SMOOTH",
"116 709 OFFCURVE",
"56 644 OFFCURVE",
"56 546 CURVE SMOOTH",
"56 154 LINE SMOOTH",
"56 56 OFFCURVE",
"116 -9 OFFCURVE",
"207 -9 CURVE SMOOTH"
);
},
{
closed = 1;
nodes = (
"130 12 OFFCURVE",
"78 68 OFFCURVE",
"78 152 CURVE SMOOTH",
"78 548 LINE SMOOTH",
"78 632 OFFCURVE",
"130 688 OFFCURVE",
"207 688 CURVE SMOOTH",
"286 688 OFFCURVE",
"338 632 OFFCURVE",
"338 548 CURVE SMOOTH",
"338 152 LINE SMOOTH",
"338 68 OFFCURVE",
"286 12 OFFCURVE",
"207 12 CURVE SMOOTH"
);
}
);
width = 416;
}
);
unicode = 0030;
},
{
glyphname = one;
lastChange = "2017-02-24 09:01:05 +0000";
layers = (
{
layerId = "262880E7-CFE1-4BDA-902E-E24798F3240A";
paths = (
{
closed = 1;
nodes = (
"204 0 LINE",
"204 700 LINE",
"182 700 LINE",
"182 0 LINE"
);
},
{
closed = 1;
nodes = (
"90 637 LINE",
"182 669 LINE",
"182 700 LINE",
"90 658 LINE"
);
}
);
width = 304;
},
{
layerId = "4E2227F3-52E4-4048-A8EE-327B486EF0A4";
paths = (
{
closed = 1;
nodes = (
"253 0 LINE",
"253 700 LINE",
"65 700 LINE",
"65 0 LINE"
);
},
{
closed = 1;
nodes = (
"18 529 LINE",
"65 529 LINE",
"65 700 LINE",
"18 673 LINE"
);
}
);
width = 273;
},
{
layerId = "FFFA8D72-12AC-4CE0-B2CA-57A29829F4DA";
paths = (
{
closed = 1;
nodes = (
"272 0 LINE",
"272 700 LINE",
"84 700 LINE",
"84 0 LINE"
);
},
{
closed = 1;
nodes = (
"18 529 LINE",
"84 529 LINE",
"84 700 LINE",
"18 673 LINE"
);
}
);
width = 292;
},
{
layerId = "DCBE1F7B-116A-43E0-B7B4-8657BA77D8B5";
paths = (
{
closed = 1;
nodes = (
"154 0 LINE",
"154 700 LINE",
"132 700 LINE",
"132 0 LINE"
);
},
{
closed = 1;
nodes = (
"63 637 LINE",
"132 669 LINE",
"132 700 LINE",
"63 658 LINE"
);
}
);
width = 224;
}
);
unicode = 0031;
},
{
glyphname = two;
lastChange = "2017-02-24 09:01:05 +0000";
layers = (
{
layerId = "262880E7-CFE1-4BDA-902E-E24798F3240A";
paths = (
{
closed = 1;
nodes = (
"421 0 LINE",
"421 21 LINE",
"96 21 LINE",
"317 323 LINE SMOOTH",
"381 410 OFFCURVE",
"413 485 OFFCURVE",
"413 544 CURVE SMOOTH",
"413 642 OFFCURVE",
"343 708 OFFCURVE",
"239 708 CURVE SMOOTH",
"138 708 OFFCURVE",
"70 642 OFFCURVE",
"70 544 CURVE SMOOTH",
"70 500 LINE",
"92 500 LINE",
"92 544 LINE",
"91 630 OFFCURVE",
"150 687 OFFCURVE",
"239 687 CURVE SMOOTH",
"330 687 OFFCURVE",
"391 630 OFFCURVE",
"391 544 CURVE SMOOTH",
"391 490 OFFCURVE",
"360 420 OFFCURVE",
"298 335 CURVE SMOOTH",
"70 21 LINE",
"70 0 LINE"
);
}
);
width = 471;
},
{
layerId = "4E2227F3-52E4-4048-A8EE-327B486EF0A4";
paths = (
{
closed = 1;
nodes = (
"453 0 LINE",
"453 170 LINE",
"275 170 LINE",
"393 311 LINE",
"442 382 OFFCURVE",
"447 425 OFFCURVE",
"447 520 CURVE SMOOTH",
"447 639 OFFCURVE",
"356 708 OFFCURVE",
"230 708 CURVE SMOOTH",
"108 708 OFFCURVE",
"21 640 OFFCURVE",
"14 520 CURVE",
"14 455 LINE",
"204 455 LINE",
"204 503 LINE",
"204 524 OFFCURVE",
"215 538 OFFCURVE",
"231 538 CURVE SMOOTH",
"246 538 OFFCURVE",
"257 524 OFFCURVE",
"257 503 CURVE SMOOTH",
"257 457 OFFCURVE",
"244 423 OFFCURVE",
"193 361 CURVE",
"18 170 LINE",
"18 0 LINE"
);
}
);
width = 463;
},
{
layerId = "FFFA8D72-12AC-4CE0-B2CA-57A29829F4DA";
paths = (
{
closed = 1;
nodes = (
"518 0 LINE",
"518 170 LINE",
"274 170 LINE",
"437 311 LINE",
"499 382 OFFCURVE",
"511 425 OFFCURVE",
"511 520 CURVE SMOOTH",
"511 633 OFFCURVE",
"411 708 OFFCURVE",
"261 708 CURVE SMOOTH",
"119 708 OFFCURVE",
"21 633 OFFCURVE",
"14 520 CURVE",
"14 455 LINE",
"204 455 LINE",
"204 498 LINE",
"204 522 OFFCURVE",
"227 538 OFFCURVE",
"262 538 CURVE SMOOTH",
"297 538 OFFCURVE",
"321 522 OFFCURVE",
"321 498 CURVE SMOOTH",
"321 457 OFFCURVE",
"302 423 OFFCURVE",
"238 361 CURVE",
"18 170 LINE",
"18 0 LINE"
);
}
);
width = 528;
},
{
layerId = "DCBE1F7B-116A-43E0-B7B4-8657BA77D8B5";
paths = (
{
closed = 1;
nodes = (
"321 0 LINE",
"321 21 LINE",
"76 21 LINE",
"243 323 LINE SMOOTH",
"291 410 OFFCURVE",
"315 485 OFFCURVE",
"315 544 CURVE SMOOTH",
"315 642 OFFCURVE",
"261 708 OFFCURVE",
"180 708 CURVE SMOOTH",
"102 708 OFFCURVE",
"49 642 OFFCURVE",
"49 544 CURVE SMOOTH",
"49 500 LINE",
"72 500 LINE",
"72 544 LINE",
"71 630 OFFCURVE",
"114 687 OFFCURVE",
"180 687 CURVE SMOOTH",
"248 687 OFFCURVE",
"293 630 OFFCURVE",
"293 544 CURVE SMOOTH",
"293 490 OFFCURVE",
"269 420 OFFCURVE",
"222 335 CURVE SMOOTH",
"49 21 LINE",
"49 0 LINE"
);
}
);
width = 356;
}
);
unicode = 0032;
},
{
glyphname = three;
lastChange = "2017-02-24 09:01:05 +0000";
layers = (
{
layerId = "262880E7-CFE1-4BDA-902E-E24798F3240A";
paths = (
{
closed = 1;
nodes = (
"70 700 LINE",
"70 679 LINE",
"392 679 LINE",
"200 416 LINE",
"211 404 LINE",
"221 406 OFFCURVE",
"232 407 OFFCURVE",
"243 407 CURVE SMOOTH",
"333 407 OFFCURVE",
"393 350 OFFCURVE",
"393 265 CURVE SMOOTH",
"393 155 LINE SMOOTH",
"393 70 OFFCURVE",
"333 13 OFFCURVE",
"243 13 CURVE SMOOTH",
"153 13 OFFCURVE",
"92 70 OFFCURVE",
"92 155 CURVE SMOOTH",
"92 201 LINE",
"70 201 LINE",
"70 158 LINE SMOOTH",
"70 58 OFFCURVE",
"139 -8 OFFCURVE",
"243 -8 CURVE SMOOTH",
"347 -8 OFFCURVE",
"415 58 OFFCURVE",
"415 158 CURVE SMOOTH",
"415 262 LINE SMOOTH",
"415 364 OFFCURVE",
"342 446 OFFCURVE",
"229 426 CURVE",
"231 419 LINE",
"418 679 LINE",
"418 700 LINE"
);
}
);
width = 498;
},
{
layerId = "4E2227F3-52E4-4048-A8EE-327B486EF0A4";
paths = (
{
closed = 1;
nodes = (
"30 700 LINE",
"30 530 LINE",
"213 530 LINE",
"84 417 LINE",
"185 312 LINE",
"201 333 OFFCURVE",
"211 340 OFFCURVE",
"227 340 CURVE SMOOTH",
"243 340 OFFCURVE",
"253 327 OFFCURVE",
"253 308 CURVE SMOOTH",
"253 185 LINE SMOOTH",
"253 166 OFFCURVE",
"243 153 OFFCURVE",
"227 153 CURVE SMOOTH",
"212 153 OFFCURVE",
"202 166 OFFCURVE",
"202 185 CURVE SMOOTH",
"202 232 LINE",
"14 232 LINE",
"14 172 LINE SMOOTH",
"14 59 OFFCURVE",
"99 -7 OFFCURVE",
"227 -7 CURVE SMOOTH",
"346 -7 OFFCURVE",
"431 59 OFFCURVE",
"431 172 CURVE SMOOTH",
"431 276 LINE SMOOTH",
"431 373 OFFCURVE",
"354 447 OFFCURVE",
"265 405 CURVE",
"263 363 LINE",
"431 530 LINE",
"431 700 LINE"
);
}
);
width = 447;
},
{
layerId = "FFFA8D72-12AC-4CE0-B2CA-57A29829F4DA";
paths = (
{
closed = 1;
nodes = (
"30 700 LINE",
"30 530 LINE",
"279 530 LINE",
"111 417 LINE",
"211 312 LINE",
"225 329 OFFCURVE",
"245 340 OFFCURVE",
"259 340 CURVE SMOOTH",
"294 340 OFFCURVE",
"318 322 OFFCURVE",
"318 291 CURVE SMOOTH",
"318 203 LINE SMOOTH",
"318 173 OFFCURVE",
"294 153 OFFCURVE",
"259 153 CURVE SMOOTH",
"225 153 OFFCURVE",
"202 173 OFFCURVE",
"202 203 CURVE SMOOTH",
"202 232 LINE",
"14 232 LINE",
"14 172 LINE SMOOTH",
"14 65 OFFCURVE",
"112 -8 OFFCURVE",
"259 -8 CURVE SMOOTH",
"401 -8 OFFCURVE",
"496 65 OFFCURVE",
"496 172 CURVE SMOOTH",
"496 276 LINE SMOOTH",
"496 373 OFFCURVE",
"405 447 OFFCURVE",
"293 405 CURVE",
"292 363 LINE",
"496 530 LINE",
"496 700 LINE"
);
}
);
width = 512;
},
{
layerId = "DCBE1F7B-116A-43E0-B7B4-8657BA77D8B5";
paths = (
{
closed = 1;
nodes = (
"49 700 LINE",
"49 679 LINE",
"292 679 LINE",
"147 416 LINE",
"158 404 LINE",
"166 406 OFFCURVE",
"174 407 OFFCURVE",
"183 407 CURVE SMOOTH",
"250 407 OFFCURVE",
"294 350 OFFCURVE",
"294 265 CURVE SMOOTH",
"294 155 LINE SMOOTH",
"294 70 OFFCURVE",
"250 13 OFFCURVE",
"183 13 CURVE SMOOTH",
"116 13 OFFCURVE",
"71 70 OFFCURVE",
"71 155 CURVE SMOOTH",
"71 201 LINE",
"49 201 LINE",
"49 158 LINE SMOOTH",
"49 58 OFFCURVE",
"102 -8 OFFCURVE",
"183 -8 CURVE SMOOTH",
"263 -8 OFFCURVE",
"316 58 OFFCURVE",
"316 158 CURVE SMOOTH",
"316 262 LINE SMOOTH",
"316 364 OFFCURVE",
"260 446 OFFCURVE",
"174 426 CURVE",
"176 419 LINE",
"318 679 LINE",
"318 700 LINE"
);
}
);
width = 374;
}
);
unicode = 0033;
},
{
glyphname = four;
lastChange = "2017-02-24 09:01:05 +0000";
layers = (
{
layerId = "262880E7-CFE1-4BDA-902E-E24798F3240A";
paths = (
{
closed = 1;
nodes = (
"337 -7 LINE",
"359 -7 LINE",
"359 415 LINE",
"337 415 LINE"
);
},
{
closed = 1;
nodes = (
"62 223 LINE",
"282 700 LINE",
"260 700 LINE",
"40 223 LINE",
"40 202 LINE",
"413 202 LINE",
"413 223 LINE"
);
}
);
width = 453;
},
{
layerId = "4E2227F3-52E4-4048-A8EE-327B486EF0A4";
paths = (
{
closed = 1;
nodes = (
"283 0 LINE",
"471 0 LINE",
"471 426 LINE",
"283 426 LINE"
);
},
{
closed = 1;
nodes = (
"226 337 LINE",
"333 700 LINE",
"136 700 LINE",
"8 302 LINE",
"8 167 LINE",
"522 167 LINE",
"522 337 LINE"
);
}
);
width = 530;
},
{
layerId = "FFFA8D72-12AC-4CE0-B2CA-57A29829F4DA";
paths = (
{
closed = 1;
nodes = (
"341 0 LINE",
"529 0 LINE",
"529 426 LINE",
"341 426 LINE"
);
},
{
closed = 1;
nodes = (
"225 337 LINE",
"378 700 LINE",
"181 700 LINE",
"8 302 LINE",
"8 167 LINE",
"590 167 LINE",
"590 337 LINE"
);
}
);
width = 598;
},
{
layerId = "DCBE1F7B-116A-43E0-B7B4-8657BA77D8B5";
paths = (
{
closed = 1;
nodes = (
"255 -7 LINE",
"277 -7 LINE",
"277 415 LINE",
"255 415 LINE"
);
},
{
closed = 1;
nodes = (
"52 222 LINE",
"218 700 LINE",
"194 700 LINE",
"28 222 LINE",
"28 202 LINE",
"319 202 LINE",
"319 222 LINE"
);
}
);
width = 347;
}
);
unicode = 0034;
},
{
glyphname = five;
lastChange = "2017-02-24 09:01:05 +0000";
layers = (
{
layerId = "262880E7-CFE1-4BDA-902E-E24798F3240A";
paths = (
{
closed = 1;
nodes = (
"332 -9 OFFCURVE",
"398 57 OFFCURVE",
"398 157 CURVE SMOOTH",
"398 262 LINE SMOOTH",
"398 362 OFFCURVE",
"332 428 OFFCURVE",
"233 428 CURVE SMOOTH",
"133 428 OFFCURVE",
"72 381 OFFCURVE",
"72 311 CURVE",
"72 307 LINE",
"92 307 LINE",
"92 311 LINE SMOOTH",
"92 369 OFFCURVE",
"146 407 OFFCURVE",
"234 407 CURVE SMOOTH",
"319 407 OFFCURVE",
"376 350 OFFCURVE",
"376 265 CURVE SMOOTH",
"376 154 LINE SMOOTH",
"376 69 OFFCURVE",
"319 12 OFFCURVE",
"234 12 CURVE SMOOTH",
"149 12 OFFCURVE",
"92 69 OFFCURVE",
"92 154 CURVE SMOOTH",
"92 158 LINE",
"70 158 LINE",
"70 157 LINE SMOOTH",
"70 57 OFFCURVE",
"136 -9 OFFCURVE",
"234 -9 CURVE SMOOTH"
);
},
{
closed = 1;
nodes = (
"92 307 LINE",
"92 679 LINE",
"384 679 LINE",
"384 700 LINE",
"70 700 LINE",
"70 307 LINE"
);
}
);
width = 468;
},
{
layerId = "4E2227F3-52E4-4048-A8EE-327B486EF0A4";
paths = (
{
closed = 1;
nodes = (
"357 -8 OFFCURVE",
"442 58 OFFCURVE",
"442 171 CURVE SMOOTH",
"442 260 LINE SMOOTH",
"442 374 OFFCURVE",
"383 444 OFFCURVE",
"288 444 CURVE SMOOTH",
"177 444 OFFCURVE",
"145 344 OFFCURVE",
"145 260 CURVE",
"145 256 LINE",
"202 256 LINE",
"202 257 LINE SMOOTH",
"202 272 OFFCURVE",
"212 282 OFFCURVE",
"228 282 CURVE SMOOTH",
"244 282 OFFCURVE",
"254 269 OFFCURVE",
"254 250 CURVE SMOOTH",
"254 184 LINE SMOOTH",
"254 165 OFFCURVE",
"244 152 OFFCURVE",
"228 152 CURVE SMOOTH",
"213 152 OFFCURVE",
"203 165 OFFCURVE",
"203 184 CURVE SMOOTH",
"203 185 LINE",
"15 185 LINE",
"15 171 LINE SMOOTH",
"15 58 OFFCURVE",
"98 -8 OFFCURVE",
"228 -8 CURVE SMOOTH"
);
},
{
closed = 1;
nodes = (
"202 254 LINE",
"202 530 LINE",
"440 530 LINE",
"440 700 LINE",
"14 700 LINE",
"14 254 LINE"
);
}
);
width = 456;
},
{
layerId = "FFFA8D72-12AC-4CE0-B2CA-57A29829F4DA";
paths = (
{
closed = 1;
nodes = (
"404 -8 OFFCURVE",
"502 64 OFFCURVE",
"502 171 CURVE SMOOTH",
"502 260 LINE SMOOTH",
"502 370 OFFCURVE",
"423 444 OFFCURVE",
"305 444 CURVE SMOOTH",
"208 444 OFFCURVE",
"144 367 OFFCURVE",
"144 251 CURVE",
"144 247 LINE",
"203 247 LINE",
"203 248 LINE SMOOTH",
"203 268 OFFCURVE",
"225 282 OFFCURVE",
"257 282 CURVE SMOOTH",
"291 282 OFFCURVE",
"314 261 OFFCURVE",
"314 230 CURVE SMOOTH",
"314 204 LINE SMOOTH",
"314 173 OFFCURVE",
"291 152 OFFCURVE",
"257 152 CURVE SMOOTH",
"224 152 OFFCURVE",
"202 170 OFFCURVE",
"202 197 CURVE SMOOTH",
"202 198 LINE",
"14 198 LINE",
"14 171 LINE SMOOTH",
"14 64 OFFCURVE",
"111 -8 OFFCURVE",
"257 -8 CURVE SMOOTH"
);
},
{
closed = 1;
nodes = (
"203 245 LINE",
"204 530 LINE",
"499 530 LINE",
"499 700 LINE",
"16 700 LINE",
"16 245 LINE"
);
}
);
width = 516;
},
{
layerId = "DCBE1F7B-116A-43E0-B7B4-8657BA77D8B5";
paths = (
{
closed = 1;
nodes = (
"253 -9 OFFCURVE",
"304 57 OFFCURVE",
"304 157 CURVE SMOOTH",
"304 262 LINE SMOOTH",
"304 362 OFFCURVE",
"254 428 OFFCURVE",
"178 428 CURVE SMOOTH",
"111 428 OFFCURVE",
"63 381 OFFCURVE",
"63 311 CURVE",
"63 307 LINE",
"80 307 LINE",
"80 311 LINE SMOOTH",
"80 369 OFFCURVE",
"122 407 OFFCURVE",
"176 407 CURVE SMOOTH",
"240 407 OFFCURVE",
"282 350 OFFCURVE",
"282 265 CURVE SMOOTH",
"282 154 LINE SMOOTH",
"282 69 OFFCURVE",
"240 12 OFFCURVE",
"176 12 CURVE SMOOTH",
"113 12 OFFCURVE",
"71 69 OFFCURVE",
"71 154 CURVE SMOOTH",
"71 158 LINE",
"49 158 LINE",
"49 157 LINE SMOOTH",
"49 57 OFFCURVE",
"100 -9 OFFCURVE",
"176 -9 CURVE SMOOTH"
);
},
{
closed = 1;
nodes = (
"80 310 LINE",
"81 679 LINE",
"302 679 LINE",
"302 700 LINE",
"59 700 LINE",
"60 310 LINE"
);
}
);
width = 353;
}
);
unicode = 0035;
},
{
glyphname = six;
lastChange = "2017-02-24 09:01:05 +0000";
layers = (
{
layerId = "262880E7-CFE1-4BDA-902E-E24798F3240A";
paths = (
{
closed = 1;
nodes = (
"369 -8 OFFCURVE",
"437 58 OFFCURVE",
"437 158 CURVE SMOOTH",
"437 262 LINE SMOOTH",
"437 362 OFFCURVE",
"369 428 OFFCURVE",
"264 428 CURVE SMOOTH",
"192 428 OFFCURVE",
"136 395 OFFCURVE",
"109 340 CURVE",
"112 340 LINE",
"112 545 LINE SMOOTH",
"112 630 OFFCURVE",
"173 687 OFFCURVE",
"264 687 CURVE SMOOTH",
"355 687 OFFCURVE",
"415 630 OFFCURVE",
"415 545 CURVE SMOOTH",
"415 500 LINE",
"437 500 LINE",
"437 542 LINE SMOOTH",
"437 642 OFFCURVE",
"369 708 OFFCURVE",
"264 708 CURVE SMOOTH",
"159 708 OFFCURVE",
"90 642 OFFCURVE",
"90 542 CURVE SMOOTH",
"90 158 LINE SMOOTH",
"90 58 OFFCURVE",
"159 -8 OFFCURVE",
"264 -8 CURVE SMOOTH"
);
},
{
closed = 1;
nodes = (
"173 13 OFFCURVE",
"112 70 OFFCURVE",
"112 155 CURVE SMOOTH",
"112 265 LINE SMOOTH",
"112 350 OFFCURVE",
"173 407 OFFCURVE",
"264 407 CURVE SMOOTH",
"355 407 OFFCURVE",
"415 350 OFFCURVE",
"415 265 CURVE SMOOTH",
"415 155 LINE SMOOTH",
"415 70 OFFCURVE",
"355 13 OFFCURVE",
"264 13 CURVE SMOOTH"
);
}
);
width = 507;
},
{
layerId = "4E2227F3-52E4-4048-A8EE-327B486EF0A4";
paths = (
{
closed = 1;
nodes = (
"357 -8 OFFCURVE",
"442 58 OFFCURVE",
"442 171 CURVE SMOOTH",
"442 260 LINE SMOOTH",
"442 390 OFFCURVE",
"366 444 OFFCURVE",
"286 444 CURVE SMOOTH",
"172 444 OFFCURVE",
"166 339 OFFCURVE",
"167 327 CURVE",
"206 327 LINE",
"206 511 LINE SMOOTH",
"206 530 OFFCURVE",
"216 543 OFFCURVE",
"230 543 CURVE SMOOTH",
"244 543 OFFCURVE",
"254 530 OFFCURVE",
"254 511 CURVE SMOOTH",
"254 470 LINE",
"442 470 LINE",
"442 524 LINE SMOOTH",
"442 638 OFFCURVE",
"357 708 OFFCURVE",
"230 708 CURVE SMOOTH",
"103 708 OFFCURVE",
"18 638 OFFCURVE",
"18 524 CURVE SMOOTH",
"18 171 LINE SMOOTH",
"18 58 OFFCURVE",
"103 -8 OFFCURVE",
"230 -8 CURVE SMOOTH"
);
},
{
closed = 1;
nodes = (
"216 152 OFFCURVE",
"206 165 OFFCURVE",
"206 184 CURVE SMOOTH",
"206 252 LINE SMOOTH",
"206 271 OFFCURVE",
"216 284 OFFCURVE",
"230 284 CURVE SMOOTH",
"244 284 OFFCURVE",
"254 271 OFFCURVE",
"254 252 CURVE SMOOTH",
"254 184 LINE SMOOTH",
"254 165 OFFCURVE",
"244 152 OFFCURVE",
"230 152 CURVE SMOOTH"
);
}
);
width = 456;
},
{
layerId = "FFFA8D72-12AC-4CE0-B2CA-57A29829F4DA";
paths = (
{
closed = 1;
nodes = (
"409 -8 OFFCURVE",
"507 64 OFFCURVE",
"507 171 CURVE SMOOTH",
"507 260 LINE SMOOTH",
"507 370 OFFCURVE",
"425 444 OFFCURVE",
"301 444 CURVE SMOOTH",
"244 444 OFFCURVE",
"186 397 OFFCURVE",
"157 327 CURVE",
"206 327 LINE",
"206 496 LINE SMOOTH",
"206 524 OFFCURVE",
"229 543 OFFCURVE",
"263 543 CURVE SMOOTH",
"297 543 OFFCURVE",
"319 524 OFFCURVE",
"319 496 CURVE SMOOTH",
"319 470 LINE",
"507 470 LINE",
"507 524 LINE SMOOTH",
"507 634 OFFCURVE",
"409 708 OFFCURVE",
"263 708 CURVE SMOOTH",
"116 708 OFFCURVE",
"18 634 OFFCURVE",
"18 524 CURVE SMOOTH",
"18 171 LINE SMOOTH",
"18 64 OFFCURVE",
"116 -8 OFFCURVE",
"263 -8 CURVE SMOOTH"
);
},
{
closed = 1;
nodes = (
"229 152 OFFCURVE",
"206 172 OFFCURVE",
"206 203 CURVE SMOOTH",
"206 234 LINE SMOOTH",
"206 264 OFFCURVE",
"229 284 OFFCURVE",
"263 284 CURVE SMOOTH",
"297 284 OFFCURVE",
"319 264 OFFCURVE",
"319 234 CURVE SMOOTH",
"319 203 LINE SMOOTH",
"319 172 OFFCURVE",
"297 152 OFFCURVE",
"263 152 CURVE SMOOTH"
);
}
);
width = 521;
},
{
layerId = "DCBE1F7B-116A-43E0-B7B4-8657BA77D8B5";
paths = (
{
closed = 1;
nodes = (
"279 -8 OFFCURVE",
"332 58 OFFCURVE",
"332 158 CURVE SMOOTH",
"332 262 LINE SMOOTH",
"332 362 OFFCURVE",
"279 428 OFFCURVE",
"199 428 CURVE SMOOTH",
"143 428 OFFCURVE",
"102 395 OFFCURVE",
"82 340 CURVE",
"85 340 LINE",
"85 545 LINE SMOOTH",
"85 630 OFFCURVE",
"130 687 OFFCURVE",
"198 687 CURVE SMOOTH",
"265 687 OFFCURVE",
"310 630 OFFCURVE",
"310 545 CURVE SMOOTH",
"310 500 LINE",
"332 500 LINE",
"332 542 LINE SMOOTH",
"332 642 OFFCURVE",
"279 708 OFFCURVE",
"198 708 CURVE SMOOTH",
"116 708 OFFCURVE",
"63 642 OFFCURVE",
"63 542 CURVE SMOOTH",
"63 158 LINE SMOOTH",
"63 58 OFFCURVE",
"116 -8 OFFCURVE",
"198 -8 CURVE SMOOTH"
);
},
{
closed = 1;
nodes = (
"130 13 OFFCURVE",
"85 70 OFFCURVE",
"85 155 CURVE SMOOTH",
"85 265 LINE SMOOTH",
"85 350 OFFCURVE",
"130 407 OFFCURVE",
"198 407 CURVE SMOOTH",
"265 407 OFFCURVE",
"310 350 OFFCURVE",
"310 265 CURVE SMOOTH",
"310 155 LINE SMOOTH",
"310 70 OFFCURVE",
"265 13 OFFCURVE",
"198 13 CURVE SMOOTH"
);
}
);
width = 381;
}
);
unicode = 0036;
},
{
glyphname = seven;
lastChange = "2017-02-24 09:01:05 +0000";
layers = (
{
layerId = "262880E7-CFE1-4BDA-902E-E24798F3240A";
paths = (
{
closed = 1;
nodes = (
"165 0 LINE",
"401 679 LINE",
"401 700 LINE",
"30 700 LINE",
"30 642 LINE",
"52 642 LINE",
"52 679 LINE",
"377 679 LINE",
"140 0 LINE"
);
}
);
width = 431;
},
{
layerId = "4E2227F3-52E4-4048-A8EE-327B486EF0A4";
paths = (
{
closed = 1;
nodes = (
"262 0 LINE",
"429 530 LINE",
"429 700 LINE",
"7 700 LINE",
"6 481 LINE",
"157 481 LINE",
"157 530 LINE",
"231 530 LINE",
"66 0 LINE"
);
}
);
width = 435;
},
{
layerId = "FFFA8D72-12AC-4CE0-B2CA-57A29829F4DA";
paths = (
{
closed = 1;
nodes = (
"285 0 LINE",
"499 530 LINE",
"499 700 LINE",
"7 700 LINE",
"6 481 LINE",
"158 481 LINE",
"158 530 LINE",
"301 530 LINE",
"89 0 LINE"
);
}
);
width = 505;
},
{
layerId = "DCBE1F7B-116A-43E0-B7B4-8657BA77D8B5";
paths = (
{
closed = 1;
nodes = (
"129 0 LINE",
"307 679 LINE",
"307 700 LINE",
"21 700 LINE",
"21 642 LINE",
"42 642 LINE",
"42 679 LINE",
"283 679 LINE",
"104 0 LINE"
);
}
);
width = 328;
}
);
unicode = 0037;
},
{
glyphname = eight;
lastChange = "2017-02-24 09:01:05 +0000";
layers = (
{
layerId = "262880E7-CFE1-4BDA-902E-E24798F3240A";
paths = (
{
closed = 1;
nodes = (
"361 -18 OFFCURVE",
"430 54 OFFCURVE",
"430 161 CURVE SMOOTH",
"430 215 LINE SMOOTH",
"430 322 OFFCURVE",
"361 394 OFFCURVE",
"256 394 CURVE SMOOTH",
"151 394 OFFCURVE",
"80 322 OFFCURVE",
"80 215 CURVE SMOOTH",
"80 161 LINE SMOOTH",
"80 54 OFFCURVE",
"151 -18 OFFCURVE",
"256 -18 CURVE SMOOTH"
);
},
{
closed = 1;
nodes = (
"164 2 OFFCURVE",
"102 66 OFFCURVE",
"102 161 CURVE SMOOTH",
"102 215 LINE SMOOTH",
"102 311 OFFCURVE",
"164 375 OFFCURVE",
"256 375 CURVE SMOOTH",
"348 375 OFFCURVE",
"408 311 OFFCURVE",
"408 215 CURVE SMOOTH",
"408 161 LINE SMOOTH",
"408 66 OFFCURVE",
"348 2 OFFCURVE",
"256 2 CURVE SMOOTH"
);
},
{
closed = 1;
nodes = (
"361 375 OFFCURVE",
"428 439 OFFCURVE",
"428 534 CURVE SMOOTH",
"428 549 LINE SMOOTH",
"428 644 OFFCURVE",
"361 708 OFFCURVE",
"256 708 CURVE SMOOTH",
"151 708 OFFCURVE",
"82 644 OFFCURVE",
"82 549 CURVE SMOOTH",
"82 534 LINE SMOOTH",
"82 439 OFFCURVE",
"151 375 OFFCURVE",
"256 375 CURVE SMOOTH"
);
},
{
closed = 1;
nodes = (
"164 395 OFFCURVE",
"104 451 OFFCURVE",
"104 534 CURVE SMOOTH",
"104 549 LINE SMOOTH",
"104 633 OFFCURVE",
"164 689 OFFCURVE",
"256 689 CURVE SMOOTH",
"348 689 OFFCURVE",
"406 633 OFFCURVE",
"406 549 CURVE SMOOTH",
"406 534 LINE SMOOTH",
"406 451 OFFCURVE",
"348 395 OFFCURVE",
"256 395 CURVE SMOOTH"
);
}
);
width = 510;
},
{
layerId = "4E2227F3-52E4-4048-A8EE-327B486EF0A4";
paths = (
{
closed = 1;
nodes = (
"370 -8 OFFCURVE",
"443 69 OFFCURVE",
"443 194 CURVE SMOOTH",
"443 231 LINE SMOOTH",
"443 387 OFFCURVE",
"282 398 OFFCURVE",
"230 403 CURVE",
"178 398 OFFCURVE",
"17 387 OFFCURVE",
"17 231 CURVE SMOOTH",
"17 195 LINE SMOOTH",
"17 69 OFFCURVE",
"103 -8 OFFCURVE",
"230 -8 CURVE SMOOTH"
);
},
{
closed = 1;
nodes = (
"215 153 OFFCURVE",
"205 169 OFFCURVE",
"205 192 CURVE SMOOTH",
"205 248 LINE SMOOTH",
"205 272 OFFCURVE",
"215 288 OFFCURVE",
"230 288 CURVE",
"245 288 OFFCURVE",
"255 272 OFFCURVE",
"255 248 CURVE SMOOTH",
"255 192 LINE SMOOTH",
"255 169 OFFCURVE",
"245 153 OFFCURVE",
"230 153 CURVE SMOOTH"
);
},
{
closed = 1;
nodes = (
"330 316 OFFCURVE",
"444 359 OFFCURVE",
"444 486 CURVE SMOOTH",
"444 525 LINE SMOOTH",
"444 650 OFFCURVE",
"371 708 OFFCURVE",
"230 708 CURVE SMOOTH",
"103 708 OFFCURVE",
"16 651 OFFCURVE",
"16 525 CURVE SMOOTH",
"16 487 LINE SMOOTH",
"16 359 OFFCURVE",
"133 316 OFFCURVE",
"230 294 CURVE"
);
},
{
closed = 1;
nodes = (
"214 422 OFFCURVE",
"205 438 OFFCURVE",
"205 462 CURVE SMOOTH",
"205 508 LINE SMOOTH",
"205 531 OFFCURVE",
"214 547 OFFCURVE",
"230 547 CURVE SMOOTH",
"245 547 OFFCURVE",
"255 531 OFFCURVE",
"255 508 CURVE SMOOTH",
"255 462 LINE SMOOTH",
"255 438 OFFCURVE",
"245 422 OFFCURVE",
"230 422 CURVE SMOOTH"
);
}
);
width = 460;
},
{
layerId = "FFFA8D72-12AC-4CE0-B2CA-57A29829F4DA";
paths = (
{
closed = 1;
nodes = (
"410 -8 OFFCURVE",
"508 73 OFFCURVE",
"508 194 CURVE SMOOTH",
"508 223 LINE SMOOTH",
"508 379 OFFCURVE",
"336 398 OFFCURVE",
"263 403 CURVE",
"189 398 OFFCURVE",
"17 379 OFFCURVE",
"17 223 CURVE SMOOTH",
"17 195 LINE SMOOTH",
"17 73 OFFCURVE",
"115 -8 OFFCURVE",
"263 -8 CURVE SMOOTH"
);
},
{
closed = 1;
nodes = (
"228 153 OFFCURVE",
"204 173 OFFCURVE",
"204 204 CURVE SMOOTH",
"204 236 LINE SMOOTH",
"204 267 OFFCURVE",
"228 288 OFFCURVE",
"263 288 CURVE",
"297 288 OFFCURVE",
"320 267 OFFCURVE",
"320 236 CURVE SMOOTH",
"320 204 LINE SMOOTH",
"320 173 OFFCURVE",
"297 153 OFFCURVE",
"263 153 CURVE SMOOTH"
);
},
{
closed = 1;
nodes = (
"381 318 OFFCURVE",
"509 362 OFFCURVE",
"509 492 CURVE SMOOTH",
"509 525 LINE SMOOTH",
"509 635 OFFCURVE",
"411 708 OFFCURVE",
"263 708 CURVE SMOOTH",
"115 708 OFFCURVE",
"16 635 OFFCURVE",
"16 525 CURVE SMOOTH",
"16 493 LINE SMOOTH",
"16 362 OFFCURVE",
"146 318 OFFCURVE",
"263 301 CURVE"
);
},
{
closed = 1;
nodes = (
"228 422 OFFCURVE",
"205 443 OFFCURVE",
"205 474 CURVE SMOOTH",
"205 496 LINE SMOOTH",
"205 527 OFFCURVE",
"228 547 OFFCURVE",
"263 547 CURVE SMOOTH",
"297 547 OFFCURVE",
"320 527 OFFCURVE",
"320 496 CURVE SMOOTH",
"320 474 LINE SMOOTH",
"320 443 OFFCURVE",
"297 422 OFFCURVE",
"263 422 CURVE SMOOTH"
);
}
);
width = 525;
},
{
layerId = "DCBE1F7B-116A-43E0-B7B4-8657BA77D8B5";
paths = (
{
closed = 1;
nodes = (
"274 -18 OFFCURVE",
"327 54 OFFCURVE",
"327 161 CURVE SMOOTH",
"327 215 LINE SMOOTH",
"327 322 OFFCURVE",
"271 394 OFFCURVE",
"192 394 CURVE SMOOTH",
"113 394 OFFCURVE",
"56 322 OFFCURVE",
"56 215 CURVE SMOOTH",
"56 161 LINE SMOOTH",
"56 54 OFFCURVE",
"111 -18 OFFCURVE",
"192 -18 CURVE SMOOTH"
);
},
{
closed = 1;
nodes = (
"124 2 OFFCURVE",
"78 66 OFFCURVE",
"78 161 CURVE SMOOTH",
"78 215 LINE SMOOTH",
"78 311 OFFCURVE",
"124 375 OFFCURVE",
"192 375 CURVE SMOOTH",
"260 375 OFFCURVE",
"305 311 OFFCURVE",
"305 215 CURVE SMOOTH",
"305 161 LINE SMOOTH",
"305 66 OFFCURVE",
"260 2 OFFCURVE",
"192 2 CURVE SMOOTH"
);
},
{
closed = 1;
nodes = (
"273 375 OFFCURVE",
"326 439 OFFCURVE",
"326 534 CURVE SMOOTH",
"326 549 LINE SMOOTH",
"326 644 OFFCURVE",
"274 708 OFFCURVE",
"192 708 CURVE SMOOTH",
"111 708 OFFCURVE",
"57 644 OFFCURVE",
"57 549 CURVE SMOOTH",
"57 534 LINE SMOOTH",
"57 439 OFFCURVE",
"112 375 OFFCURVE",
"192 375 CURVE SMOOTH"
);
},
{
closed = 1;
nodes = (
"124 395 OFFCURVE",
"80 451 OFFCURVE",
"80 534 CURVE SMOOTH",
"80 549 LINE SMOOTH",
"80 633 OFFCURVE",
"124 689 OFFCURVE",
"192 689 CURVE SMOOTH",
"260 689 OFFCURVE",
"303 633 OFFCURVE",
"303 549 CURVE SMOOTH",
"303 534 LINE SMOOTH",
"303 451 OFFCURVE",
"260 395 OFFCURVE",
"192 395 CURVE SMOOTH"
);
}
);
width = 383;
}
);
unicode = 0038;
},
{
glyphname = colon;
lastChange = "2017-01-20 08:41:53 +0000";
layers = (
{
layerId = "262880E7-CFE1-4BDA-902E-E24798F3240A";
paths = (
{
closed = 1;
nodes = (
"182 363 OFFCURVE",
"202 381 OFFCURVE",
"202 404 CURVE SMOOTH",
"202 426 OFFCURVE",
"182 444 OFFCURVE",
"160 444 CURVE SMOOTH",
"138 444 OFFCURVE",
"119 426 OFFCURVE",
"119 404 CURVE SMOOTH",
"119 381 OFFCURVE",
"137 363 OFFCURVE",
"160 363 CURVE SMOOTH"
);
},
{
closed = 1;
nodes = (
"182 20 OFFCURVE",
"202 38 OFFCURVE",
"202 61 CURVE SMOOTH",
"202 83 OFFCURVE",
"182 101 OFFCURVE",
"160 101 CURVE SMOOTH",
"138 101 OFFCURVE",
"119 83 OFFCURVE",
"119 61 CURVE SMOOTH",
"119 38 OFFCURVE",
"137 20 OFFCURVE",
"160 20 CURVE SMOOTH"
);
}
);
width = 321;
},
{
layerId = "4E2227F3-52E4-4048-A8EE-327B486EF0A4";
paths = (
{
closed = 1;
nodes = (
"223 321 OFFCURVE",
"266 368 OFFCURVE",
"266 426 CURVE SMOOTH",
"266 484 OFFCURVE",
"214 530 OFFCURVE",
"161 530 CURVE SMOOTH",
"108 530 OFFCURVE",
"56 484 OFFCURVE",
"56 426 CURVE SMOOTH",
"56 368 OFFCURVE",
"99 321 OFFCURVE",
"161 321 CURVE SMOOTH"
);
},
{
closed = 1;
nodes = (
"223 0 OFFCURVE",
"266 47 OFFCURVE",
"266 105 CURVE SMOOTH",
"266 163 OFFCURVE",
"214 209 OFFCURVE",
"161 209 CURVE SMOOTH",
"108 209 OFFCURVE",
"56 163 OFFCURVE",
"56 105 CURVE SMOOTH",
"56 47 OFFCURVE",
"99 0 OFFCURVE",
"161 0 CURVE SMOOTH"
);
}
);
width = 318;
},
{
layerId = "FFFA8D72-12AC-4CE0-B2CA-57A29829F4DA";
paths = (
{
closed = 1;
nodes = (
"257 321 OFFCURVE",
"304 368 OFFCURVE",
"304 426 CURVE SMOOTH",
"304 484 OFFCURVE",
"249 530 OFFCURVE",
"192 530 CURVE SMOOTH",
"136 530 OFFCURVE",
"81 484 OFFCURVE",
"81 426 CURVE SMOOTH",
"81 368 OFFCURVE",
"127 321 OFFCURVE",
"192 321 CURVE SMOOTH"
);
},
{
closed = 1;
nodes = (
"257 0 OFFCURVE",
"304 47 OFFCURVE",
"304 105 CURVE SMOOTH",
"304 163 OFFCURVE",
"249 209 OFFCURVE",
"192 209 CURVE SMOOTH",
"136 209 OFFCURVE",
"81 163 OFFCURVE",
"81 105 CURVE SMOOTH",
"81 47 OFFCURVE",
"127 0 OFFCURVE",
"192 0 CURVE SMOOTH"
);
}
);
width = 381;
},
{
layerId = "DCBE1F7B-116A-43E0-B7B4-8657BA77D8B5";
paths = (
{
closed = 1;
nodes = (
"101 350 OFFCURVE",
"117 368 OFFCURVE",
"117 391 CURVE SMOOTH",
"117 413 OFFCURVE",
"101 431 OFFCURVE",
"83 431 CURVE SMOOTH",
"65 431 OFFCURVE",
"49 413 OFFCURVE",
"49 391 CURVE SMOOTH",
"49 368 OFFCURVE",
"64 350 OFFCURVE",
"83 350 CURVE SMOOTH"
);
},
{
closed = 1;
nodes = (
"101 7 OFFCURVE",
"117 25 OFFCURVE",
"117 48 CURVE SMOOTH",
"117 70 OFFCURVE",
"101 88 OFFCURVE",
"83 88 CURVE SMOOTH",
"65 88 OFFCURVE",
"49 70 OFFCURVE",
"49 48 CURVE SMOOTH",
"49 25 OFFCURVE",
"64 7 OFFCURVE",
"83 7 CURVE SMOOTH"
);
}
);
width = 166;
}
);
leftKerningGroup = colon;
unicode = 003A;
},
{
glyphname = comma;
lastChange = "2017-01-20 08:41:53 +0000";
layers = (
{
layerId = "262880E7-CFE1-4BDA-902E-E24798F3240A";
paths = (
{
closed = 1;
nodes = (
"105 -66 LINE",
"161 153 LINE",
"139 153 LINE",
"83 -66 LINE"
);
}
);
width = 264;
},
{
layerId = "4E2227F3-52E4-4048-A8EE-327B486EF0A4";
paths = (
{
closed = 1;
nodes = (
"146 -111 LINE",
"209 160 LINE",
"41 160 LINE",
"24 -111 LINE"
);
}
);
width = 233;
},
{
layerId = "FFFA8D72-12AC-4CE0-B2CA-57A29829F4DA";
paths = (
{
closed = 1;
nodes = (
"166 -111 LINE",
"239 160 LINE",
"71 160 LINE",
"42 -111 LINE"
);
}
);
width = 285;
},
{
layerId = "DCBE1F7B-116A-43E0-B7B4-8657BA77D8B5";
paths = (
{
closed = 1;
nodes = (
"62 -66 LINE",
"105 153 LINE",
"84 153 LINE",
"42 -66 LINE"
);
}
);
width = 154;
}
);
leftKerningGroup = comma;
rightKerningGroup = comma;
unicode = 002C;
},
{
glyphname = exclam;
lastChange = "2017-01-20 08:41:53 +0000";
layers = (
{
layerId = "262880E7-CFE1-4BDA-902E-E24798F3240A";
paths = (
{
closed = 1;
nodes = (
"164 220 LINE",
"164 700 LINE",
"142 700 LINE",
"142 220 LINE"
);
},
{
closed = 1;
nodes = (
"172 5 OFFCURVE",
"192 23 OFFCURVE",
"192 46 CURVE SMOOTH",
"192 68 OFFCURVE",
"172 86 OFFCURVE",
"150 86 CURVE SMOOTH",
"128 86 OFFCURVE",
"109 68 OFFCURVE",
"109 46 CURVE SMOOTH",
"109 23 OFFCURVE",
"127 5 OFFCURVE",
"150 5 CURVE SMOOTH"
);
}
);
width = 306;
},
{
layerId = "4E2227F3-52E4-4048-A8EE-327B486EF0A4";
paths = (
{
closed = 1;
nodes = (
"225 248 LINE",
"245 700 LINE",
"57 700 LINE",
"77 248 LINE"
);
},
{
closed = 1;
nodes = (
"212 0 OFFCURVE",
"255 47 OFFCURVE",
"255 105 CURVE SMOOTH",
"255 163 OFFCURVE",
"203 209 OFFCURVE",
"150 209 CURVE SMOOTH",
"97 209 OFFCURVE",
"45 163 OFFCURVE",
"45 105 CURVE SMOOTH",
"45 47 OFFCURVE",
"88 0 OFFCURVE",
"150 0 CURVE SMOOTH"
);
}
);
width = 302;
},
{
layerId = "FFFA8D72-12AC-4CE0-B2CA-57A29829F4DA";
paths = (
{
closed = 1;
nodes = (
"255 248 LINE",
"275 700 LINE",
"87 700 LINE",
"106 248 LINE"
);
},
{
closed = 1;
nodes = (
"244 0 OFFCURVE",
"291 47 OFFCURVE",
"291 105 CURVE SMOOTH",
"291 163 OFFCURVE",
"236 209 OFFCURVE",
"179 209 CURVE SMOOTH",
"123 209 OFFCURVE",
"68 163 OFFCURVE",
"68 105 CURVE SMOOTH",
"68 47 OFFCURVE",
"114 0 OFFCURVE",
"179 0 CURVE SMOOTH"
);
}
);
width = 362;
},
{
layerId = "DCBE1F7B-116A-43E0-B7B4-8657BA77D8B5";
paths = (
{
closed = 1;
nodes = (
"128 220 LINE",
"129 700 LINE",
"107 700 LINE",
"107 220 LINE"
);
},
{
closed = 1;
nodes = (
"134 5 OFFCURVE",
"150 23 OFFCURVE",
"150 46 CURVE SMOOTH",
"150 68 OFFCURVE",
"134 86 OFFCURVE",
"116 86 CURVE SMOOTH",
"98 86 OFFCURVE",
"82 68 OFFCURVE",
"82 46 CURVE SMOOTH",
"82 23 OFFCURVE",
"97 5 OFFCURVE",
"116 5 CURVE SMOOTH"
);
}
);
width = 235;
}
);
unicode = 0021;
},
{
glyphname = period;
lastChange = "2017-01-20 08:41:53 +0000";
layers = (
{
layerId = "262880E7-CFE1-4BDA-902E-E24798F3240A";
paths = (
{
closed = 1;
nodes = (
"182 7 OFFCURVE",
"202 25 OFFCURVE",
"202 48 CURVE SMOOTH",
"202 70 OFFCURVE",
"182 88 OFFCURVE",
"160 88 CURVE SMOOTH",
"138 88 OFFCURVE",
"119 70 OFFCURVE",
"119 48 CURVE SMOOTH",
"119 25 OFFCURVE",
"137 7 OFFCURVE",
"160 7 CURVE SMOOTH"
);
}
);
width = 323;
},
{
layerId = "4E2227F3-52E4-4048-A8EE-327B486EF0A4";
paths = (
{
closed = 1;
nodes = (
"211 -8 OFFCURVE",
"254 39 OFFCURVE",
"254 97 CURVE SMOOTH",
"254 155 OFFCURVE",
"202 201 OFFCURVE",
"149 201 CURVE SMOOTH",
"96 201 OFFCURVE",
"44 155 OFFCURVE",
"44 97 CURVE SMOOTH",
"44 39 OFFCURVE",
"87 -8 OFFCURVE",
"149 -8 CURVE SMOOTH"
);
}
);
width = 308;
},
{
layerId = "FFFA8D72-12AC-4CE0-B2CA-57A29829F4DA";
paths = (
{
closed = 1;
nodes = (
"196 -8 OFFCURVE",
"243 39 OFFCURVE",
"243 97 CURVE SMOOTH",
"243 155 OFFCURVE",
"188 201 OFFCURVE",
"131 201 CURVE SMOOTH",
"75 201 OFFCURVE",
"20 155 OFFCURVE",
"20 97 CURVE SMOOTH",
"20 39 OFFCURVE",
"66 -8 OFFCURVE",
"131 -8 CURVE SMOOTH"
);
}
);
width = 263;
},
{
layerId = "DCBE1F7B-116A-43E0-B7B4-8657BA77D8B5";
paths = (
{
closed = 1;
nodes = (
"101 7 OFFCURVE",
"117 25 OFFCURVE",
"117 48 CURVE SMOOTH",
"117 70 OFFCURVE",
"101 88 OFFCURVE",
"83 88 CURVE SMOOTH",
"65 88 OFFCURVE",
"49 70 OFFCURVE",
"49 48 CURVE SMOOTH",
"49 25 OFFCURVE",
"64 7 OFFCURVE",
"83 7 CURVE SMOOTH"
);
}
);
width = 166;
}
);
leftKerningGroup = comma;
rightKerningGroup = comma;
unicode = 002E;
},
{
glyphname = question;
lastChange = "2017-01-20 08:41:53 +0000";
layers = (
{
layerId = "262880E7-CFE1-4BDA-902E-E24798F3240A";
paths = (
{
closed = 1;
nodes = (
"203 185 LINE",
"203 271 LINE",
"203 372 OFFCURVE",
"367 378 OFFCURVE",
"367 546 CURVE SMOOTH",
"367 645 OFFCURVE",
"303 709 OFFCURVE",
"208 709 CURVE SMOOTH",
"113 709 OFFCURVE",
"48 645 OFFCURVE",
"48 550 CURVE SMOOTH",
"48 500 LINE",
"70 500 LINE",
"70 550 LINE SMOOTH",
"70 633 OFFCURVE",
"126 688 OFFCURVE",
"208 688 CURVE SMOOTH",
"290 688 OFFCURVE",
"345 633 OFFCURVE",
"345 549 CURVE SMOOTH",
"345 395 OFFCURVE",
"179 394 OFFCURVE",
"179 271 CURVE",
"179 185 LINE"
);
},
{
closed = 1;
nodes = (
"215 5 OFFCURVE",
"235 23 OFFCURVE",
"235 46 CURVE SMOOTH",
"235 68 OFFCURVE",
"215 86 OFFCURVE",
"193 86 CURVE SMOOTH",
"171 86 OFFCURVE",
"152 68 OFFCURVE",
"152 46 CURVE SMOOTH",
"152 23 OFFCURVE",
"170 5 OFFCURVE",
"193 5 CURVE SMOOTH"
);
}
);
width = 418;
},
{
layerId = "4E2227F3-52E4-4048-A8EE-327B486EF0A4";
paths = (
{
closed = 1;
nodes = (
"321 236 LINE",
"321 252 LINE",
"321 339 OFFCURVE",
"473 338 OFFCURVE",
"473 503 CURVE SMOOTH",
"473 627 OFFCURVE",
"386 710 OFFCURVE",
"249 710 CURVE SMOOTH",
"107 710 OFFCURVE",
"10 620 OFFCURVE",
"10 488 CURVE SMOOTH",
"10 478 LINE",
"198 469 LINE",
"198 488 LINE SMOOTH",
"198 517 OFFCURVE",
"214 539 OFFCURVE",
"244 539 CURVE SMOOTH",
"268 539 OFFCURVE",
"283 522 OFFCURVE",
"283 494 CURVE SMOOTH",
"283 418 OFFCURVE",
"135 410 OFFCURVE",
"135 264 CURVE",
"135 236 LINE"
);
},
{
closed = 1;
nodes = (
"288 -5 OFFCURVE",
"332 38 OFFCURVE",
"332 91 CURVE SMOOTH",
"332 144 OFFCURVE",
"287 187 OFFCURVE",
"236 187 CURVE SMOOTH",
"184 187 OFFCURVE",
"140 144 OFFCURVE",
"140 90 CURVE SMOOTH",
"140 38 OFFCURVE",
"182 -5 OFFCURVE",
"235 -5 CURVE SMOOTH"
);
}
);
width = 483;
},
{
layerId = "FFFA8D72-12AC-4CE0-B2CA-57A29829F4DA";
paths = (
{
closed = 1;
nodes = (
"357 236 LINE",
"357 252 LINE",
"357 339 OFFCURVE",
"541 338 OFFCURVE",
"541 503 CURVE SMOOTH",
"541 627 OFFCURVE",
"442 710 OFFCURVE",
"288 710 CURVE SMOOTH",
"129 710 OFFCURVE",
"20 620 OFFCURVE",
"20 488 CURVE SMOOTH",
"20 478 LINE",
"208 469 LINE",
"208 488 LINE SMOOTH",
"208 517 OFFCURVE",
"236 539 OFFCURVE",
"283 539 CURVE SMOOTH",
"324 539 OFFCURVE",
"351 522 OFFCURVE",
"351 494 CURVE SMOOTH",
"351 418 OFFCURVE",
"170 410 OFFCURVE",
"170 264 CURVE",
"170 236 LINE"
);
},
{
closed = 1;
nodes = (
"327 -5 OFFCURVE",
"374 38 OFFCURVE",
"374 91 CURVE SMOOTH",
"374 144 OFFCURVE",
"326 187 OFFCURVE",
"272 187 CURVE SMOOTH",
"216 187 OFFCURVE",
"169 144 OFFCURVE",
"169 90 CURVE SMOOTH",
"169 38 OFFCURVE",
"214 -5 OFFCURVE",
"271 -5 CURVE SMOOTH"
);
}
);
width = 562;
},
{
layerId = "DCBE1F7B-116A-43E0-B7B4-8657BA77D8B5";
paths = (
{
closed = 1;
nodes = (
"159 185 LINE",
"159 271 LINE",
"159 372 OFFCURVE",
"284 378 OFFCURVE",
"284 546 CURVE SMOOTH",
"284 645 OFFCURVE",
"235 709 OFFCURVE",
"161 709 CURVE SMOOTH",
"86 709 OFFCURVE",
"35 645 OFFCURVE",
"35 550 CURVE SMOOTH",
"35 500 LINE",
"57 500 LINE",
"57 550 LINE SMOOTH",
"57 633 OFFCURVE",
"99 688 OFFCURVE",
"161 688 CURVE SMOOTH",
"221 688 OFFCURVE",
"262 633 OFFCURVE",
"262 549 CURVE SMOOTH",
"262 395 OFFCURVE",
"135 394 OFFCURVE",
"135 271 CURVE",
"135 185 LINE"
);
},
{
closed = 1;
nodes = (
"167 5 OFFCURVE",
"183 23 OFFCURVE",
"183 46 CURVE SMOOTH",
"183 68 OFFCURVE",
"167 86 OFFCURVE",
"149 86 CURVE SMOOTH",
"131 86 OFFCURVE",
"116 68 OFFCURVE",
"116 46 CURVE SMOOTH",
"116 23 OFFCURVE",
"131 5 OFFCURVE",
"149 5 CURVE SMOOTH"
);
}
);
width = 322;
}
);
unicode = 003F;
},
{
glyphname = quotedbl;
lastChange = "2017-02-19 09:44:40 +0000";
layers = (
{
layerId = "262880E7-CFE1-4BDA-902E-E24798F3240A";
paths = (
{
closed = 1;
nodes = (
"113 500 LINE",
"116 692 LINE",
"90 692 LINE",
"93 500 LINE"
);
},
{
closed = 1;
nodes = (
"23 500 LINE",
"26 692 LINE",
"0 692 LINE",
"3 500 LINE"
);
}
);
width = 156;
},
{
layerId = "4E2227F3-52E4-4048-A8EE-327B486EF0A4";
paths = (
{
closed = 1;
nodes = (
"392 460 LINE",
"412 700 LINE",
"234 700 LINE",
"254 460 LINE"
);
},
{
closed = 1;
nodes = (
"166 460 LINE",
"186 700 LINE",
"8 700 LINE",
"28 460 LINE"
);
}
);
width = 420;
},
{
layerId = "FFFA8D72-12AC-4CE0-B2CA-57A29829F4DA";
paths = (
{
closed = 1;
nodes = (
"403 460 LINE",
"423 700 LINE",
"244 700 LINE",
"264 460 LINE"
);
},
{
closed = 1;
nodes = (
"163 460 LINE",
"183 700 LINE",
"4 700 LINE",
"24 460 LINE"
);
}
);
width = 423;
},
{
layerId = "DCBE1F7B-116A-43E0-B7B4-8657BA77D8B5";
paths = (
{
closed = 1;
nodes = (
"124 500 LINE",
"127 692 LINE",
"102 692 LINE",
"104 500 LINE"
);
},
{
closed = 1;
nodes = (
"50 500 LINE",
"53 692 LINE",
"28 692 LINE",
"31 500 LINE"
);
}
);
width = 157;
}
);
leftKerningGroup = quotedbl;
leftMetricsKey = "=quotesingle";
rightKerningGroup = quotedbl;
rightMetricsKey = "=quotesingle";
unicode = 0022;
},
{
glyphname = quotesingle;
lastChange = "2017-02-19 09:43:15 +0000";
layers = (
{
layerId = "262880E7-CFE1-4BDA-902E-E24798F3240A";
paths = (
{
closed = 1;
nodes = (
"23 507 LINE",
"26 697 LINE",
"0 697 LINE",
"3 507 LINE"
);
}
);
width = 66;
},
{
layerId = "4E2227F3-52E4-4048-A8EE-327B486EF0A4";
paths = (
{
closed = 1;
nodes = (
"176 460 LINE",
"196 700 LINE",
"8 700 LINE",
"28 460 LINE"
);
}
);
width = 204;
},
{
layerId = "FFFA8D72-12AC-4CE0-B2CA-57A29829F4DA";
paths = (
{
closed = 1;
nodes = (
"173 460 LINE",
"193 700 LINE",
"4 700 LINE",
"24 460 LINE"
);
}
);
width = 193;
},
{
layerId = "DCBE1F7B-116A-43E0-B7B4-8657BA77D8B5";
paths = (
{
closed = 1;
nodes = (
"50 507 LINE",
"53 697 LINE",
"28 697 LINE",
"31 507 LINE"
);
}
);
width = 83;
}
);
leftKerningGroup = quotedbl;
rightKerningGroup = quotedbl;
unicode = 0027;
},
{
glyphname = semicolon;
lastChange = "2017-01-20 08:41:53 +0000";
layers = (
{
layerId = "262880E7-CFE1-4BDA-902E-E24798F3240A";
paths = (
{
closed = 1;
nodes = (
"137 -60 LINE",
"173 147 LINE",
"149 147 LINE",
"116 -60 LINE"
);
},
{
closed = 1;
nodes = (
"179 370 OFFCURVE",
"199 388 OFFCURVE",
"199 411 CURVE",
"199 433 OFFCURVE",
"179 451 OFFCURVE",
"157 451 CURVE SMOOTH",
"135 451 OFFCURVE",
"116 433 OFFCURVE",
"116 411 CURVE SMOOTH",
"116 388 OFFCURVE",
"134 370 OFFCURVE",
"157 370 CURVE SMOOTH"
);
}
);
width = 307;
},
{
layerId = "4E2227F3-52E4-4048-A8EE-327B486EF0A4";
paths = (
{
closed = 1;
nodes = (
"154 -111 LINE",
"217 160 LINE",
"49 160 LINE",
"32 -111 LINE"
);
},
{
closed = 1;
nodes = (
"191 291 OFFCURVE",
"234 338 OFFCURVE",
"234 396 CURVE SMOOTH",
"234 454 OFFCURVE",
"182 500 OFFCURVE",
"129 500 CURVE SMOOTH",
"76 500 OFFCURVE",
"24 454 OFFCURVE",
"24 396 CURVE SMOOTH",
"24 338 OFFCURVE",
"67 291 OFFCURVE",
"129 291 CURVE SMOOTH"
);
}
);
width = 258;
},
{
layerId = "FFFA8D72-12AC-4CE0-B2CA-57A29829F4DA";
paths = (
{
closed = 1;
nodes = (
"180 -111 LINE",
"249 160 LINE",
"81 160 LINE",
"57 -111 LINE"
);
},
{
closed = 1;
nodes = (
"225 291 OFFCURVE",
"272 338 OFFCURVE",
"272 396 CURVE SMOOTH",
"272 454 OFFCURVE",
"217 500 OFFCURVE",
"160 500 CURVE SMOOTH",
"104 500 OFFCURVE",
"49 454 OFFCURVE",
"49 396 CURVE SMOOTH",
"49 338 OFFCURVE",
"95 291 OFFCURVE",
"160 291 CURVE SMOOTH"
);
}
);
width = 319;
},
{
layerId = "DCBE1F7B-116A-43E0-B7B4-8657BA77D8B5";
paths = (
{
closed = 1;
nodes = (
"69 -60 LINE",
"97 147 LINE",
"74 147 LINE",
"49 -60 LINE"
);
},
{
closed = 1;
nodes = (
"101 370 OFFCURVE",
"117 388 OFFCURVE",
"117 411 CURVE",
"117 433 OFFCURVE",
"101 451 OFFCURVE",
"83 451 CURVE SMOOTH",
"65 451 OFFCURVE",
"49 433 OFFCURVE",
"49 411 CURVE SMOOTH",
"49 388 OFFCURVE",
"64 370 OFFCURVE",
"83 370 CURVE SMOOTH"
);
}
);
width = 166;
}
);
leftKerningGroup = colon;
unicode = 003B;
},
{
glyphname = slash;
lastChange = "2017-01-20 08:41:53 +0000";
layers = (
{
layerId = "262880E7-CFE1-4BDA-902E-E24798F3240A";
paths = (
{
closed = 1;
nodes = (
"22 0 LINE",
"224 700 LINE",
"202 700 LINE",
"0 0 LINE"
);
}
);
width = 224;
},
{
layerId = "4E2227F3-52E4-4048-A8EE-327B486EF0A4";
paths = (
{
closed = 1;
nodes = (
"188 0 LINE",
"442 700 LINE",
"254 700 LINE",
"0 0 LINE"
);
}
);
width = 442;
},
{
layerId = "FFFA8D72-12AC-4CE0-B2CA-57A29829F4DA";
paths = (
{
closed = 1;
nodes = (
"188 0 LINE",
"479 700 LINE",
"292 700 LINE",
"0 0 LINE"
);
}
);
width = 479;
},
{
layerId = "DCBE1F7B-116A-43E0-B7B4-8657BA77D8B5";
paths = (
{
closed = 1;
nodes = (
"22 0 LINE",
"179 700 LINE",
"157 700 LINE",
"0 0 LINE"
);
}
);
width = 179;
}
);
unicode = 002F;
},
{
glyphname = bracketleft;
lastChange = "2017-01-20 08:41:53 +0000";
layers = (
{
layerId = "262880E7-CFE1-4BDA-902E-E24798F3240A";
paths = (
{
closed = 1;
nodes = (
"210 -103 LINE",
"210 -82 LINE",
"53 -82 LINE",
"53 735 LINE",
"209 735 LINE",
"209 756 LINE",
"31 756 LINE",
"31 -103 LINE"
);
}
);
width = 354;
},
{
layerId = "4E2227F3-52E4-4048-A8EE-327B486EF0A4";
paths = (
{
closed = 1;
nodes = (
"293 -164 LINE",
"293 6 LINE",
"218 6 LINE",
"218 648 LINE",
"293 648 LINE",
"293 818 LINE",
"30 818 LINE",
"30 -164 LINE"
);
}
);
width = 373;
},
{
layerId = "FFFA8D72-12AC-4CE0-B2CA-57A29829F4DA";
paths = (
{
closed = 1;
nodes = (
"331 -164 LINE",
"331 6 LINE",
"224 6 LINE",
"224 648 LINE",
"331 648 LINE",
"331 818 LINE",
"36 818 LINE",
"36 -164 LINE"
);
}
);
width = 441;
},
{
layerId = "DCBE1F7B-116A-43E0-B7B4-8657BA77D8B5";
paths = (
{
closed = 1;
nodes = (
"164 -103 LINE",
"164 -82 LINE",
"46 -82 LINE",
"46 735 LINE",
"163 735 LINE",
"163 756 LINE",
"24 756 LINE",
"24 -103 LINE"
);
}
);
width = 273;
}
);
unicode = 005B;
},
{
glyphname = parenleft;
lastChange = "2017-01-20 08:41:53 +0000";
layers = (
{
layerId = "262880E7-CFE1-4BDA-902E-E24798F3240A";
paths = (
{
closed = 1;
nodes = (
"114 -113 LINE",
"57 -17 OFFCURVE",
"19 157 OFFCURVE",
"19 322 CURVE SMOOTH",
"19 490 OFFCURVE",
"57 668 OFFCURVE",
"114 766 CURVE",
"93 766 LINE",
"33 667 OFFCURVE",
"-7 489 OFFCURVE",
"-7 320 CURVE SMOOTH",
"-7 156 OFFCURVE",
"32 -17 OFFCURVE",
"90 -113 CURVE"
);
}
);
width = 200;
},
{
layerId = "4E2227F3-52E4-4048-A8EE-327B486EF0A4";
paths = (
{
closed = 1;
nodes = (
"321 -83 LINE",
"275 10 OFFCURVE",
"213 137 OFFCURVE",
"213 337 CURVE SMOOTH",
"213 536 OFFCURVE",
"275 664 OFFCURVE",
"321 756 CURVE",
"135 756 LINE",
"65 665 OFFCURVE",
"3 536 OFFCURVE",
"3 337 CURVE SMOOTH",
"3 137 OFFCURVE",
"65 9 OFFCURVE",
"135 -83 CURVE"
);
}
);
width = 371;
},
{
layerId = "FFFA8D72-12AC-4CE0-B2CA-57A29829F4DA";
paths = (
{
closed = 1;
nodes = (
"337 -83 LINE",
"280 10 OFFCURVE",
"211 137 OFFCURVE",
"211 337 CURVE SMOOTH",
"211 536 OFFCURVE",
"280 664 OFFCURVE",
"337 756 CURVE",
"151 756 LINE",
"70 665 OFFCURVE",
"1 536 OFFCURVE",
"1 337 CURVE SMOOTH",
"1 137 OFFCURVE",
"70 9 OFFCURVE",
"151 -83 CURVE"
);
}
);
width = 405;
},
{
layerId = "DCBE1F7B-116A-43E0-B7B4-8657BA77D8B5";
paths = (
{
closed = 1;
nodes = (
"94 -113 LINE",
"51 -17 OFFCURVE",
"21 157 OFFCURVE",
"21 322 CURVE SMOOTH",
"21 490 OFFCURVE",
"51 668 OFFCURVE",
"94 766 CURVE",
"73 766 LINE",
"26 667 OFFCURVE",
"-5 489 OFFCURVE",
"-5 320 CURVE SMOOTH",
"-5 156 OFFCURVE",
"26 -17 OFFCURVE",
"70 -113 CURVE"
);
}
);
width = 159;
}
);
unicode = 0028;
},
